<svg width="20" height="20" viewBox="0 0 20 20" fill="none" xmlns="http://www.w3.org/2000/svg">
<path fill-rule="evenodd" clip-rule="evenodd" d="M14.412 6.07757C14.7375 5.75214 15.2651 5.75214 15.5906 6.07757L18.9239 9.41091C19.2493 9.73634 19.2493 10.264 18.9239 10.5894L15.5906 13.9228C15.2651 14.2482 14.7375 14.2482 14.412 13.9228C14.0866 13.5973 14.0866 13.0697 14.412 12.7442L17.1561 10.0002L14.412 7.25608C14.0866 6.93065 14.0866 6.40301 14.412 6.07757Z" fill="#011F5B"/>
<path fill-rule="evenodd" clip-rule="evenodd" d="M0.832031 9.99984C0.832031 9.5396 1.20513 9.1665 1.66536 9.1665H18.332C18.7923 9.1665 19.1654 9.5396 19.1654 9.99984C19.1654 10.4601 18.7923 10.8332 18.332 10.8332H1.66536C1.20513 10.8332 0.832031 10.4601 0.832031 9.99984Z" fill="#011F5B"/>
</svg>
