<?xml version="1.0" encoding="utf-8"?>
<!-- Generator: Adobe Illustrator 19.1.0, SVG Export Plug-In . SVG Version: 6.00 Build 0)  -->
<!DOCTYPE svg PUBLIC "-//W3C//DTD SVG 1.1//EN" "http://www.w3.org/Graphics/SVG/1.1/DTD/svg11.dtd">
<svg version="1.1" id="Layer_1" xmlns="http://www.w3.org/2000/svg" xmlns:xlink="http://www.w3.org/1999/xlink" x="0px" y="0px"
	 viewBox="235 270 919 254" style="enable-background:new 235 270 919 254;" xml:space="preserve">
<style type="text/css">
	.st0{fill:#FEFEFE;}
	.st1{fill:#0D296A;}
	.st2{fill:#A2011E;}
</style>
<g id="JCrVrX_2_">
	<g>
		<path class="st0" d="M1151.4,515.9c-25.4,0-50.8-0.1-76.3-0.1c-4,0-5.8-2.7-4.4-6.4c0.5-1.3,1.5-0.9,2.4-1
			c4.2-0.4,8.5-0.3,12.7-1.6c6.9-2.1,10.4-6.1,10.7-13.3c0.3-7.6,0.1-15.2,0.1-22.8c0-20,0-39.9,0-59.9c0-12.8-4.4-23.4-15.9-29.8
			c-11.9-6.5-24.1-6.1-35.9,0.8c-9.7,5.7-16.9,14.1-23.7,22.9c-0.9,1.2-0.9,2.4-0.9,3.7c0,25.2,0,50.4,0,75.5c0,3.3,0.3,6.7,0.8,9.9
			c1.4,9,6.2,13.1,16,14.1c2,0.2,4,0.5,6,0.4c2.4-0.2,2.7,0.9,2.7,2.9c-0.1,4.5,0,4.5-4.6,4.5c-50.2,0-100.5,0-150.7,0
			c-3.8,0-5.7-3.1-4.2-6.6c0.5-1.1,1.4-0.7,2.1-0.8c4.6-0.4,9.2-0.3,13.7-1.8c6-1.9,9.2-5.9,9.8-12.1c0.1-1.5,0.3-3.1,0.3-4.6
			c0-26.5,0.1-53,0-79.5c0-17.5-9.8-29.8-26.3-33.2c-12-2.5-22.5,1.3-31.8,8.8c-6.5,5.2-11.9,11.5-17,18.1c-1,1.3-1.3,2.7-1.3,4.3
			c0,24.9,0,49.9,0.1,74.8c0,3.2,0.3,6.4,0.7,9.6c1.4,9.9,6.2,14.3,16.6,15.1c1.7,0.1,3.3,0.4,5,0.2c2.6-0.2,3.2,0.8,3.4,3.4
			c0.2,3.6-1,4.2-4.4,4.2c-24.1-0.2-48.2-0.1-72.3,0c-2.2,0-3.7-0.1-3.3-2.9c0.3-2.1-1.1-4.9,3.1-4.6c3.4,0.2,6.8-0.1,10.3-0.8
			c5.5-1.1,8.7-4.5,10.1-9.7c1.3-4.6,1.5-9.4,1.6-14.1c0-30.4,0-60.8,0-91.2c0-13.7-3.6-17.8-17.1-19.4c-1.2-0.1-2.4-0.4-3.5-0.2
			c-3.8,0.5-4.9-1.1-4.5-4.7c0.2-1.6,0-2.9,2.2-3.1c16.2-1.3,32.3-3.5,48.6-4.5c3.1-0.2,3.7,0.8,3.6,3.7c-0.2,8.4-0.1,16.8-0.1,25.6
			c1.8-0.5,2.5-1.9,3.5-2.9c10.5-11,22.1-20.4,37.3-24.5c32.1-8.7,63.1,13.5,64.6,46.8c1.1,25.2,0.2,50.4,0.4,75.5
			c0,3.3,0.2,6.6,0.8,9.9c1.4,7.5,5.9,11.6,13.2,12.9c7.2,1.3,14.4,1.2,21.6,0.4c8-0.9,11.7-5,13-13.6c0.5-3.6,0.8-7.3,0.8-11
			c0-30.1,0-60.1,0-90.2c0-14.9-4.8-19.8-19.7-20.3c-0.4,0-0.7,0-1.1,0c-4-0.1-5.7-2.7-4.3-6.6c0.4-1.1,1.2-1.1,2-1.1
			c16.4-1.3,32.8-3.7,49.3-4.6c2.5-0.1,3.2,0.6,3.1,3.1c-0.2,8.6-0.1,17.3-0.1,26.9c1.5-1.6,2.4-2.6,3.3-3.5
			c10.6-11.2,22.3-20.6,37.5-24.7c32.6-8.6,63.8,14.3,64.6,48c0.5,24.8,0.2,49.6,0.2,74.5c0,3.3,0.3,6.6,0.9,9.9
			c1.4,7.4,5.9,11.6,13.3,12.8c3.7,0.6,7.5,1.2,11.3,0.6C1151.4,510.7,1151.4,513.3,1151.4,515.9z"/>
		<path class="st1" d="M346.2,271.6c35.2,0,70.3,0,105.5,0c1.9,0,3.6-0.5,3.6,2.7c-0.1,36.7,0.3,73.4-0.2,110.1
			c-0.3,23.8-8.6,45.3-22.2,64.6c-21,29.9-48.9,51.3-82.6,65.2c-5.5,2.3-11,2.7-16.5,0.1c-44-20.1-76.8-50.9-92.1-98
			c-3.5-10.9-5-22.2-5-33.7c0-35.7,0-71.5-0.1-107.2c0-3.1,0.6-4,3.9-4C275.7,271.6,311,271.6,346.2,271.6z M345.7,339.9
			c-34.2,0-68.4,0-102.6-0.1c-2.5,0-3.4,0.4-3.4,3.2c0.2,13.9-0.1,27.8,0.1,41.7c0.2,16,4,31.2,10.3,45.8c0.8,1.8,1.2,2.8,3.3,0.8
			c8.5-8.3,17.2-16.3,25.8-24.5c21.6-20.5,43.3-40.9,64.9-61.4c1.4-1.3,2.2-1.6,3.7-0.1c4.7,4.7,9.5,9.3,14.3,13.9
			c25,24,50,48,74.9,72.1c1.6,1.6,2.2,1.4,3.1-0.5c7.6-15.3,11.9-31.5,12.2-48.6c0.2-12.9-0.1-25.9,0.1-38.8c0-3-0.8-3.6-3.7-3.6
			C414.3,339.9,380,339.9,345.7,339.9z M345.8,338.5c34.3,0,68.6,0,102.9,0.1c2.8,0,3.6-0.7,3.6-3.5c-0.1-18.9-0.1-37.8,0-56.6
			c0-2.9-0.9-3.6-3.6-3.6c-68.4,0.1-136.8,0.1-205.2,0c-2.9,0-3.8,0.8-3.8,3.8c0.1,18.2,0.1,36.3,0.1,54.5c0,6-0.9,5.4,5.2,5.4
			C278.6,338.5,312.2,338.5,345.8,338.5z M341.8,513.2c2.7-0.2,5.1-1.1,7.6-2c20-7.6,37.4-19.4,53.6-33.1c1.7-1.5,1.7-2.3,0.2-3.9
			c-18.6-19-37.1-38-55.7-57.1c-1.1-1.2-1.8-1.1-2.9,0c-2.4,2.6-4.9,5.1-7.4,7.7c-16.9,17.1-33.9,34.3-50.8,51.4
			c-1.2,1.2-2.1,2-0.3,3.6c14.5,12.9,30.2,24.1,48.3,31.5C336.7,512.1,339.2,513,341.8,513.2z M345.9,401.3
			c9.8,0,17.9-7.9,17.9-17.3c0-9.6-8.4-17.7-18.2-17.6c-9.7,0.1-17.9,8.1-18,17.5C327.6,393.4,336,401.3,345.9,401.3z M394.7,444.8
			c9.9,0,18-7.9,18-17.4c-0.1-9.7-8.2-17.4-18.4-17.3c-9.9,0.1-17.8,7.9-17.7,17.6C376.7,437.3,384.7,444.8,394.7,444.8z M294,444.8
			c10,0,18.1-7.6,18.2-17.1c0.1-9.6-8.1-17.5-18.2-17.5c-10,0-17.9,7.7-17.9,17.3S284,444.7,294,444.8z"/>
		<g>
			<path class="st0" d="M636.1,290.8c-16.2-12.1-35-17-54.8-18.6c-16.6-1.3-33.2-0.3-46.9-0.6c-19.7,0-36.5,0-53.2,0
				c-1.1,0-2.8-0.7-3.1,0.7c-0.4,1.9-0.5,4.1,0,6c0.5,1.6,2.5,0.8,3.8,0.9c12.1,0.6,18.8,6.1,21.7,17.8c1.4,5.8,1.9,11.7,1.9,17.6
				c0,52.6,0,105.2,0,157.8c0,5.1-0.5,10.2-1.4,15.2c-2.2,12.1-7.9,18.4-18.4,20.2c-2,0.3-4,0.3-6,0.5c-3.8,0.4-1.3,3.3-1.8,5
				s0.3,2.4,2.3,2.4c27.7-0.1,55.3,0,83,0c0.8,0,2.1,0.3,2.2-0.6c0.3-2,0.5-4.1,0-6c-0.3-1.5-2.2-0.8-3.4-1
				c-0.8-0.2-1.7-0.1-2.5-0.2c-9.7-0.8-16.1-5.8-18.9-15.2c-1.5-5.1-2.3-10.4-2.3-15.8c-0.1-24.1-0.1-48.2-0.3-72.3
				c0-2.7,0.9-3.1,3.3-2.8c8.6,1.2,17.2,1.9,25.9,2.1c18.1,0.4,36.1-0.4,53.4-6.5c15.5-5.5,28.4-14.4,35.5-29.8
				C668.6,340.9,660.3,308.9,636.1,290.8z M621.5,367.8c-7.6,14.6-20.4,22.1-36,25.2c-14.8,2.9-29.7,2.8-44.4-1.5
				c-2.4-0.7-3.4-1.8-3-4.2c0-0.2,0-0.5,0-0.7c0-17,0-33.9,0-50.9s0-33.9-0.1-50.9c0-2.6,0.4-3.8,3.4-3.7c12.4,0.4,24.9-0.9,37.3,1
				c24.4,3.6,40.8,18.8,46.5,42.8C628.8,339.5,628.6,354.1,621.5,367.8z"/>
			<path class="st0" d="M538.1,284.7c0.1,17,0.1,33.9,0.1,50.9s0,33.9,0,50.9c0-17,0-33.9,0-50.9
				C538.2,318.7,538.2,301.7,538.1,284.7z"/>
		</g>
		<path class="st0" d="M345.7,339.9c34.3,0,68.6,0,103-0.1c2.9,0,3.7,0.6,3.7,3.6c-0.2,12.9,0.1,25.9-0.1,38.8
			c-0.3,17.1-4.6,33.2-12.2,48.6c-0.9,1.9-1.5,2.1-3.1,0.5c-25-24-50-48-75-72c-4.8-4.6-9.6-9.2-14.3-13.9c-1.5-1.5-2.2-1.3-3.7,0.1
			c-21.6,20.5-43.2,41-64.9,61.4c-8.6,8.2-17.3,16.2-25.8,24.5c-2.1,2-2.5,0.9-3.3-0.8c-6.3-14.6-10.1-29.8-10.3-45.8
			c-0.2-13.9,0.1-27.8-0.1-41.7c0-2.8,0.9-3.2,3.4-3.2C277.3,339.9,311.5,339.9,345.7,339.9z"/>
		<path class="st2" d="M345.8,338.5c-33.6,0-67.2,0-100.8,0c-6,0-5.2,0.6-5.2-5.4c0-18.2,0.1-36.3-0.1-54.5c0-3,0.8-3.8,3.8-3.8
			c68.4,0.1,136.8,0.1,205.2,0c2.7,0,3.7,0.7,3.6,3.6c-0.1,18.9-0.1,37.8,0,56.6c0,2.9-0.8,3.5-3.6,3.5
			C414.4,338.5,380.1,338.5,345.8,338.5z M374.3,319.4c1-1.1,1.9-2.3,3-3.4c1.1-1,2.4-2.3,4.1-1.6c1.4,0.6,2.5,1.8,2.6,3.5
			c0.2,2-0.7,3.6-2.3,4.4c-3.2,1.6-6.7,1.8-9.5-0.4c-2.7-2.1-7.5-3-5.7-8.4c0.3-0.9-0.1-1.8-0.6-2.7c-2.1-3.6-3.4-7.7-5.7-10.9
			c-2-2.7-5.1-4.7-7.1-7.6c-0.3-0.5-1.6-0.2-2.4-0.4c-1-0.3-2.1-0.2-2.8-1.3c-2.6-4.9-8.3-3.9-12.3-6.2c-0.2-0.1-0.5-0.1-0.7,0
			c-2.9,1.1-5.7,1.8-8.7,0.1c-1.3-0.7-2.7,0.5-3.8,1.4c-0.7,0.6-1.2,1.4-2.4,0.6c-3.1-2.1-5-0.5-6.7,2.1c-0.5,0.8-0.7,2.5-2.1,1.8
			c-2.1-1.1-2.9,0.5-3.7,1.6c-4,5.9-6.9,12.4-9,19.2c-0.6,1.8-0.8,4,0.9,5.3c2.3,1.7,1.9,3.3,0.3,5c-2.4,2.5-2.4,4.8,0.6,6.7
			c0.6,0.4,1,1,1.3,1.6c1.4,3.1,4.1,4,7.1,3.4c6.4-1.2,12.2-4.4,15.8-9.5c2.7-3.8,5.5-4.2,9.1-4.1c3.7,0.1,6.9,1.7,10,3.3
			c5.1,2.6,10.2,5.1,15.2,7.8c5.5,3,11.4,3.8,17.6,3.3c12.9-1,19.5-9.6,17.4-22.3c-1-5.9-3-11.7-1.5-17.9c0.4-1.8-0.5-2.5-2.3-2.5
			c-5.4-0.2-8.6,3-9.6,10.1c-0.2,1.7-0.5,2.6-2.3,3.3C371.9,307.3,370.3,313.4,374.3,319.4z M435.9,326.5c2.4,0,4.8-0.3,7.1,0.1
			c2.5,0.4,3-0.7,2.8-2.7c-0.1-2.2-0.1-4.1,1.9-5.8c1.2-1,1.3-2.7,0.1-4.2c-2.9-3.6-2.8-9.3,0-13.3c1-1.4,1.5-3,0.3-4.3
			c-1.5-1.6-1.7-3.3-1.6-5.2c0.2-1.8-0.5-2.6-2.4-2.4c-2.5,0.2-4.9,0-7.1-1.6c-3.4-2.5-7-2.5-10.8-0.9c-1.8,0.8-3.7,1.5-5.8,0.3
			c-3.5-2-7.1-1.6-10.5,0.3c-2.5,1.4-5,2-7.8,1.8c-5.7-0.5-1.6,6.5-5.7,7.5c-0.8,0.2-0.2,2.1,0.6,3.1c2.2,2.8,3,10.9,1,13.6
			c-1.6,2.2-1.3,4,0.5,5.6c1.4,1.3,1.7,2.5,1.1,4.4c-0.9,2.9,0.1,4.1,3.5,4.1C414.1,326.9,425,326.8,435.9,326.5z M269.6,326.9
			c6.6,0,13.3-0.1,19.9,0c2.3,0,3.3-0.6,3.1-3c-0.2-2.1-0.1-4.1,1.9-5.7c1.6-1.3,0.9-3-0.3-4.4c-2.4-2.8-2.3-10,0.1-12.8
			c1.2-1.4,1.8-3.2,0.5-4.5c-2.2-2.1-0.4-5.5-1.9-6.8c-1.7-1.5-4.9-0.3-7.3-1.4c-0.9-0.4-1.7-0.8-2.5-1.3c-3.3-2.3-6.7-2.2-10.1-0.6
			c-2.2,1-4.2,1.1-6.5,0c-2.7-1.3-5.6-1.4-8.3-0.1c-3.4,1.7-6.8,2.8-10.6,2.4c-1.5-0.2-2.2,0.4-2.1,2c0.2,1.8-0.2,3.3-1.9,4.5
			c-1.4,1-1.3,2.8-0.2,4.1c3.6,4.5,2.9,9.3,0.8,14.1c-0.9,2-0.8,3.8,0.7,5.1c1.7,1.5,2.2,3.3,1.9,5.4c-0.3,2.5,0.9,3,3.1,2.9
			C256.5,326.8,263.1,326.9,269.6,326.9z"/>
		<path class="st0" d="M341.8,513.2c-2.6-0.2-5.1-1.1-7.5-2c-18.2-7.4-33.8-18.5-48.3-31.5c-1.8-1.6-0.9-2.4,0.3-3.6
			c17-17.1,33.9-34.2,50.8-51.4c2.5-2.5,5-5.1,7.4-7.7c1-1.1,1.7-1.1,2.9,0c18.5,19.1,37.1,38.1,55.7,57.1c1.5,1.6,1.5,2.4-0.2,3.9
			c-16.2,13.8-33.6,25.5-53.6,33.1C346.9,512.1,344.4,512.9,341.8,513.2z"/>
		<path class="st0" d="M345.9,401.3c-10,0-18.4-7.9-18.3-17.4c0.1-9.3,8.4-17.4,18-17.5c9.8-0.1,18.2,8,18.2,17.6
			C363.9,393.4,355.8,401.2,345.9,401.3z"/>
		<path class="st0" d="M394.7,444.8c-10.1,0-18-7.5-18.1-17.1c-0.1-9.6,7.8-17.5,17.7-17.6c10.2-0.1,18.3,7.6,18.4,17.3
			C412.8,436.9,404.7,444.7,394.7,444.8z"/>
		<path class="st0" d="M294,444.8c-10,0-17.9-7.7-17.9-17.3s7.9-17.3,17.9-17.3c10.1,0,18.3,7.9,18.2,17.5
			C312.1,437.2,303.9,444.8,294,444.8z"/>
		<g>
			<path class="st0" d="M780.5,476.8c-5.3,5.7-10,10.7-14.9,15.5c-14.4,14-31.2,19.6-50.8,14.2c-19.7-5.5-32.3-19.1-40-37.5
				c-5.1-12.3-7.1-25.3-7.4-38.5c-0.1-6.5-0.3-6.5,6.2-6.5c33.5,0,67,0,100.5,0.1c2.8,0,4.1-0.3,4-3.7c-0.2-9.7-2.7-18.7-7.5-27.1
				c-15.9-27.6-52.2-39.8-83.3-28.1c-47.6,18-61.9,75.6-41.7,114.5c16.9,32.3,51.5,44.1,84.3,40.4c21.1-2.4,36.5-14,49.3-30.1
				c0.8-0.9,1.3-1.9,1.3-3.2C780.4,483.6,780.5,480.7,780.5,476.8z M667.4,413.1c1.1-8.8,3.2-17.2,7.8-24.9
				c8.6-14.3,24-20.8,41.7-17.7c15.5,2.8,27.8,15.2,31.1,31.3c0.8,3.8,1,7.7,1.3,11.6c0.2,2.4-0.7,3-3,3c-12.7-0.1-25.4,0-38.1,0
				l0,0c-12.5,0-24.9-0.1-37.4,0.1C668.2,416.6,667.1,416.1,667.4,413.1z"/>
		</g>
		<path class="st1" d="M374.3,319.4c-3.9-6-2.4-12.1,3.9-14.6c1.8-0.7,2.1-1.6,2.3-3.3c1-7.1,4.2-10.3,9.6-10.1
			c1.8,0.1,2.8,0.7,2.3,2.5c-1.5,6.1,0.5,12,1.5,17.9c2.1,12.7-4.6,21.3-17.4,22.3c-6.1,0.5-12-0.3-17.6-3.3
			c-5-2.7-10.1-5.3-15.2-7.8c-3.2-1.6-6.4-3.2-10-3.3c-3.7-0.1-6.4,0.3-9.1,4.1c-3.6,5-9.4,8.3-15.8,9.5c-3,0.6-5.7-0.3-7.1-3.4
			c-0.3-0.7-0.7-1.2-1.3-1.6c-3-2-3-4.2-0.6-6.7c1.6-1.7,2.1-3.3-0.3-5c-1.7-1.3-1.5-3.5-0.9-5.3c2.1-6.8,5-13.3,9-19.2
			c0.8-1.1,1.6-2.7,3.7-1.6c1.4,0.7,1.6-1,2.1-1.8c1.7-2.6,3.6-4.3,6.7-2.1c1.2,0.8,1.7,0,2.4-0.6c1.1-0.9,2.6-2.1,3.8-1.4
			c3,1.7,5.8,1.1,8.7-0.1c0.2-0.1,0.5-0.1,0.7,0c4,2.3,9.6,1.3,12.3,6.2c0.6,1.2,1.8,1,2.8,1.3c0.8,0.2,2.1,0,2.4,0.4
			c2,2.9,5.2,4.9,7.1,7.6c2.3,3.3,3.6,7.4,5.7,10.9c0.5,0.9,0.9,1.8,0.6,2.7c-1.9,5.3,3,6.3,5.7,8.4c2.8,2.2,6.3,2,9.5,0.4
			c1.7-0.8,2.5-2.4,2.3-4.4c-0.2-1.7-1.2-2.9-2.6-3.5c-1.7-0.7-2.9,0.5-4.1,1.6C376.2,317.1,375.3,318.3,374.3,319.4z M324.8,317.7
			c1.2,1.5,2.4,1,3.7,0.8c4.6-0.8,9-0.2,13.1,1.8c4.2,2.1,8.4,4.4,12.6,6.5c4.4,2.2,8.8,4.7,13.7,5.6c14,2.4,29.4-4.8,23.9-23.3
			c-1.3-4.4-2.3-9-1.2-13.7c0.8-3-0.7-2.9-2.8-2.3c-3.8,1-5.8,4.1-6.1,9.8c-0.1,1.8-0.4,2.5-2.3,3.1c-5.2,1.4-6.7,4.8-5,10.2
			c0.9-0.8,1.8-1.6,2.7-2.2c3.5-2.4,7.2-1,8.1,3.2c0.7,3.3-0.8,5.9-4.3,7.1c-5.6,2-14.1-1.4-17.6-7.2c-3.9-6.6-9.2-12-14.5-17.3
			c-9.4-9.3-21.8-8.9-33.2-5.1c-1.6,0.6-2.2,1.4-1.3,3.2c1.1,2.1,1.6,4.4,1.8,7c2.4-0.6,4.8-0.5,6.8,0.9c0.8,0.6,1.4,0.6,2-0.4
			c1.7-2.9,4.2-2.1,6.5-1c1.9,0.9,3.5,1.2,5.6,0.2c3.4-1.7,5.8-0.5,7.4,3.1c0.4,0.8,0.1,2.1,1.5,2c3.2-0.1,5.2,1.2,5.8,4.5
			c0.1,0.3,0.7,0.8,1,0.8c3.6-0.2,4.4,2.1,4.7,5c0.1,1.4,1.1,1.9,2.2,2.5c2.1,1.2,2.1,1.5,1.2,4.2c-1.3-0.4-0.3-2.2-1.5-2.5
			c-2.9-0.9-3.3-3.2-3.8-5.8c-0.3-1.5-1.5-2.3-3-1.7c-2.3,1-2.3-0.4-2.4-1.9c-0.2-2.7-2-3.8-4.4-3.4c-1.9,0.3-2.2-0.2-2.6-2
			c-0.4-2.5-2-4.9-4.9-3.5c-3.2,1.5-5.8,1.2-8.7-0.4c-1.3-0.8-2.6-0.4-3.7,1c-1.1,1.4-0.4,2.3,0.5,3.4c0.4,0.4,0.7,1,1.1,1.4
			c2.3,2,1.6,3.6-0.6,5.1C326.5,316.7,325.7,317.1,324.8,317.7z M309.8,291.7c-4.9,6.9-8.1,13.9-10,21.5c-0.3,1,0.2,1.8,1,2.5
			c2.7,2.1,2.3,4.4,0.4,6.8c-0.8,1-2.1,1.9-1.3,3.4c0.8,1.5,2.4,1.8,4,1.8c5.1,0.1,9.5-1.5,13.1-5.2c0.5-0.5,0.9-1.6,2.2-0.5
			c-3.8,5.5-9.5,7-15.8,7.4c0.8,2.2,2.3,2.6,3.8,2.7c4.1,0.3,15-6,16.8-9.7c0.5-1,1.3-2.3-0.8-2.7c-0.9-0.2-2.5,0.4-2.6-1
			c-0.1-1.2,1.4-1.4,2.3-1.9c5.4-2.7,5.4-2.7,1.7-7.3c-0.1-0.1-0.2-0.2-0.2-0.3c-3.1-3.8-5.8-4-9.7-0.9c-1.1,0.8-1.9,2.3-4.7,2.1
			C318.8,303.6,312.3,298.2,309.8,291.7z M364.5,315c1.1-2.4-0.2-3.4-1.4-4.6c-1.9-2-0.6-6.1-4.3-7c0,0,0.1-0.4,0.1-0.7
			c0.9-4.2-2.8-2.8-4.5-4c-1.6-1.1,0.4-5.2-3.6-5.2c-0.8,0-1.6-0.3-2.5-0.4c-1.2-0.1-2-0.5-2.2-1.8c-0.5-3.1-2.5-3-4.8-2.3
			c-0.9,0.3-1.5,0.9-2-0.7c-1.2-3.2-3.9-3-6.1-1.6c-1.9,1.2-3.4,1.4-5.1,0.1c-2-1.5-3.9-1-5.2,0.9c-1.1,1.6-2,1.7-3.3,0.4
			c-1.7-1.7-3.1-1.3-4.3,0.7c-0.6,1-1.3,2-1.9,3c-0.4,0.6-1.6,0.9-0.9,2c0.9,1.4,1.6,0,2.4-0.3c15.8-5.2,27.7-3.4,38.3,8.2
			C357,305.9,360.4,310.5,364.5,315z"/>
		<path class="st1" d="M435.9,326.5c-10.9,0.3-21.8,0.4-32.7,0.5c-3.4,0-4.4-1.2-3.5-4.1c0.6-1.9,0.2-3.1-1.1-4.4
			c-1.8-1.7-2.1-3.4-0.5-5.6c2-2.7,1.2-10.9-1-13.6c-0.8-1-1.5-2.9-0.6-3.1c4.1-1,0-8,5.7-7.5c2.8,0.2,5.3-0.4,7.8-1.8
			c3.4-1.9,7-2.3,10.5-0.3c2.1,1.2,3.9,0.5,5.8-0.3c3.8-1.7,7.4-1.6,10.8,0.9c2.2,1.6,4.6,1.7,7.1,1.6c1.9-0.1,2.6,0.6,2.4,2.4
			c-0.2,1.9,0,3.6,1.6,5.2c1.2,1.2,0.7,2.9-0.3,4.3c-2.8,4-2.9,9.7,0,13.3c1.2,1.5,1.1,3.2-0.1,4.2c-1.9,1.7-2,3.6-1.9,5.8
			c0.1,2-0.4,3.1-2.8,2.7C440.7,326.2,438.3,326.5,435.9,326.5z M440.1,303.8H440c0-3.8,0-7.6,0-11.4c0-0.8,0.4-1.8-0.8-2.4
			c-4.4-2.4-8.8-4.8-13.9-1.7c-1.1,0.7-1.9,1.1-1.9,2.5c0,7.2,0,14.5,0,21.7c0,1.2,0.1,2.1,1.7,2.6c4.2,1.2,8.4,2.4,12.9,2.2
			c1.7-0.1,2.3-0.4,2.2-2.1C440,311.4,440.1,307.6,440.1,303.8z M405.2,303.4c0,3.7,0.2,7.3-0.1,11c-0.1,2.5,0.8,2.8,3,2.9
			c4,0.1,7.6-1.3,11.4-2.2c2-0.4,2.4-1.2,2.4-3c-0.1-7-0.1-14,0-20.9c0-1.7-0.7-2.4-2.1-3.2c-5.2-3-9.4,0.5-13.6,2.3
			c-2.4,1-0.7,4.2-1,6.4C405,298.9,405.2,301.2,405.2,303.4z M422.3,325.3c0-0.1,0-0.1,0-0.2c3.1,0,6.2,0,9.2,0
			c3.2,0,6.4-0.2,9.6,0.1c2.7,0.2,3.9-0.7,3.2-3.3c-0.8-2.9,2.5-3.7,2.6-5.6c0.1-2-3.3-2.7-2.7-5.7c0.5-2.5,0.2-5.2,0.2-7.8
			c0-0.8-0.1-1.7,0.8-2.2c2.8-1.4,2.5-3,0.3-4.8c-0.8-0.6-0.5-1.8-0.5-2.7c0-1.3,0.2-2.6-1.9-2.6c-2.2,0-1.7,1.5-1.7,2.7
			c0,5.8,0.1,11.6,0.1,17.4c0,3,1,6.8-0.5,8.6c-1.7,2.2-5.8,0.5-8.8,0.8c-2.9,0.3-6.1-1-8.5,1.9c-0.5,0.7-2.4,0.6-2.9-0.3
			c-1.3-2.1-3.2-1.5-4.9-1.6c-3,0-5.9-0.2-8.9,0c-2.6,0.2-3.4-0.5-3.4-3.2c0.2-8.1,0.1-16.1,0.1-24.2c0-1.3,0.2-2.7-1.9-2.4
			c-0.7,0.1-4.3,7.4-3.9,8c0.1,0.2,0.3,0.3,0.5,0.5c2.4,2.8,3.3,12.4,1,15.2c-1.5,1.7-0.9,2.8,0.4,3.8c1.8,1.4,2.1,3,1.3,5
			c-0.9,2.2,0.2,2.6,2.2,2.6C409.7,325.2,416,325.3,422.3,325.3z"/>
		<path class="st1" d="M269.6,326.9c-6.5,0-13-0.1-19.6,0c-2.2,0-3.4-0.4-3.1-2.9c0.3-2.1-0.2-3.9-1.9-5.4c-1.6-1.4-1.7-3.1-0.7-5.1
			c2.1-4.8,2.8-9.6-0.8-14.1c-1.1-1.4-1.2-3.2,0.2-4.1c1.7-1.2,2.1-2.6,1.9-4.5c-0.1-1.6,0.6-2.2,2.1-2c3.8,0.5,7.2-0.7,10.6-2.4
			c2.7-1.3,5.6-1.2,8.3,0.1c2.2,1,4.2,1,6.5,0c3.4-1.6,6.8-1.7,10.1,0.6c0.8,0.5,1.6,0.9,2.5,1.3c2.4,1.1,5.6-0.1,7.3,1.4
			c1.5,1.3-0.3,4.7,1.9,6.8c1.3,1.3,0.7,3.1-0.5,4.5c-2.5,2.8-2.5,10-0.1,12.8c1.2,1.4,1.9,3.1,0.3,4.4c-2,1.6-2.1,3.6-1.9,5.7
			c0.2,2.4-0.8,3-3.1,3C282.9,326.8,276.2,326.9,269.6,326.9z M286.8,304.3c0-3.9,0-7.8,0-11.7c0-0.9,0.2-1.8-0.9-2.5
			c-4.4-2.4-8.8-4.6-14-1.6c-1.3,0.7-2,1.2-2,2.8c0.1,7.2,0,14.5,0,21.7c0,1.1,0.1,1.9,1.5,2.3c4.3,1.2,8.6,2.6,13.2,2.3
			c1.8-0.1,2.2-0.6,2.2-2.2C286.7,311.6,286.8,307.9,286.8,304.3z M251.9,303.8c0,3.8,0,7.6,0,11.4c0,1.5,0.2,2.2,2.1,2.3
			c4.8,0.3,9.1-1.4,13.5-2.5c1.5-0.4,1-1.4,1-2.2c0-7.2,0-14.5,0-21.7c0-1.3-0.5-2-1.7-2.7c-5.3-3.3-9.7,0.2-14,2.2
			c-2.3,1.1-0.7,4.3-0.9,6.5C251.7,299.3,251.9,301.5,251.9,303.8z M269.4,325.3c5.1,0,10.2,0,15.3,0c1.8,0,3.8,0.4,5.3-0.2
			c2.2-0.9,0.1-3.8,1.2-5c2.4-2.8,2-4.9-0.1-7.8c-1-1.5-0.1-4.4,0-6.6s-0.7-4.7,2.2-6.1c1.1-0.5,0.9-2.1-0.1-2.7
			c-1.5-1-1.4-2.3-1.4-3.7c0-1.3,0.3-2.6-1.8-2.6c-2.2,0-1.7,1.5-1.7,2.6c0,6.9,0,13.8,0,20.7c0,6.2,0,6-6.1,6.3
			c-3.9,0.2-8.2-1.6-11.7,1.9c-0.6,0.6-2.4,0.6-3-0.3c-1.3-2.2-3.2-1.6-5-1.6c-3-0.1-5.9-0.2-8.9,0c-2.5,0.2-3.2-0.6-3.1-3.1
			c0.2-8,0.1-15.9,0.1-23.9c0-1.5-0.1-3.4-2.1-2.6c-2.5,1.1-1,5.2-4,6.5c-0.6,0.2,0.3,1.5,1,1.9c1.7,1,1.4,2.7,1.9,4.3
			c1.6,5.9-4.2,12.1,1.1,17.7c0.3,0.3,0.1,1.2,0,1.7c-0.3,2,0.5,2.6,2.6,2.6C257,325.2,263.2,325.3,269.4,325.3z"/>
		<path class="st0" d="M324.8,317.7c0.9-0.6,1.7-1,2.5-1.6c2.2-1.5,2.8-3.1,0.6-5.1c-0.4-0.4-0.7-0.9-1.1-1.4
			c-0.9-1-1.5-1.9-0.5-3.4c1.1-1.4,2.4-1.7,3.7-1c2.9,1.6,5.5,1.9,8.7,0.4c2.9-1.3,4.5,1.1,4.9,3.5c0.3,1.8,0.7,2.3,2.6,2
			c2.4-0.4,4.2,0.7,4.4,3.4c0.1,1.5,0.1,2.9,2.4,1.9c1.4-0.6,2.7,0.2,3,1.7c0.4,2.5,0.8,4.9,3.8,5.8c1.1,0.3,0.1,2.2,1.5,2.5
			c0.9-2.7,0.9-3-1.2-4.2c-1.1-0.6-2.1-1.1-2.2-2.5c-0.3-2.9-1.1-5.2-4.7-5c-0.3,0-0.9-0.5-1-0.8c-0.6-3.2-2.6-4.6-5.8-4.5
			c-1.4,0-1.1-1.3-1.5-2c-1.7-3.5-4-4.7-7.4-3.1c-2.1,1-3.7,0.7-5.6-0.2c-2.3-1.1-4.8-1.9-6.5,1c-0.6,1-1.1,1-2,0.4
			c-2.1-1.4-4.4-1.5-6.8-0.9c-0.2-2.5-0.6-4.9-1.8-7c-1-1.8-0.4-2.6,1.3-3.2c11.4-3.9,23.8-4.2,33.2,5.1
			c5.4,5.3,10.6,10.7,14.5,17.3c3.4,5.8,12,9.2,17.6,7.2c3.4-1.2,5-3.9,4.3-7.1c-0.9-4.2-4.6-5.6-8.1-3.2c-0.9,0.7-1.8,1.5-2.7,2.2
			c-1.8-5.4-0.2-8.8,5-10.2c1.9-0.5,2.2-1.3,2.3-3.1c0.3-5.7,2.3-8.7,6.1-9.8c2.1-0.6,3.5-0.7,2.8,2.3c-1.2,4.7-0.1,9.3,1.2,13.7
			c5.5,18.5-9.9,25.7-23.9,23.3c-5-0.9-9.3-3.4-13.7-5.6c-4.2-2.1-8.4-4.4-12.6-6.5c-4.2-2.1-8.6-2.7-13.1-1.8
			C327.2,318.7,326,319.2,324.8,317.7z"/>
		<path class="st0" d="M309.8,291.7c2.5,6.5,9,11.9,0.1,18.6c2.9,0.2,3.7-1.3,4.7-2.1c3.9-3.1,6.6-2.8,9.7,0.9
			c0.1,0.1,0.2,0.2,0.2,0.3c3.7,4.7,3.7,4.7-1.7,7.3c-0.9,0.5-2.4,0.7-2.3,1.9c0.1,1.4,1.7,0.8,2.6,1c2.1,0.4,1.3,1.6,0.8,2.7
			c-1.8,3.7-12.7,10-16.8,9.7c-1.6-0.1-3-0.5-3.8-2.7c6.3-0.4,12.1-1.9,15.8-7.4c-1.3-1-1.7,0-2.2,0.5c-3.6,3.7-8.1,5.2-13.1,5.2
			c-1.6,0-3.2-0.3-4-1.8c-0.8-1.4,0.5-2.4,1.3-3.4c2-2.3,2.3-4.7-0.4-6.8c-0.8-0.7-1.3-1.5-1-2.5
			C301.7,305.6,304.9,298.6,309.8,291.7z M307.5,318.3c0.1,0.9-1.1,2.8,1.6,2.4c2-0.3,5.9-2.9,5.5-4.3c-0.5-2.1-2.6-2.8-4.4-2.9
			C307.4,313.5,307,315.7,307.5,318.3z"/>
		<path class="st0" d="M364.5,315c-4.1-4.5-7.5-9.1-11.3-13.2c-10.6-11.6-22.6-13.4-38.3-8.2c-0.7,0.2-1.5,1.7-2.4,0.3
			c-0.7-1.1,0.5-1.4,0.9-2c0.6-1,1.3-2,1.9-3c1.2-2,2.5-2.4,4.3-0.7c1.3,1.3,2.2,1.2,3.3-0.4c1.3-1.9,3.1-2.4,5.2-0.9
			c1.8,1.3,3.2,1,5.1-0.1c2.2-1.4,5-1.6,6.1,1.6c0.5,1.5,1.1,1,2,0.7c2.3-0.8,4.3-0.8,4.8,2.3c0.2,1.3,1.1,1.7,2.2,1.8
			c0.8,0.1,1.6,0.4,2.5,0.4c4,0,2,4.1,3.6,5.2c1.7,1.2,5.4-0.3,4.5,4c0,0.2-0.1,0.7-0.1,0.7c3.7,0.9,2.5,5,4.3,7
			C364.3,311.6,365.6,312.5,364.5,315z"/>
		<path class="st0" d="M440.1,303.8c0,3.8-0.1,7.6,0,11.4c0.1,1.8-0.5,2-2.2,2.1c-4.5,0.2-8.6-1-12.9-2.2c-1.6-0.5-1.7-1.4-1.7-2.6
			c0-7.2,0-14.5,0-21.7c0-1.4,0.7-1.8,1.9-2.5c5.2-3.2,9.5-0.8,13.9,1.7c1.2,0.7,0.8,1.6,0.8,2.4c0.1,3.8,0,7.6,0,11.4
			C440.1,303.8,440.1,303.8,440.1,303.8z"/>
		<path class="st0" d="M405.2,303.4c0-2.2-0.2-4.5,0.1-6.7c0.3-2.2-1.4-5.4,1-6.4c4.2-1.8,8.4-5.4,13.6-2.3c1.4,0.8,2.1,1.5,2.1,3.2
			c-0.1,7,0,14,0,20.9c0,1.8-0.4,2.6-2.4,3c-3.8,0.8-7.4,2.3-11.4,2.2c-2.2-0.1-3.1-0.4-3-2.9C405.4,310.8,405.2,307.1,405.2,303.4z
			"/>
		<path class="st0" d="M422.3,325.3c-6.3,0-12.6,0-18.9,0c-2,0-3.1-0.4-2.2-2.6c0.8-2,0.5-3.6-1.3-5c-1.3-1-1.9-2.1-0.4-3.8
			c2.3-2.8,1.5-12.4-1-15.2c-0.2-0.2-0.4-0.3-0.5-0.5c-0.4-0.6,3.2-7.9,3.9-8c2.1-0.3,1.9,1.1,1.9,2.4c0,8.1,0.1,16.1-0.1,24.2
			c-0.1,2.8,0.7,3.5,3.4,3.2c2.9-0.2,5.9-0.1,8.9,0c1.8,0,3.7-0.6,4.9,1.6c0.6,0.9,2.4,1,2.9,0.3c2.4-2.9,5.6-1.7,8.5-1.9
			c3-0.3,7.1,1.3,8.8-0.8c1.5-1.8,0.5-5.7,0.5-8.6c0-5.8-0.1-11.6-0.1-17.4c0-1.2-0.5-2.7,1.7-2.7c2,0,1.9,1.3,1.9,2.6
			c0,0.9-0.3,2.1,0.5,2.7c2.2,1.8,2.5,3.3-0.3,4.8c-0.9,0.5-0.8,1.4-0.8,2.2c0,2.6,0.3,5.3-0.2,7.8c-0.6,2.9,2.8,3.7,2.7,5.7
			c-0.1,1.9-3.4,2.8-2.6,5.6c0.7,2.6-0.5,3.5-3.2,3.3c-3.2-0.3-6.4-0.1-9.6-0.1c-3.1,0-6.2,0-9.2,0
			C422.3,325.1,422.3,325.2,422.3,325.3z"/>
		<path class="st0" d="M286.8,304.3c0,3.7-0.1,7.3,0,11c0,1.6-0.4,2.1-2.2,2.2c-4.6,0.2-8.9-1.1-13.2-2.3c-1.4-0.4-1.5-1.1-1.5-2.3
			c0-7.2,0.1-14.5,0-21.7c0-1.6,0.7-2,2-2.8c5.2-2.9,9.5-0.8,14,1.6c1.1,0.6,0.9,1.6,0.9,2.5C286.8,296.4,286.8,300.4,286.8,304.3z"
			/>
		<path class="st0" d="M251.9,303.8c0-2.3-0.2-4.5,0-6.8c0.2-2.2-1.4-5.5,0.9-6.5c4.3-2,8.7-5.5,14-2.2c1.2,0.7,1.7,1.4,1.7,2.7
			c0,7.2,0,14.5,0,21.7c0,0.8,0.5,1.9-1,2.2c-4.5,1.1-8.8,2.8-13.5,2.5c-1.9-0.1-2.1-0.8-2.1-2.3
			C251.9,311.4,251.9,307.6,251.9,303.8z"/>
		<path class="st0" d="M269.4,325.3c-6.2,0-12.4-0.1-18.5,0c-2,0-2.8-0.6-2.6-2.6c0.1-0.6,0.3-1.4,0-1.7c-5.3-5.6,0.5-11.9-1.1-17.7
			c-0.4-1.6-0.1-3.3-1.9-4.3c-0.7-0.4-1.6-1.7-1-1.9c3.1-1.2,1.5-5.4,4-6.5c2-0.9,2.1,1.1,2.1,2.6c0,8,0.1,15.9-0.1,23.9
			c-0.1,2.5,0.7,3.3,3.1,3.1c3-0.2,5.9-0.1,8.9,0c1.8,0,3.7-0.5,5,1.6c0.5,0.9,2.4,0.9,3,0.3c3.5-3.5,7.8-1.7,11.7-1.9
			c6.1-0.3,6.1-0.1,6.1-6.3c0-6.9,0-13.8,0-20.7c0-1.2-0.5-2.7,1.7-2.6c2.1,0,1.8,1.4,1.8,2.6c0,1.4-0.1,2.8,1.4,3.7
			c1,0.7,1.2,2.2,0.1,2.7c-3,1.3-2.2,3.8-2.2,6.1c-0.1,2.2-1,5.1,0,6.6c2.1,2.9,2.5,4.9,0.1,7.8c-1,1.2,1.1,4-1.2,5
			c-1.5,0.6-3.5,0.2-5.3,0.2C279.6,325.3,274.5,325.3,269.4,325.3z"/>
		<path class="st1" d="M307.5,318.3c-0.6-2.6-0.2-4.8,2.7-4.7c1.8,0,3.9,0.7,4.4,2.9c0.3,1.3-3.5,4-5.5,4.3
			C306.4,321,307.7,319.2,307.5,318.3z"/>
	</g>
</g>
</svg>
