<svg preserveAspectRatio="xMidYMid meet" overflow="visible" style="display: block;" viewBox="0 0 199 50" fill="none" xmlns="http://www.w3.org/2000/svg">
<g id="wharton-logo.svg" clip-path="url(#clip0_0_4)">
<path id="Vector" d="M199 36.8215H45.5403V36.2236H199V36.8215Z" fill="var(--fill-0, #011F5B)"/>
<path id="Vector_2" d="M47.5674 44.1582C47.5674 45.6992 47.9821 46.8721 49.6175 46.8721C51.1148 46.8721 51.9211 45.8602 51.9211 44.1122V41.0534C51.9211 40.8234 51.875 40.6394 51.852 40.4554C51.8059 40.0644 51.4143 39.9034 50.9075 39.8574V39.5584H53.5105V39.8344C52.9807 39.8804 52.6121 40.0414 52.566 40.4324C52.543 40.6164 52.4969 40.8004 52.4969 41.0304V44.1582C52.4969 46.5271 50.9997 47.4011 49.5715 47.4011C47.2219 47.4011 46.5078 46.2052 46.5078 44.2272V40.9384C46.5078 39.9264 46.5539 39.9724 45.5634 39.8574V39.5584H48.5349V39.8344C47.5444 39.9494 47.5905 39.9034 47.5905 40.9154V44.1582H47.5674Z" fill="var(--fill-0, #011F5B)"/>
<path id="Vector_3" d="M59.7299 47.2631C58.3709 45.6762 56.9657 43.9972 55.5836 42.3643V46.1132C55.5836 46.2972 55.6067 46.4351 55.6297 46.5731C55.6758 46.8721 55.9522 47.0101 56.5281 47.0331V47.2631H54.4549V47.0331C54.8695 46.9871 55.146 46.8721 55.192 46.5731C55.2151 46.4351 55.2381 46.2972 55.2381 46.1132V42.1113C55.0078 41.8123 54.7313 41.5363 54.2476 41.5363V41.3064H55.7909C57.0579 42.8473 58.3709 44.4112 59.6378 45.9292H59.6608V42.4333C59.6608 42.2493 59.6378 42.1113 59.6148 41.9733C59.5687 41.6743 59.2923 41.5593 58.7164 41.5133V41.2834H60.7896V41.5133C60.398 41.5593 60.0985 41.6743 60.0524 41.9733C60.0294 42.1113 60.0064 42.2493 60.0064 42.4333V47.2171H59.7299V47.2631Z" fill="var(--fill-0, #011F5B)"/>
<path id="Vector_4" d="M64.1066 46.2052C64.1066 46.9871 64.0836 46.9411 64.8437 47.0561V47.2861H62.5633V47.0561C63.3234 46.9641 63.3004 47.0101 63.3004 46.2052V42.3873C63.3004 41.6053 63.3234 41.6513 62.5633 41.5363V41.3064H64.8437V41.5363C64.0836 41.6283 64.1066 41.5823 64.1066 42.3873V46.2052Z" fill="var(--fill-0, #011F5B)"/>
<path id="Vector_5" d="M68.4602 41.5363C67.9995 41.5363 67.654 41.6743 67.9304 42.4793C68.2529 43.4913 68.7597 44.9402 69.1974 46.2282C69.7502 44.9402 70.257 43.6293 70.7868 42.3183C70.9941 41.7893 70.7868 41.5133 70.2109 41.5133V41.2834H72.0537V41.5133C71.8003 41.5133 71.5239 41.6053 71.3396 42.0193C70.6255 43.7673 69.9114 45.4922 69.1974 47.2171H68.7597C68.2529 45.7452 67.654 44.1122 67.1472 42.6633C66.8247 41.7663 66.5714 41.4903 66.1567 41.4903V41.2604H68.4602V41.5363Z" fill="var(--fill-0, #011F5B)"/>
<path id="Vector_6" d="M73.3437 47.0331C74.1038 46.9411 74.0808 46.9871 74.0808 46.1822V42.3643C74.0808 41.5823 74.1038 41.6283 73.3437 41.5133V41.2834H77.1445V42.6403H76.9141C76.822 42.0193 76.6607 41.5363 76.0388 41.5363H74.887V43.9512H75.6011C76.1309 43.9512 76.3613 43.7443 76.3843 43.2153H76.6147V45.0322H76.3843C76.3613 44.5262 76.177 44.2272 75.6011 44.2272H74.887V46.1362C74.887 46.8491 75.2095 46.9181 75.9927 46.9181C77.2136 46.9181 77.1675 46.5731 77.5591 45.6532H77.7894L77.5361 47.1711H73.3667V47.0331H73.3437Z" fill="var(--fill-0, #011F5B)"/>
<path id="Vector_7" d="M79.0794 41.3293H81.5442C82.3965 41.3293 83.2718 41.7893 83.2718 42.7783C83.2718 43.6523 82.742 44.2502 82.074 44.5032L82.9032 45.7682C83.3179 46.3891 83.8016 46.9871 84.1011 47.1481V47.2631H83.2257C82.7189 47.2631 82.4425 46.3432 81.429 44.6412H80.6228V46.2052C80.6228 46.9871 80.5997 46.9411 81.3599 47.0561V47.2861H79.0794V47.0561C79.8396 46.9641 79.8165 47.0101 79.8165 46.2052V42.3873C79.8165 41.6053 79.8396 41.6513 79.0794 41.5363V41.3293ZM80.6228 44.3652H81.3368C82.074 44.3652 82.4195 43.8133 82.4195 42.8473C82.4195 41.9273 81.9127 41.6053 81.2908 41.6053H80.6228V44.3652Z" fill="var(--fill-0, #011F5B)"/>
<path id="Vector_8" d="M88.3165 42.5943C88.2474 41.9963 87.9249 41.5363 87.2568 41.5363C86.7731 41.5363 86.3124 41.7893 86.3124 42.4103C86.3124 43.0083 86.9113 43.3533 87.7636 43.9972C88.662 44.6642 88.9615 45.1012 88.9615 45.8142C88.9615 46.8261 87.9249 47.3781 86.9113 47.3781C86.3585 47.3781 85.8978 47.2861 85.4601 47.1021C85.4371 47.0791 85.391 47.0561 85.391 46.9871V45.7682H85.6214C85.7135 46.7111 86.3355 47.0791 86.9804 47.0791C87.5793 47.0791 88.0861 46.6191 88.0861 45.9982C88.0861 45.4462 87.7867 44.9862 86.5197 44.1582C86.059 43.8592 85.4832 43.5143 85.4832 42.5943C85.4832 41.8353 86.3354 41.2374 87.3029 41.2374C87.6715 41.2374 88.1552 41.2834 88.5007 41.3983C88.5468 41.4213 88.5699 41.4443 88.5699 41.4903V42.5943H88.3165Z" fill="var(--fill-0, #011F5B)"/>
<path id="Vector_9" d="M92.0251 46.2052C92.0251 46.9871 91.9791 46.9411 92.7622 47.0561V47.2861H90.4818V47.0561C91.2419 46.9641 91.2189 47.0101 91.2189 46.2052V42.3873C91.2189 41.6053 91.2419 41.6513 90.4818 41.5363V41.3064H92.7622V41.5363C92.0021 41.6283 92.0251 41.5823 92.0251 42.3873V46.2052Z" fill="var(--fill-0, #011F5B)"/>
<path id="Vector_10" d="M96.9546 46.2052C96.9546 46.9871 96.9316 46.9411 97.6917 47.0561V47.2861H95.4113V47.0561C96.1714 46.9641 96.1484 47.0101 96.1484 46.2052V41.6053H95.3652C94.6281 41.6053 94.4668 42.0653 94.1674 42.6403H93.9601L94.1904 41.3523H98.8896L99.1199 42.6403H98.9126C98.6362 42.0883 98.4519 41.6053 97.7148 41.6053H96.9546V46.2052Z" fill="var(--fill-0, #011F5B)"/>
<path id="Vector_11" d="M101.585 47.0331C102.345 46.9411 102.322 46.9871 102.322 46.1822V44.8712L101.009 42.2953C100.732 41.7433 100.502 41.5363 100.11 41.5363V41.3064H102.276V41.5363C101.631 41.5363 101.7 41.8583 101.907 42.2953L102.944 44.4342L104.119 42.2953C104.418 41.7893 104.142 41.5363 103.635 41.5363V41.3064H105.385V41.5363C105.155 41.5363 104.925 41.6513 104.694 42.0423L103.266 44.6182C103.174 44.7792 103.174 45.0322 103.174 45.2392V46.1822C103.174 46.9641 103.151 46.9181 103.911 47.0331V47.2631H101.585V47.0331Z" fill="var(--fill-0, #011F5B)"/>
<path id="Vector_12" d="M109.232 45.2392C109.232 43.7902 110.476 41.6513 112.319 41.6513C113.793 41.6513 114.093 42.6403 114.093 43.6293C114.093 44.8482 113.125 47.4011 111.029 47.4011C109.601 47.4011 109.232 46.2512 109.232 45.2392ZM113.079 43.0773C113.079 41.9273 112.388 41.8813 112.204 41.8813C111.006 41.8813 110.223 44.0202 110.223 45.4462C110.223 46.0212 110.315 47.0561 111.144 47.0561C112.411 47.0561 113.079 44.9862 113.079 43.0773Z" fill="var(--fill-0, #011F5B)"/>
<path id="Vector_13" d="M119.621 41.9963L119.368 42.2263H117.917C117.387 44.8482 116.488 48.3211 115.866 50H115.36L116.926 42.2263H115.889L115.982 41.7663H117.018C117.594 39.4204 119.529 39.1904 120.013 39.1904C120.266 39.1904 120.796 39.2364 120.957 39.3974L120.819 40.1334L120.543 40.2714C120.381 39.9724 120.036 39.6274 119.575 39.6274C118.907 39.6274 118.423 40.0874 118.147 41.2604L118.032 41.7893H119.644L119.621 41.9963Z" fill="var(--fill-0, #011F5B)"/>
<path id="Vector_14" d="M126.347 45.8832C126.347 46.8951 126.301 46.8491 127.292 46.9641V47.2401H124.32V46.9641C125.311 46.8491 125.265 46.8951 125.265 45.8832V40.9384C125.265 39.9264 125.311 39.9724 124.32 39.8574V39.5584H127.2C129.019 39.5584 129.941 40.2944 129.941 41.6053C129.941 43.1923 128.513 44.0432 126.831 43.9512V43.7213C128.213 43.7443 128.835 42.9163 128.835 41.7203C128.835 40.4784 128.236 39.9264 127.015 39.9264H126.347V45.8832Z" fill="var(--fill-0, #011F5B)"/>
<path id="Vector_15" d="M131.461 47.0331C132.221 46.9411 132.198 46.9871 132.198 46.1822V42.3643C132.198 41.5823 132.221 41.6283 131.461 41.5133V41.2834H135.262V42.6403H135.032C134.939 42.0193 134.778 41.5363 134.156 41.5363H133.005V43.9512H133.719C134.248 43.9512 134.479 43.7443 134.502 43.2153H134.732V45.0322H134.502C134.479 44.5262 134.294 44.2272 133.719 44.2272H133.005V46.1362C133.005 46.8491 133.327 46.9181 134.11 46.9181C135.331 46.9181 135.285 46.5731 135.677 45.6532H135.907L135.654 47.1711H131.484V47.0331H131.461Z" fill="var(--fill-0, #011F5B)"/>
<path id="Vector_16" d="M142.656 47.2631C141.297 45.6762 139.892 43.9972 138.51 42.3643V46.1132C138.51 46.2972 138.533 46.4351 138.556 46.5731C138.602 46.8721 138.878 47.0101 139.454 47.0331V47.2631H137.381V47.0331C137.796 46.9871 138.072 46.8721 138.118 46.5731C138.141 46.4351 138.164 46.2972 138.164 46.1132V42.1113C137.934 41.8123 137.658 41.5363 137.174 41.5363V41.3064H138.717C139.984 42.8473 141.297 44.4112 142.564 45.9292H142.587V42.4333C142.587 42.2493 142.564 42.1113 142.541 41.9733C142.495 41.6743 142.219 41.5593 141.643 41.5133V41.2834H143.716V41.5133C143.324 41.5593 143.025 41.6743 142.979 41.9733C142.956 42.1113 142.933 42.2493 142.933 42.4333V47.2171H142.656V47.2631Z" fill="var(--fill-0, #011F5B)"/>
<path id="Vector_17" d="M150.258 47.2631C148.899 45.6762 147.517 43.9972 146.111 42.3643V46.1132C146.111 46.2972 146.134 46.4351 146.158 46.5731C146.204 46.8721 146.48 47.0101 147.056 47.0331V47.2631H144.983V47.0331C145.397 46.9871 145.674 46.8721 145.72 46.5731C145.743 46.4351 145.766 46.2972 145.766 46.1132V42.1113C145.536 41.8123 145.259 41.5363 144.775 41.5363V41.3064H146.319C147.586 42.8473 148.899 44.4112 150.166 45.9292H150.189V42.4333C150.189 42.2493 150.166 42.1113 150.143 41.9733C150.097 41.6743 149.82 41.5593 149.244 41.5133V41.2834H151.317V41.5133C150.926 41.5593 150.626 41.6743 150.58 41.9733C150.557 42.1113 150.534 42.2493 150.534 42.4333V47.2171H150.258V47.2631Z" fill="var(--fill-0, #011F5B)"/>
<path id="Vector_18" d="M155.786 42.5943C155.717 41.9963 155.395 41.5363 154.727 41.5363C154.243 41.5363 153.782 41.7893 153.782 42.4103C153.782 43.0083 154.381 43.3533 155.233 43.9972C156.132 44.6642 156.431 45.1012 156.431 45.8142C156.431 46.8261 155.395 47.3781 154.381 47.3781C153.828 47.3781 153.368 47.2861 152.93 47.1021C152.907 47.0791 152.861 47.0561 152.861 46.9871V45.7682H153.091C153.183 46.7111 153.805 47.0791 154.45 47.0791C155.049 47.0791 155.556 46.6191 155.556 45.9982C155.556 45.4462 155.256 44.9862 153.989 44.1582C153.529 43.8592 152.953 43.5143 152.953 42.5943C152.953 41.8353 153.805 41.2374 154.773 41.2374C155.141 41.2374 155.625 41.2834 155.97 41.3983C156.017 41.4213 156.04 41.4443 156.04 41.4903V42.5943H155.786Z" fill="var(--fill-0, #011F5B)"/>
<path id="Vector_19" d="M159.218 47.0331C159.979 46.9411 159.956 46.9871 159.956 46.1822V44.8712L158.643 42.2953C158.366 41.7433 158.136 41.5363 157.744 41.5363V41.3064H159.909V41.5363C159.264 41.5363 159.311 41.8583 159.541 42.2953L160.577 44.4342L161.752 42.2953C162.052 41.7893 161.775 41.5363 161.269 41.5363V41.3064H163.019V41.5363C162.789 41.5363 162.559 41.6513 162.328 42.0423L160.9 44.6182C160.808 44.7792 160.808 45.0322 160.808 45.2392V46.1822C160.808 46.9641 160.785 46.9181 161.545 47.0331V47.2631H159.264V47.0331H159.218Z" fill="var(--fill-0, #011F5B)"/>
<path id="Vector_20" d="M164.378 47.0331C165.138 46.9411 165.115 46.9871 165.115 46.1822V42.3643C165.115 41.5823 165.138 41.6283 164.378 41.5133V41.2834H166.659V41.5133C165.899 41.6053 165.922 41.5593 165.922 42.3643V46.3201C165.922 46.9181 166.244 46.9641 167.004 46.9641C168.225 46.9641 168.179 46.6191 168.571 45.6992H168.778L168.525 47.2171H164.355V47.0331H164.378Z" fill="var(--fill-0, #011F5B)"/>
<path id="Vector_21" d="M171.773 41.5363C171.312 41.5363 170.966 41.6743 171.243 42.4793C171.565 43.4913 172.072 44.9402 172.51 46.2282C173.063 44.9402 173.569 43.6293 174.099 42.3183C174.306 41.7893 174.099 41.5133 173.523 41.5133V41.2834H175.366V41.5133C175.113 41.5133 174.836 41.6053 174.652 42.0193C173.938 43.7673 173.224 45.4922 172.51 47.2171H172.072C171.542 45.7452 170.966 44.1122 170.46 42.6633C170.137 41.7663 169.884 41.4903 169.469 41.4903V41.2604H171.773V41.5363Z" fill="var(--fill-0, #011F5B)"/>
<path id="Vector_22" d="M176.748 45.2852L176.357 46.4121C176.241 46.7341 176.403 47.0331 176.771 47.0331V47.2631H175.228V47.0331C175.458 47.0331 175.712 46.8951 175.85 46.6191C176.218 45.8832 177.209 43.1003 177.923 41.2144H178.407C178.983 42.9163 179.858 45.5382 180.134 46.2972C180.319 46.7801 180.457 47.0331 180.825 47.0331V47.2631H178.844V47.0331C179.374 47.0331 179.42 46.7571 179.305 46.3891L178.936 45.2852H176.748ZM178.821 44.9632L177.923 42.2033H177.9L176.886 44.9632H178.821Z" fill="var(--fill-0, #011F5B)"/>
<path id="Vector_23" d="M187.367 47.2631C186.008 45.6762 184.603 43.9972 183.221 42.3643V46.1132C183.221 46.2972 183.244 46.4351 183.267 46.5731C183.313 46.8721 183.59 47.0101 184.165 47.0331V47.2631H182.092V47.0331C182.507 46.9871 182.783 46.8721 182.829 46.5731C182.852 46.4351 182.875 46.2972 182.875 46.1132V42.1113C182.645 41.8123 182.369 41.5363 181.885 41.5363V41.3064H183.428C184.695 42.8473 186.008 44.4112 187.275 45.9292H187.298V42.4333C187.298 42.2493 187.275 42.1113 187.252 41.9733C187.206 41.6743 186.93 41.5593 186.354 41.5133V41.2834H188.427V41.5133C188.035 41.5593 187.736 41.6743 187.69 41.9733C187.667 42.1113 187.644 42.2493 187.644 42.4333V47.2171H187.367V47.2631Z" fill="var(--fill-0, #011F5B)"/>
<path id="Vector_24" d="M191.375 46.2052C191.375 46.9871 191.352 46.9411 192.113 47.0561V47.2861H189.832V47.0561C190.592 46.9641 190.569 47.0101 190.569 46.2052V42.3873C190.569 41.6053 190.592 41.6513 189.832 41.5363V41.3064H192.113V41.5363C191.352 41.6283 191.375 41.5823 191.375 42.3873V46.2052Z" fill="var(--fill-0, #011F5B)"/>
<path id="Vector_25" d="M194.923 45.2852L194.531 46.4121C194.416 46.7341 194.577 47.0331 194.946 47.0331V47.2631H193.402V47.0331C193.633 47.0331 193.886 46.8951 194.024 46.6191C194.393 45.8832 195.383 43.1003 196.098 41.2144H196.581C197.157 42.9163 198.033 45.5382 198.309 46.2972C198.493 46.7801 198.631 47.0331 199 47.0331V47.2631H197.019V47.0331C197.549 47.0331 197.595 46.7571 197.457 46.3891L197.088 45.2852H194.923ZM196.996 44.9632L196.098 42.2033H196.075L195.061 44.9632H196.996Z" fill="var(--fill-0, #011F5B)"/>
<path id="Vector_26" d="M41.2097 1.12696H0C0 1.12696 0 21.5271 0 21.6421C-0.0230351 30.5658 4.92951 37.0285 9.09885 40.8924C13.6828 45.1242 18.7275 47.5621 20.4091 47.9301L20.6164 47.9761L20.8237 47.9301C22.5053 47.5621 27.55 45.1242 32.1339 40.8924C36.3033 37.0515 41.2558 30.5658 41.2328 21.6421C41.2097 21.3891 41.2097 1.12696 41.2097 1.12696Z" fill="var(--fill-0, white)"/>
<path id="Vector_27" d="M38.6759 9.72861C38.745 9.77461 38.7911 9.82061 38.8371 9.88961C38.8832 9.9586 38.9062 10.0506 38.9062 10.1196C38.9062 10.2116 38.8832 10.2806 38.8371 10.3496C38.7911 10.4186 38.722 10.4646 38.6759 10.5106C38.5837 10.5796 38.4916 10.6486 38.4916 10.7636V11.4995H34.161H29.8304V10.7636C29.8304 10.6486 29.7383 10.5796 29.6461 10.5106C29.577 10.4646 29.531 10.4186 29.4849 10.3496C29.4388 10.2806 29.4158 10.1886 29.4158 10.1196C29.4158 10.0276 29.4388 9.9586 29.4849 9.88961C29.531 9.82061 29.6001 9.77461 29.6461 9.72861C29.7383 9.65961 29.8304 9.59062 29.8304 9.47562V7.06072C29.8304 6.94572 29.7383 6.87673 29.6461 6.80773C29.577 6.76173 29.531 6.71573 29.4849 6.64673C29.4388 6.57774 29.4158 6.48574 29.4158 6.41674C29.4158 6.32475 29.4388 6.25575 29.4849 6.18675C29.531 6.11776 29.6001 6.07176 29.6461 6.02576C29.7383 5.95676 29.8304 5.88776 29.8304 5.77277V5.0138H29.9456C30.4524 5.0138 30.89 5.0138 31.2125 4.87581C31.3277 4.82981 31.4659 4.73781 31.5811 4.66881C31.8345 4.50782 32.157 4.32383 32.5946 4.32383C32.9632 4.32383 33.2857 4.46182 33.5851 4.57682C33.7925 4.66881 33.9998 4.73781 34.138 4.73781H34.2071C34.3453 4.73781 34.5526 4.66881 34.7599 4.57682C35.0594 4.46182 35.3819 4.32383 35.7504 4.32383C36.1881 4.32383 36.5106 4.50782 36.764 4.66881C36.8792 4.73781 36.9943 4.82981 37.1325 4.87581C37.432 5.0138 37.8927 5.0138 38.3995 5.0138H38.5146V5.74977C38.5146 5.86477 38.6068 5.93376 38.6989 6.00276C38.745 6.04876 38.8141 6.09476 38.8602 6.16375C38.9062 6.23275 38.9293 6.32475 38.9293 6.39374C38.9293 6.48574 38.9062 6.55474 38.8602 6.62374C38.8141 6.69273 38.745 6.73873 38.6989 6.78473C38.6068 6.85373 38.5146 6.92272 38.5146 7.03772V9.42962C38.4916 9.56762 38.5837 9.63661 38.6759 9.72861ZM28.0798 10.9706C27.4117 12.0285 26.1218 12.3045 26.0757 12.3045C25.8223 12.3505 25.5689 12.3735 25.2925 12.3735C23.9565 12.3735 22.7126 11.7985 21.4457 11.1316C21.3074 11.0626 21.1462 10.9706 20.985 10.8786C20.1787 10.4416 19.05 9.82061 18.1056 9.82061C17.8291 9.82061 17.5758 9.86661 17.3224 10.0046L17.2763 10.0276V10.0736C17.2763 10.1886 17.2533 10.3266 17.2072 10.4186C17.046 10.8326 16.5622 11.2466 16.3088 11.4305C15.756 11.8215 15.0649 12.2355 14.2357 12.2355C14.0975 12.2355 13.9823 12.2125 13.8901 12.1895C13.7289 12.1435 13.6137 12.0515 13.5216 11.9135C13.4755 11.8445 13.4294 11.7755 13.4064 11.7065C13.3834 11.6375 13.3603 11.5915 13.3603 11.5225V11.4765L13.3143 11.4535C12.9918 11.3615 12.7845 11.1316 12.7845 10.8786C12.7845 10.6716 12.9227 10.5106 13.0609 10.3496C13.2912 10.0966 13.4755 9.86661 13.153 9.56762C13.13 9.54462 13.0839 9.52162 13.0609 9.49862C13.0148 9.47562 12.9687 9.42962 12.9457 9.38362C12.6693 9.08464 12.8305 8.48666 12.9227 8.11868V8.07268C13.0379 7.68169 13.1761 7.26771 13.4064 6.83073C13.7059 6.23275 14.0744 5.54278 14.5812 5.12879C14.5812 5.12879 14.6042 5.1058 14.6273 5.12879C14.6503 5.12879 14.6503 5.12879 14.6503 5.15179C14.6503 5.17479 14.7194 5.24379 14.7885 5.38178L14.8807 5.51978L14.9267 5.35879C15.0649 4.9218 15.2953 4.64581 15.6178 4.53082C15.9633 4.41582 16.2858 4.57682 16.447 4.69181L16.5161 4.73781L16.5622 4.66881C16.6544 4.50782 16.8617 4.30083 17.1842 4.27783C17.5297 4.25483 17.8291 4.50782 17.9674 4.64581L18.0134 4.69181L18.0595 4.64581C18.2207 4.50782 18.6123 4.20883 19.027 4.27783C19.4186 4.32383 19.5568 4.66881 19.6028 4.80681L19.6259 4.8988L19.718 4.85281C19.9023 4.76081 20.2478 4.64581 20.5934 4.85281C20.8007 4.9908 20.8237 5.22079 20.8237 5.38178V5.47378L20.9158 5.45078C21.1692 5.40478 21.6299 5.38178 21.9064 5.65777C22.1137 5.88776 22.1367 6.16375 22.1137 6.37075L22.0906 6.46274L22.1828 6.43974C22.4131 6.41674 22.6895 6.43974 22.8508 6.69273C22.966 6.85373 22.9199 7.10672 22.8738 7.22171V7.35971L22.9429 7.3827C23.0811 7.4057 23.2885 7.4977 23.3576 7.68169C23.4036 7.81969 23.3806 8.04968 23.3115 8.30267L23.2885 8.37167L23.3576 8.39466C23.4727 8.44066 23.6801 8.55566 23.7722 8.76265C23.8874 8.96964 23.8643 9.24563 23.7492 9.54462L23.7261 9.59062L23.7722 9.63662C24.0486 9.88961 24.3481 10.1196 24.6245 10.3266C25.2004 10.7406 26.0987 10.9706 26.6977 10.4646C26.928 10.2806 27.0201 9.9356 26.951 9.61362C26.8819 9.33763 26.6976 9.13064 26.4212 9.06164C25.9605 8.96964 25.592 9.40662 25.2925 9.84361C25.2925 9.86661 25.2695 9.86661 25.2464 9.86661C25.2234 9.86661 25.2234 9.84361 25.2004 9.84361C24.9239 9.19963 24.9239 8.64765 25.1543 8.23367C25.3616 7.88868 25.7762 7.6357 26.26 7.5667H26.3291V7.4977C26.3291 6.71573 26.5134 6.16375 26.8819 5.81877C27.1123 5.61178 27.5269 5.38178 28.218 5.47378C28.241 5.47378 28.241 5.47378 28.241 5.49678C28.241 5.51978 28.241 5.51978 28.241 5.54278C27.7342 6.78473 27.8494 7.24471 28.1258 8.25667C28.1489 8.34867 28.1719 8.44066 28.1949 8.53266C28.5635 9.47562 28.4944 10.3036 28.0798 10.9706ZM11.5406 9.72861C11.6097 9.77461 11.6557 9.82061 11.7018 9.88961C11.7479 9.9586 11.7709 10.0506 11.7709 10.1196C11.7709 10.2116 11.7479 10.2806 11.7018 10.3496C11.6557 10.4186 11.5866 10.4646 11.5406 10.5106C11.4484 10.5796 11.3563 10.6486 11.3563 10.7636V11.4995H7.0257H2.6951V10.7636C2.6951 10.6486 2.60296 10.5796 2.51082 10.5106C2.44172 10.4646 2.39565 10.4186 2.34958 10.3496C2.30351 10.2806 2.28047 10.1886 2.28047 10.1196C2.28047 10.0276 2.30351 9.9586 2.34958 9.88961C2.39565 9.82061 2.46475 9.77461 2.51082 9.72861C2.60296 9.65961 2.6951 9.59062 2.6951 9.47562V7.06072C2.6951 6.94572 2.60296 6.87673 2.51082 6.80773C2.44172 6.76173 2.39565 6.71573 2.34958 6.64673C2.30351 6.57774 2.28047 6.48574 2.28047 6.41674C2.28047 6.32475 2.30351 6.25575 2.34958 6.18675C2.39565 6.11776 2.46475 6.07176 2.51082 6.02576C2.60296 5.95676 2.6951 5.88776 2.6951 5.77277V5.0138H2.81028C3.31705 5.0138 3.75472 5.0138 4.07721 4.87581C4.19238 4.82981 4.33059 4.73781 4.44577 4.66881C4.69915 4.50782 5.02165 4.32383 5.45931 4.32383C5.82787 4.32383 6.15036 4.46182 6.44982 4.57682C6.65714 4.66881 6.86445 4.73781 7.00266 4.73781H7.07177C7.20998 4.73781 7.41729 4.66881 7.62461 4.57682C7.92406 4.46182 8.24656 4.32383 8.61512 4.32383C9.05278 4.32383 9.37527 4.50782 9.62866 4.66881C9.74384 4.73781 9.85901 4.82981 9.99722 4.87581C10.2967 5.0138 10.7574 5.0138 11.2642 5.0138H11.3793V5.74977C11.3793 5.86477 11.4715 5.93376 11.5636 6.00276C11.6097 6.04876 11.6788 6.09476 11.7249 6.16375C11.7709 6.23275 11.794 6.32475 11.794 6.39374C11.794 6.48574 11.7709 6.55474 11.7249 6.62374C11.6788 6.69273 11.6097 6.73873 11.5636 6.78473C11.4715 6.85373 11.3793 6.92272 11.3793 7.03772V9.42962C11.3563 9.56762 11.4484 9.63661 11.5406 9.72861ZM1.03658 2.20791C1.03658 2.20791 1.08265 14.1214 1.03658 14.0754H40.1732C40.1732 8.48666 40.1732 2.20791 40.1732 2.20791H1.03658Z" fill="var(--fill-0, #990000)"/>
<path id="Vector_28" d="M14.5121 9.19963C14.6503 9.19963 14.7885 9.24563 14.9037 9.33763C14.9498 9.38362 14.9958 9.40662 15.0189 9.42962C15.111 9.52162 15.111 9.65961 14.9958 9.72861C14.9037 9.79761 14.7885 9.8896 14.7194 9.9356C14.5582 10.0506 14.2817 10.2346 14.0975 10.0966C14.0053 10.0276 14.1896 9.8896 14.0975 9.56762C14.0744 9.31463 14.3278 9.19963 14.5121 9.19963Z" fill="var(--fill-0, #011F5B)"/>
<path id="Vector_29" d="M14.5812 5.35879C14.1435 5.77277 13.821 6.37075 13.5446 6.92272C13.3373 7.35971 13.1761 7.75069 13.0609 8.14167V8.18767C12.9918 8.46366 12.8305 9.06164 13.0379 9.29163C13.0609 9.31463 13.107 9.33763 13.13 9.38362C13.1761 9.40662 13.1991 9.42962 13.2452 9.47562C13.6828 9.8896 13.3834 10.2346 13.153 10.4876C13.0379 10.6486 12.8996 10.7866 12.8996 10.9016C12.8996 11.2006 13.2682 11.3155 13.3834 11.3385C13.4294 11.3615 13.4755 11.3845 13.4755 11.4535C13.4755 11.5455 13.4986 11.6145 13.5216 11.6835C13.5446 11.7525 13.5677 11.7985 13.6137 11.8445C13.6828 11.9365 13.798 12.0055 13.9132 12.0515C14.0053 12.0745 14.0975 12.0975 14.2126 12.0975C15.0189 12.0975 15.6638 11.7065 16.1937 11.3155C16.5161 11.0856 16.9077 10.6946 17.0229 10.3956C17.046 10.3036 17.069 10.2346 17.069 10.1426L16.5161 10.0506C16.5161 10.0506 16.5161 10.0506 16.4931 10.0506C16.424 10.0276 16.401 9.9816 16.3779 9.9356C16.3549 9.82061 16.4701 9.75161 16.6544 9.61362C16.7235 9.56762 16.7695 9.52162 16.8386 9.49862C17.1381 9.29163 17.3684 9.10764 17.5067 9.01564C17.3454 8.83165 17.2302 8.64765 17.1151 8.48666C17.0229 8.34867 16.9538 8.25667 16.8847 8.18767C16.6083 7.88868 16.1245 7.70469 15.7099 7.95768C15.5487 8.04968 15.4105 8.18767 15.2492 8.30267C15.134 8.41766 14.9958 8.50966 14.8576 8.62466C14.8116 8.67065 14.7424 8.64765 14.6964 8.60166C14.6503 8.55566 14.6503 8.48666 14.6964 8.44066C14.7194 8.41766 14.7424 8.39466 14.7655 8.37167C14.9498 8.21067 15.3644 7.79669 15.3644 7.5207C15.4335 6.78473 14.8116 5.72677 14.5812 5.35879ZM18.0825 9.65961C19.05 9.65961 20.1787 10.2576 21.031 10.7406C21.1923 10.8326 21.3535 10.9246 21.4917 10.9936C22.966 11.7525 24.4402 12.4195 26.0066 12.1435C26.0066 12.1435 27.2735 11.8905 27.8955 10.8786C28.2871 10.2576 28.3562 9.47562 28.1028 8.57866C28.0798 8.48666 28.0567 8.39466 28.0337 8.30267C27.7803 7.35971 27.6191 6.80773 28.0798 5.63477C27.5499 5.61178 27.2275 5.77277 27.0432 5.93376C26.6976 6.25575 26.5364 6.80773 26.5594 7.5897C26.5594 7.65869 26.5134 7.70469 26.4443 7.72769C25.9605 7.77369 25.5459 8.00368 25.3616 8.32567C25.1773 8.64765 25.1543 9.06164 25.3386 9.56762C25.5689 9.24563 25.9836 8.80865 26.5134 8.92364C26.8359 8.99264 27.0892 9.24563 27.1584 9.59062C27.2505 9.9816 27.1353 10.3956 26.8359 10.6256C26.1448 11.1776 25.1773 10.9476 24.5554 10.4876C23.8183 9.9586 23.0811 9.26863 22.321 8.39466C22.1828 8.23367 22.0446 8.09568 21.9294 7.93468C21.4457 7.3827 20.9389 6.78473 20.34 6.32475C19.3955 5.61178 18.2898 5.49678 17.5297 5.51978C16.9999 5.54278 15.9633 5.68077 15.2723 6.11776C15.4796 6.55474 15.6869 7.08372 15.6869 7.4747C15.6869 7.5437 15.6638 7.6127 15.6408 7.68169C16.1476 7.38271 16.7465 7.5897 17.092 7.95768C17.1611 8.04968 17.2533 8.16467 17.3454 8.30267C17.4836 8.50966 17.6218 8.73965 17.8061 8.90064C17.8291 8.92364 17.8522 8.96964 17.8522 8.99264C17.8522 9.03864 17.8291 9.06164 17.8061 9.08464C17.8061 9.08464 17.4836 9.31463 17.0229 9.65961C16.9538 9.70561 16.9077 9.75161 16.8386 9.79761L16.8156 9.82061L17.2072 9.8896C17.4836 9.70561 17.7831 9.65961 18.0825 9.65961ZM25.2925 12.4425C23.9334 12.4425 22.6895 11.8675 21.3996 11.2006C21.2614 11.1316 21.1001 11.0396 20.9389 10.9476C19.9023 10.3956 18.359 9.54462 17.3454 10.0736C17.3454 10.2116 17.3224 10.3266 17.2763 10.4416C17.1151 10.8556 16.6083 11.3155 16.3549 11.4765C15.8021 11.8905 15.088 12.3045 14.2357 12.3045C14.0975 12.3045 13.9823 12.2815 13.8671 12.2355C13.7059 12.1895 13.5677 12.0745 13.4525 11.9365C13.4064 11.8675 13.3603 11.7985 13.3143 11.7065C13.2912 11.6375 13.2682 11.5685 13.2682 11.4995C12.8996 11.4305 12.6693 11.1776 12.6693 10.8786C12.6693 10.6486 12.8305 10.4646 12.9687 10.3036C13.2221 10.0046 13.3143 9.86661 13.0839 9.63662C13.0609 9.61362 13.0379 9.59062 12.9918 9.56762C12.9457 9.54462 12.8996 9.49862 12.8536 9.45262C12.5541 9.13063 12.7154 8.50966 12.8305 8.11868V8.07268C12.9457 7.68169 13.107 7.26771 13.3143 6.80773C13.6137 6.18675 13.9823 5.51978 14.5121 5.0828C14.5351 5.0598 14.5812 5.0598 14.6042 5.0598C14.6503 5.0598 14.6733 5.0828 14.6964 5.1058C14.7194 5.1288 14.9267 5.45078 15.134 5.88776C16.0554 5.33579 17.3454 5.28979 17.5067 5.26679C18.3129 5.24379 19.4877 5.35879 20.4782 6.14075C21.1001 6.62374 21.6069 7.19871 22.0906 7.77369C22.2288 7.91168 22.344 8.07268 22.4822 8.23367C23.2424 9.08464 23.9565 9.75161 24.6936 10.2806C25.2464 10.6716 26.0987 10.9016 26.6746 10.4186C26.8819 10.2576 26.9741 9.9356 26.905 9.63662C26.8359 9.38363 26.6746 9.19963 26.4443 9.15363C26.0296 9.06164 25.6841 9.47562 25.4077 9.8896C25.3846 9.9356 25.3386 9.9586 25.2925 9.9356C25.2464 9.9356 25.2004 9.9126 25.2004 9.86661C24.9239 9.19963 24.9009 8.62465 25.1543 8.18767C25.3846 7.81969 25.7993 7.5437 26.3061 7.4747C26.3061 6.66973 26.4903 6.09476 26.8819 5.74977C27.1123 5.54278 27.5499 5.28979 28.2871 5.40478C28.3331 5.40478 28.3562 5.42778 28.3792 5.47378C28.4022 5.49678 28.4022 5.54278 28.3792 5.58878C27.8724 6.80773 28.0106 7.24471 28.264 8.25667C28.2871 8.34867 28.3101 8.44066 28.3331 8.53266C28.5865 9.52162 28.5174 10.3496 28.0798 11.0396C27.3887 12.1435 26.0757 12.3965 26.0066 12.4195C25.7993 12.4195 25.5459 12.4425 25.2925 12.4425Z" fill="var(--fill-0, #011F5B)"/>
<path id="Vector_30" d="M13.7519 11.5915C13.6368 11.5915 13.5216 11.5915 13.3834 11.5685C13.3143 11.5685 13.2682 11.4995 13.2682 11.4305C13.2682 11.3615 13.3373 11.3155 13.4064 11.3155C13.9823 11.3845 14.7885 11.3155 15.5256 10.5566C15.5717 10.5106 15.6408 10.5106 15.7099 10.5566C15.756 10.6026 15.756 10.6716 15.7099 10.7406C15.1571 11.2925 14.4891 11.5915 13.7519 11.5915Z" fill="var(--fill-0, #011F5B)"/>
<path id="Vector_31" d="M23.7261 9.72861C23.7031 9.72861 23.7031 9.72861 23.6801 9.72861C23.6109 9.70561 23.5879 9.63661 23.6109 9.56762C23.7492 9.26863 23.7492 9.01564 23.657 8.83165C23.5188 8.57866 23.2194 8.50966 23.2194 8.50966C23.1963 8.50966 23.1502 8.48666 23.1502 8.44066C23.1272 8.41766 23.1272 8.37167 23.1502 8.34867C23.1963 8.23367 23.2885 7.88868 23.2194 7.72769C23.1733 7.5897 22.8969 7.5207 22.8047 7.5207C22.7587 7.5207 22.7356 7.4977 22.7126 7.4747C22.6895 7.4517 22.6895 7.4057 22.7126 7.35971C22.7587 7.26771 22.8278 6.99172 22.7356 6.85373C22.5513 6.57774 22.0676 6.71573 22.0676 6.71573C22.0215 6.73873 21.9755 6.71573 21.9524 6.69273C21.9294 6.66973 21.9064 6.62374 21.9294 6.57774C21.9294 6.57774 22.0676 6.14075 21.7912 5.86477C21.4687 5.54278 20.8007 5.72677 20.7776 5.72677C20.7316 5.74977 20.6855 5.72677 20.6625 5.70377C20.6394 5.68077 20.6164 5.63478 20.6394 5.58878C20.6394 5.56578 20.7546 5.22079 20.5242 5.0598C20.1327 4.80681 19.695 5.1288 19.695 5.1288C19.672 5.15179 19.6259 5.15179 19.5798 5.15179C19.5337 5.1288 19.5107 5.1058 19.5107 5.0598C19.5107 5.0368 19.4416 4.57682 19.027 4.50782C18.5663 4.43882 18.1056 4.8988 18.1056 4.9218C18.0825 4.9448 18.0595 4.9678 18.0134 4.9448C17.9904 4.9448 17.9443 4.9218 17.9213 4.8988C17.9213 4.8988 17.5988 4.48482 17.2072 4.50782C16.8156 4.53082 16.6774 4.9218 16.6774 4.9218C16.6544 4.9678 16.6313 4.9908 16.5853 4.9908C16.5392 4.9908 16.5161 4.9908 16.4701 4.9678C16.4701 4.9678 16.0785 4.59982 15.6869 4.73781C15.2031 4.9218 15.0649 5.51978 15.0189 5.72677C14.9958 5.79577 14.9498 5.81877 14.8807 5.81877C14.8116 5.79577 14.7885 5.74977 14.7885 5.68077C14.8346 5.45078 14.9958 4.76081 15.6178 4.53082C15.9863 4.39282 16.3319 4.57682 16.5161 4.71481C16.6083 4.55382 16.8156 4.30083 17.1842 4.30083C17.5758 4.27783 17.8752 4.55382 18.0134 4.69181C18.1977 4.53082 18.6123 4.25483 19.05 4.30083C19.4186 4.34683 19.6259 4.64581 19.695 4.87581C19.9023 4.78381 20.2709 4.64581 20.6394 4.87581C20.8928 5.0368 20.9158 5.31279 20.8928 5.49678C21.1462 5.45078 21.653 5.42778 21.9524 5.72677C22.2058 5.97976 22.2058 6.30175 22.1828 6.48574C22.3901 6.46274 22.7356 6.46274 22.9429 6.76173C23.0581 6.94572 23.0351 7.19871 22.989 7.35971C23.1502 7.4057 23.3806 7.4977 23.4727 7.70469C23.5418 7.91168 23.4727 8.21067 23.4267 8.37167C23.5649 8.41766 23.7722 8.55566 23.8874 8.78565C24.0256 9.03864 24.0025 9.36063 23.8413 9.72861C23.7952 9.70561 23.7722 9.72861 23.7261 9.72861Z" fill="var(--fill-0, #011F5B)"/>
<path id="Vector_32" d="M23.1272 11.3385C23.0581 11.3385 23.012 11.2696 23.012 11.2006C23.0581 10.7636 22.8047 10.6716 22.5744 10.6026C22.5053 10.5796 22.4592 10.5566 22.4131 10.5336C22.298 10.4646 22.2749 10.3036 22.2749 10.1656C22.2749 10.0046 22.2749 9.82061 22.1367 9.68261C21.9294 9.45262 21.4917 9.59062 21.4917 9.59062C21.4457 9.61362 21.3996 9.59062 21.3765 9.56762C21.3535 9.54462 21.3305 9.49862 21.3305 9.45262C21.3305 9.45262 21.3996 8.96964 21.1232 8.73965C20.8928 8.55566 20.4551 8.60166 20.3169 8.62466C20.2709 8.62466 20.2478 8.62466 20.2248 8.60166C20.2018 8.57866 20.1787 8.53266 20.1787 8.50966C20.2018 8.21067 20.0866 7.98068 19.8562 7.81969C19.672 7.70469 19.4416 7.68169 19.2573 7.77369C18.7736 8.02668 18.5893 8.04968 18.0595 7.68169C17.8983 7.5667 17.737 7.5207 17.5758 7.5667C17.3915 7.6127 17.2072 7.79669 17.069 8.04968C17.046 8.09568 16.9768 8.14168 16.9077 8.09568C16.8617 8.07268 16.8156 8.00368 16.8617 7.93468C17.0229 7.6127 17.2533 7.38271 17.5297 7.31371C17.76 7.26771 17.9904 7.31371 18.1977 7.4517C18.6354 7.75069 18.7275 7.75069 19.1421 7.5207C19.3955 7.38271 19.718 7.40571 19.9714 7.5667C20.2248 7.72769 20.386 8.00368 20.386 8.32567C20.5934 8.30267 20.985 8.27967 21.2614 8.50966C21.5148 8.71665 21.5608 9.06164 21.5608 9.24563C21.7451 9.19963 22.0906 9.19963 22.298 9.42962C22.4822 9.63662 22.4822 9.88961 22.5053 10.0736C22.5053 10.1426 22.5053 10.2346 22.5283 10.2576C22.5513 10.2576 22.5974 10.2806 22.6435 10.3036C22.8738 10.3726 23.3115 10.5106 23.2424 11.1546C23.2424 11.2925 23.1963 11.3385 23.1272 11.3385Z" fill="var(--fill-0, #011F5B)"/>
<path id="Vector_33" d="M11.6097 10.1196C11.6097 10.1656 11.5866 10.2116 11.5636 10.2576C11.5406 10.3036 11.4945 10.3496 11.4254 10.3726C11.3102 10.4646 11.172 10.5566 11.172 10.7636V11.2925H7.0257H2.87938V10.7636C2.87938 10.5566 2.74117 10.4646 2.626 10.3726C2.57993 10.3266 2.53386 10.3036 2.48779 10.2576C2.46475 10.2116 2.44172 10.1656 2.44172 10.1196C2.44172 10.0736 2.46475 10.0276 2.48779 9.9816C2.51082 9.9356 2.55689 9.88961 2.626 9.86661C2.74117 9.77461 2.87938 9.68261 2.87938 9.47562V7.06072C2.87938 6.85373 2.74117 6.76173 2.626 6.66973C2.57993 6.62374 2.53386 6.60074 2.48779 6.55474C2.46475 6.50874 2.44172 6.46274 2.44172 6.41674C2.44172 6.37075 2.46475 6.32475 2.48779 6.27875C2.51082 6.23275 2.55689 6.18675 2.626 6.16375C2.74117 6.07176 2.87938 5.97976 2.87938 5.77277V5.22079C2.87938 5.22079 2.87938 5.22079 2.90242 5.22079C3.10974 5.22079 3.34009 5.22079 3.52437 5.19779V10.6716H6.54196C6.58803 10.8786 6.79535 11.0396 7.0257 11.0396C7.25605 11.0396 7.46336 10.8786 7.50943 10.6716H10.527V5.17479C10.7343 5.19779 10.9417 5.19779 11.149 5.19779H11.172V5.74977C11.172 5.95676 11.3102 6.04876 11.4254 6.14075C11.4715 6.18675 11.5175 6.20975 11.5636 6.25575C11.5866 6.30175 11.6097 6.34775 11.6097 6.39374C11.6097 6.43974 11.5866 6.48574 11.5636 6.53174C11.5406 6.57774 11.4945 6.62374 11.4254 6.64673C11.3102 6.73873 11.172 6.83073 11.172 7.03772V9.42962C11.172 9.63661 11.3102 9.72861 11.4254 9.82061C11.4715 9.86661 11.5175 9.88961 11.5636 9.9356C11.6097 10.0046 11.6097 10.0506 11.6097 10.1196ZM4.16935 5.0368C4.30756 4.9678 4.44577 4.8988 4.56094 4.80681C4.83737 4.64581 5.06772 4.48482 5.45931 4.48482C5.7818 4.48482 6.10429 4.62282 6.38072 4.71481C6.565 4.78381 6.74928 4.85281 6.91052 4.87581V9.65961H6.88749C6.65714 9.68261 6.33464 9.77461 5.94305 9.9126C5.82787 9.9586 5.68966 9.9816 5.57449 10.0276C5.20593 10.1426 4.83737 10.1426 4.4688 10.1426C4.23845 10.1426 4.0081 10.1426 3.80079 10.1656V5.1058C3.939 5.1288 4.05417 5.0828 4.16935 5.0368ZM7.69371 4.73781C7.97014 4.62282 8.29263 4.50782 8.61512 4.50782C9.00671 4.50782 9.2601 4.66881 9.51348 4.82981C9.62866 4.8988 9.76687 4.9908 9.90508 5.0598C10.0203 5.1058 10.1354 5.15179 10.2736 5.17479V10.2346C10.0663 10.2116 9.83598 10.2116 9.60563 10.2116C9.23706 10.2116 8.8685 10.2116 8.49994 10.0966C8.38477 10.0506 8.24656 10.0276 8.13138 9.9816C7.76282 9.86661 7.41729 9.75161 7.18694 9.72861C7.18694 9.72861 7.18694 9.72861 7.16391 9.72861V4.8988C7.34819 4.87581 7.50943 4.80681 7.69371 4.73781ZM11.5866 9.65961C11.4945 9.59062 11.4254 9.54462 11.4254 9.45262V7.06072C11.4254 6.99172 11.4715 6.94572 11.5866 6.85373C11.6557 6.80773 11.7249 6.76173 11.7709 6.66973C11.817 6.57774 11.8631 6.48574 11.8631 6.39374C11.8631 6.30175 11.84 6.18675 11.7709 6.11776C11.7249 6.04876 11.6557 5.97976 11.5866 5.93376C11.4945 5.86477 11.4254 5.81877 11.4254 5.72677V4.8988H11.2411C10.8034 4.8988 10.3197 4.8988 10.0203 4.76081C9.90508 4.71481 9.78991 4.64581 9.67473 4.55382C9.39831 4.39282 9.09885 4.18583 8.61512 4.18583C8.24656 4.18583 7.90103 4.32383 7.60157 4.43882C7.39426 4.53082 7.20998 4.59982 7.07177 4.59982H7.04873H7.0257C6.88749 4.59982 6.70321 4.53082 6.49589 4.43882C6.19643 4.32383 5.85091 4.18583 5.48235 4.18583C5.02165 4.18583 4.69916 4.36983 4.42273 4.55382C4.30756 4.62282 4.19238 4.69181 4.07721 4.76081C3.77775 4.8988 3.29402 4.8988 2.85635 4.8988H2.67207V5.74977C2.67207 5.81877 2.626 5.86477 2.51082 5.95676C2.44172 6.00276 2.37261 6.04876 2.32654 6.14075C2.28047 6.23275 2.2344 6.32475 2.2344 6.41674C2.2344 6.50874 2.25744 6.62374 2.32654 6.69273C2.37261 6.76173 2.44172 6.83073 2.51082 6.87673C2.60296 6.94572 2.67207 6.99172 2.67207 7.08372V9.47562C2.67207 9.54462 2.626 9.59062 2.51082 9.68261C2.44172 9.72861 2.37261 9.77461 2.32654 9.86661C2.28047 9.9586 2.2344 10.0506 2.2344 10.1426C2.2344 10.2346 2.25744 10.3496 2.32654 10.4186C2.37261 10.4876 2.44172 10.5566 2.51082 10.6026C2.60296 10.6716 2.67207 10.7176 2.67207 10.8096V11.6145H7.07177H11.4715V10.8096C11.4715 10.7406 11.5175 10.6946 11.6327 10.6026C11.7018 10.5566 11.7709 10.5106 11.817 10.4186C11.8631 10.3266 11.9091 10.2346 11.9091 10.1426C11.9091 10.0506 11.8861 9.9356 11.817 9.86661C11.7249 9.75161 11.6557 9.70561 11.5866 9.65961Z" fill="var(--fill-0, #011F5B)"/>
<path id="Vector_34" d="M38.745 10.1196C38.745 10.1656 38.722 10.2116 38.6989 10.2576C38.6759 10.3036 38.6298 10.3496 38.5607 10.3726C38.4455 10.4646 38.3073 10.5566 38.3073 10.7636V11.2925H34.161H30.0147V10.7636C30.0147 10.5566 29.8765 10.4646 29.7613 10.3726C29.7152 10.3266 29.6692 10.3036 29.6231 10.2576C29.6001 10.2116 29.577 10.1656 29.577 10.1196C29.577 10.0736 29.6001 10.0276 29.6231 9.9816C29.6461 9.9356 29.6922 9.88961 29.7613 9.86661C29.8765 9.77461 30.0147 9.68261 30.0147 9.47562V7.06072C30.0147 6.85373 29.8765 6.76173 29.7613 6.66973C29.7152 6.62374 29.6692 6.60074 29.6231 6.55474C29.6001 6.50874 29.577 6.46274 29.577 6.41674C29.577 6.37075 29.6001 6.32475 29.6231 6.27875C29.6461 6.23275 29.6922 6.18675 29.7613 6.16375C29.8765 6.07176 30.0147 5.97976 30.0147 5.77277V5.22079C30.0147 5.22079 30.0147 5.22079 30.0377 5.22079C30.245 5.22079 30.4754 5.22079 30.6597 5.19779V10.6716H33.6773C33.7233 10.8786 33.9307 11.0396 34.161 11.0396C34.3914 11.0396 34.5987 10.8786 34.6447 10.6716H37.6623V5.17479C37.8697 5.19779 38.077 5.19779 38.2843 5.19779H38.3073V5.74977C38.3073 5.95676 38.4455 6.04876 38.5607 6.14075C38.6068 6.18675 38.6529 6.20975 38.6989 6.25575C38.722 6.30175 38.745 6.34775 38.745 6.39374C38.745 6.43974 38.722 6.48574 38.6989 6.53174C38.6759 6.57774 38.6298 6.62374 38.5607 6.64673C38.4455 6.73873 38.3073 6.83073 38.3073 7.03772V9.42962C38.3073 9.63661 38.4455 9.72861 38.5607 9.82061C38.6068 9.86661 38.6529 9.88961 38.6989 9.9356C38.722 10.0046 38.745 10.0506 38.745 10.1196ZM31.2816 5.0368C31.4198 4.9678 31.558 4.8988 31.6732 4.80681C31.9496 4.64581 32.18 4.48482 32.5716 4.48482C32.8941 4.48482 33.2166 4.62282 33.493 4.71481C33.6773 4.78381 33.8616 4.85281 34.0228 4.87581V9.65961H33.9998C33.7694 9.68261 33.4469 9.77461 33.0553 9.9126C32.9402 9.9586 32.8019 9.9816 32.6868 10.0276C32.3182 10.1426 31.9496 10.1426 31.5811 10.1426C31.3507 10.1426 31.1204 10.1426 30.9131 10.1656V5.1058C31.0513 5.1288 31.1665 5.0828 31.2816 5.0368ZM34.829 4.73781C35.1054 4.62282 35.4279 4.50782 35.7504 4.50782C36.142 4.50782 36.3954 4.66881 36.6488 4.82981C36.764 4.8988 36.9022 4.9908 37.0404 5.0598C37.1556 5.1058 37.2707 5.15179 37.409 5.17479V10.2346C37.2016 10.2116 36.9713 10.2116 36.7409 10.2116C36.3724 10.2116 36.0038 10.2116 35.6353 10.0966C35.5201 10.0506 35.3819 10.0276 35.2667 9.9816C34.8981 9.86661 34.5526 9.75161 34.3223 9.72861C34.3223 9.72861 34.3223 9.72861 34.2992 9.72861V4.8988C34.4605 4.87581 34.6447 4.80681 34.829 4.73781ZM38.722 9.65961C38.6298 9.59062 38.5607 9.54462 38.5607 9.45262V7.06072C38.5607 6.99172 38.6068 6.94572 38.722 6.85373C38.7911 6.80773 38.8602 6.76173 38.9062 6.66973C38.9523 6.57774 38.9984 6.48574 38.9984 6.39374C38.9984 6.30175 38.9753 6.18675 38.9062 6.11776C38.8602 6.04876 38.7911 5.97976 38.722 5.93376C38.6298 5.86477 38.5607 5.81877 38.5607 5.72677V4.8988H38.3764C37.9388 4.8988 37.455 4.8988 37.1556 4.76081C37.0404 4.71481 36.9252 4.64581 36.81 4.55382C36.5336 4.39282 36.2342 4.18583 35.7504 4.18583C35.3819 4.18583 35.0363 4.32383 34.7369 4.43882C34.5296 4.53082 34.3453 4.59982 34.2071 4.59982H34.184H34.161C34.0228 4.59982 33.8385 4.53082 33.6312 4.43882C33.3317 4.32383 32.9862 4.18583 32.6177 4.18583C32.157 4.18583 31.8345 4.36983 31.558 4.55382C31.4429 4.62282 31.3277 4.69181 31.2125 4.76081C30.9131 4.8988 30.4293 4.8988 29.9917 4.8988H29.8074V5.74977C29.8074 5.81877 29.7613 5.86477 29.6461 5.95676C29.577 6.00276 29.5079 6.04876 29.4619 6.14075C29.4158 6.23275 29.3697 6.32475 29.3697 6.41674C29.3697 6.50874 29.3928 6.62374 29.4619 6.69273C29.5079 6.76173 29.577 6.83073 29.6461 6.87673C29.7383 6.94572 29.8074 6.99172 29.8074 7.08372V9.47562C29.8074 9.54462 29.7613 9.59062 29.6461 9.68261C29.577 9.72861 29.5079 9.77461 29.4619 9.86661C29.4158 9.9586 29.3697 10.0506 29.3697 10.1426C29.3697 10.2346 29.3928 10.3496 29.4619 10.4186C29.5079 10.4876 29.577 10.5566 29.6461 10.6026C29.7383 10.6716 29.8074 10.7176 29.8074 10.8096V11.6145H34.2071H38.6068V10.8096C38.6068 10.7406 38.6529 10.6946 38.768 10.6026C38.8371 10.5566 38.9062 10.5106 38.9523 10.4186C38.9984 10.3266 39.0444 10.2346 39.0444 10.1426C39.0444 10.0506 39.0214 9.9356 38.9523 9.86661C38.8602 9.75161 38.768 9.70561 38.722 9.65961Z" fill="var(--fill-0, #011F5B)"/>
<path id="Vector_35" d="M37.6854 31.3247L20.5934 14.8804L3.52437 31.3247C2.21137 28.5419 1.313 25.299 1.33603 21.6421C1.33603 21.5271 1.33603 18.2153 1.33603 14.3514H39.8737C39.8737 18.2153 39.8737 21.5271 39.8737 21.6421C39.8737 25.299 38.9984 28.5419 37.6854 31.3247ZM32.2261 33.0267C30.89 34.3606 28.7478 34.3606 27.4348 33.0267C26.0987 31.6927 26.0987 29.5538 27.4348 28.2429C28.7708 26.9089 30.9131 26.9089 32.2261 28.2429C33.5621 29.5538 33.5621 31.7157 32.2261 33.0267ZM17.2072 22.2171C17.2072 20.3542 18.7275 18.8362 20.5934 18.8362C22.4592 18.8362 23.9795 20.3542 23.9795 22.2171C23.9795 24.08 22.4592 25.598 20.5934 25.598C18.7275 25.621 17.2072 24.103 17.2072 22.2171ZM31.2125 39.9034C26.6285 44.1582 21.8833 46.2742 20.6164 46.5961C19.3495 46.2742 14.6042 44.1352 10.0203 39.9034C9.90508 39.8114 9.78991 39.6964 9.67473 39.5814L20.6164 27.9899L31.558 39.5814C31.4429 39.6964 31.3277 39.8114 31.2125 39.9034ZM8.98368 33.0267C7.64764 31.6927 7.64764 29.5538 8.98368 28.2429C10.3197 26.9089 12.462 26.9089 13.775 28.2429C15.111 29.5768 15.111 31.7157 13.775 33.0267C12.462 34.3606 10.2967 34.3606 8.98368 33.0267ZM39.8737 2.4609C39.8737 3.72585 39.8737 9.06164 39.8737 13.7994H1.33603C1.33603 9.06164 1.33603 3.72585 1.33603 2.4609H39.8737ZM40.4266 1.90892H0.783193C0.783193 1.90892 0.783193 21.3891 0.783193 21.6421C0.760157 30.2898 5.57449 36.5685 9.62866 40.3174C14.0514 44.4112 19.0039 46.8261 20.5703 47.1711H20.6164H20.6625C22.2288 46.8261 27.1814 44.4112 31.6041 40.3174C35.6583 36.5685 40.4726 30.2898 40.4496 21.6421C40.4266 21.3891 40.4266 1.90892 40.4266 1.90892Z" fill="var(--fill-0, #011F5B)"/>
<path id="Vector_36" d="M121.072 29.1168V22.7461C118.999 23.6431 113.678 24.931 113.678 27.7139C113.678 29.5538 115.06 31.0718 116.995 31.0718C118.723 31.0488 119.736 30.1058 121.072 29.1168ZM121.118 21.6421V16.7663C121.118 14.9724 119.967 14.5124 118.262 14.5124C116.604 14.5124 114.231 15.6164 114.231 16.6053C114.231 16.8813 114.346 17.2033 114.346 17.6403C114.346 19.3422 113.908 20.4922 111.95 20.4922C111.121 20.4922 110.568 19.6872 110.568 18.9742C110.568 17.9853 111.259 17.0423 112.227 16.2374C114.3 14.5354 117.594 13.1555 120.312 13.1555C123.122 13.1555 124.62 14.8114 124.62 17.5023V29.4848C124.62 30.2438 124.62 31.5777 125.679 31.5777C126.416 31.5777 126.831 30.6348 126.969 30.0598H127.706C127.476 32.1987 126.555 33.4637 124.366 33.4637C122.662 33.4637 121.234 31.9457 121.188 30.3818C119.022 31.9457 117.571 33.4637 114.715 33.4637C112.595 33.4637 110.637 31.8077 110.637 29.6688C110.614 24.724 117.41 23.2061 121.118 21.6421Z" fill="var(--fill-0, #011F5B)"/>
<path id="Vector_37" d="M161.015 23.2751C161.015 26.7249 162.305 32.4057 166.797 32.4057C171.151 32.4057 172.671 27.8749 172.671 24.356C172.671 20.5612 172.118 14.0524 166.843 14.0524C162.351 14.0524 161.015 19.9172 161.015 23.2751ZM157.122 23.0911C157.122 17.6863 161.015 13.0635 166.728 13.0635C172.74 13.0635 176.61 17.5713 176.61 23.2521C176.61 29.0708 172.832 33.3717 166.774 33.3717C160.601 33.3717 157.122 28.7719 157.122 23.0911Z" fill="var(--fill-0, #011F5B)"/>
<path id="Vector_38" d="M45.5173 2.98988V1.93192H55.9522V2.98988C54.0172 3.03588 53.2801 3.03588 53.2801 4.18583C53.2801 4.23183 53.3032 4.53082 53.4874 4.9908L59.776 26.3339L68.6676 0.919963H69.4047L77.1214 26.012C77.1214 26.012 83.2257 7.68169 83.2257 5.0828C83.2257 3.03588 81.9358 3.17387 80.2772 2.98988V1.93192H86.681C89.4913 1.93192 92.3706 0.965961 94.0061 0V16.2144C95.9871 14.4434 97.6687 13.0405 100.525 13.0405C102.644 13.0405 104.602 13.9834 105.662 15.7774C106.629 17.3413 106.814 18.8132 106.814 20.5612V29.5538C106.814 31.8767 107.413 31.8767 109.44 32.0147V32.8657H100.709V32.0147C102.598 31.8767 103.197 31.8767 103.197 29.5538V20.5612C103.197 19.1352 103.197 18.5143 102.552 17.1573C101.815 15.8694 100.502 14.6044 98.8435 14.8804C96.3096 15.2944 95.3422 16.4673 94.0292 17.7323V29.5538C94.0292 31.8767 94.6281 31.8767 96.563 32.0147V32.8657H87.7406V32.0147C89.8137 31.8767 90.4127 31.8767 90.4127 29.5538V3.26587C90.4587 3.21987 89.6986 3.26587 88.7541 3.26587C85.2298 3.49586 85.1376 6.16375 84.0089 9.36063L76.0848 33.4177H75.2556L67.4237 9.31463L58.3709 33.4407H57.5877L49.249 6.94572C48.7422 5.56578 48.5119 4.39282 47.7747 3.63385C47.3831 3.24287 47.3601 2.96688 45.5173 2.98988Z" fill="var(--fill-0, #011F5B)"/>
<path id="Vector_39" d="M185.824 32.8887V32.0377C183.843 31.8997 183.244 31.8997 183.244 29.5768V18.9742C183.244 16.9043 186.008 15.0414 187.966 15.0414C190.961 15.0414 192.55 16.9273 192.55 19.7332V29.5768C192.55 31.8997 191.951 31.8997 189.878 32.0377V32.8887H198.977V32.0377C197.411 31.8997 196.167 31.8997 196.167 29.5768V18.9742C196.167 15.6164 192.781 13.0635 189.463 13.0635C186.561 13.0635 185.11 14.3974 183.221 16.2833V13.0635C181.24 13.7764 179.144 14.8114 177.002 15.1104V15.8234C178.913 16.0304 179.604 16.6283 179.604 18.3303V29.5768C179.604 31.8997 179.006 31.8997 176.932 32.0377V32.8887H185.824Z" fill="var(--fill-0, #011F5B)"/>
<path id="Vector_40" d="M137.842 32.8887V32.0377C135.492 31.8997 134.893 31.8997 134.893 29.5768V17.7323C134.893 17.0193 136.091 15.8924 137.381 15.8924C138.579 15.8694 138.786 17.2723 140.284 17.2723C142.126 17.2723 142.564 16.2833 142.564 14.9494C142.564 13.5695 141.067 12.7645 139.385 12.7645C137.404 12.7645 135.884 14.4664 134.801 15.9844V12.9485C132.728 13.8914 130.471 14.7884 128.398 15.1104V15.8234C130.448 16.0304 131.254 16.5133 131.254 18.2613V29.5768C131.254 31.8997 130.655 31.8997 128.674 32.0377V32.8887H137.842Z" fill="var(--fill-0, #011F5B)"/>
<path id="Vector_41" d="M157.007 14.1674L157.675 11.7065H149.774V7.72769H149.313C147.471 9.9126 145.697 11.7755 143.555 13.6615V14.1904H146.065V27.6679C146.065 30.8648 147.517 33.5327 150.972 33.5327C153.943 33.5327 156.224 31.3707 157.445 29.9218L156.892 29.1628C155.809 30.3818 154.381 31.0718 153.068 31.0718C150.419 31.0718 149.751 29.6458 149.751 27.1849V14.1674H157.007Z" fill="var(--fill-0, #011F5B)"/>
</g>
<defs>
<clipPath id="clip0_0_4">
<rect width="199" height="50" fill="white"/>
</clipPath>
</defs>
</svg>
