<svg preserveAspectRatio="xMidYMid meet" overflow="visible" style="display: block;" viewBox="0 0 158.424 9.18805" fill="none" xmlns="http://www.w3.org/2000/svg">
<g id="kw-logo.svg" clip-path="url(#clip0_0_4)">
<path id="Vector" d="M97.2206 0.461686L99.7588 6.91816L101.988 1.0872L104.288 6.9433L106.769 0.461686H107.459L104.191 9.02476H103.767L101.668 3.72587L99.658 9.02476H99.1727L95.7971 0.461686H97.2206Z" fill="var(--fill-0, #011F5B)"/>
<path id="Vector_2" d="M110.065 4.88342V8.95646H108.638V0.461686H110.065V4.33339H114.332V0.461686H115.76V8.95646H114.332V4.88342H110.065Z" fill="var(--fill-0, #011F5B)"/>
<path id="Vector_3" d="M121.396 0.271152L125.394 8.95646H123.942L122.648 6.12367H119.002L117.665 8.95646H116.946L121.037 0.271152H121.396ZM119.25 5.57364H122.381L120.839 2.21241L119.25 5.57364Z" fill="var(--fill-0, #011F5B)"/>
<path id="Vector_4" d="M126.57 0.461686H129.518C130.024 0.461686 130.47 0.515611 130.855 0.627051C131.239 0.734899 131.559 0.889481 131.815 1.08361C132.07 1.28133 132.264 1.515 132.393 1.78461C132.523 2.05423 132.587 2.35261 132.587 2.67256C132.587 2.93859 132.537 3.18664 132.437 3.4167C132.336 3.64677 132.196 3.85528 132.012 4.04221C131.829 4.22915 131.613 4.38732 131.354 4.52395C131.099 4.66054 130.815 4.76478 130.51 4.84029L133.605 8.96005H131.944L128.992 4.96971H127.993V8.96005H126.566V0.461686H126.57ZM128 4.53831H128.827C129.147 4.53831 129.442 4.49518 129.715 4.4089C129.985 4.32262 130.222 4.20398 130.42 4.0458C130.617 3.89122 130.772 3.7007 130.883 3.47782C130.995 3.25494 131.049 3.00689 131.049 2.73008C131.049 2.47483 131.006 2.23757 130.916 2.02547C130.829 1.81337 130.704 1.63003 130.545 1.47905C130.384 1.32806 130.197 1.20943 129.974 1.12315C129.755 1.03687 129.514 0.993732 129.255 0.993732H128V4.53831Z" fill="var(--fill-0, #011F5B)"/>
<path id="Vector_5" d="M141.445 0.461686V1.01171H138.372V8.95286H136.944V1.0153H133.871V0.461686H141.445Z" fill="var(--fill-0, #011F5B)"/>
<path id="Vector_6" d="M145.727 9.15417C145.155 9.15417 144.62 9.03556 144.123 8.80187C143.627 8.56822 143.196 8.24466 142.829 7.83844C142.463 7.43221 142.175 6.9541 141.963 6.41125C141.751 5.86844 141.647 5.28605 141.647 4.66413C141.647 4.25791 141.693 3.86605 141.79 3.49218C141.887 3.11831 142.02 2.76602 142.197 2.44248C142.373 2.11894 142.581 1.82415 142.829 1.55453C143.077 1.28851 143.351 1.05844 143.653 0.867909C143.954 0.677376 144.278 0.529986 144.63 0.425732C144.975 0.325076 145.342 0.271152 145.727 0.271152C146.111 0.271152 146.478 0.325076 146.827 0.42933C147.176 0.533581 147.503 0.680971 147.805 0.871503C148.107 1.06203 148.383 1.28851 148.628 1.55813C148.872 1.82415 149.084 2.12253 149.261 2.44607C149.437 2.76961 149.573 3.1219 149.667 3.49577C149.76 3.86964 149.811 4.2615 149.811 4.66772C149.811 5.07754 149.764 5.47299 149.667 5.85763C149.573 6.23871 149.437 6.59819 149.261 6.92893C149.084 7.25965 148.872 7.56522 148.628 7.83844C148.383 8.11166 148.107 8.34531 147.805 8.54305C147.503 8.74076 147.176 8.89175 146.827 8.99599C146.474 9.10385 146.108 9.15417 145.727 9.15417ZM145.727 8.73358C146.151 8.73358 146.525 8.63292 146.852 8.428C147.179 8.2267 147.452 7.94268 147.675 7.57961C147.898 7.21652 148.067 6.78872 148.178 6.29262C148.29 5.79652 148.347 5.2537 148.347 4.66413C148.347 4.07816 148.29 3.54252 148.178 3.0572C148.067 2.57189 147.898 2.15129 147.675 1.79899C147.452 1.44669 147.179 1.17348 146.852 0.979349C146.525 0.785225 146.151 0.688163 145.727 0.688163C145.295 0.688163 144.918 0.785225 144.591 0.979349C144.264 1.17348 143.99 1.44669 143.771 1.79899C143.548 2.15129 143.383 2.57189 143.271 3.0572C143.16 3.54252 143.102 4.08175 143.102 4.66413C143.102 5.2537 143.16 5.79652 143.271 6.29262C143.383 6.78872 143.548 7.21652 143.771 7.57961C143.994 7.94268 144.267 8.2267 144.591 8.428C144.914 8.63292 145.295 8.73358 145.727 8.73358Z" fill="var(--fill-0, #011F5B)"/>
<path id="Vector_7" d="M151.134 0.461686H151.935L157.5 6.6737H157.565V0.461686H158.194V9.15416H157.86L151.831 2.25195H151.781V8.96005H151.134V0.461686Z" fill="var(--fill-0, #011F5B)"/>
<path id="Vector_8" d="M86.1558 2.06134L87.9675 5.99776H87.3096L86.7238 4.71439H85.0735L84.466 5.99776H84.1425L85.9976 2.06134H86.1558ZM85.1816 4.46274H86.6016L85.9005 2.9385L85.1816 4.46274Z" fill="var(--fill-0, #990000)"/>
<path id="Vector_9" d="M91.5263 2.14767V2.39572H90.1314V5.99423H89.4843V2.39931H88.0897V2.14767H91.5263Z" fill="var(--fill-0, #990000)"/>
<path id="Vector_10" d="M91.131 6.66292H84.1389V6.91816H91.131V6.66292Z" fill="var(--fill-0, #990000)"/>
<path id="Vector_11" d="M0 0.461619H1.42718V4.22909L5.89926 0.461619H6.83034L2.58834 4.03857L7.96991 8.9564H6.1509L1.42718 4.64609V8.9564H0V0.461619Z" fill="var(--fill-0, #011F5B)"/>
<path id="Vector_12" d="M9.14186 0.461619H9.94353L15.5085 6.67361H15.5732V0.461619H16.2023V9.15411H15.8679L9.83926 2.25188H9.78895V8.95999H9.14186V0.461619Z" fill="var(--fill-0, #011F5B)"/>
<path id="Vector_13" d="M27.5622 0.461619L30.1 6.91807L32.3291 1.08713L34.6298 6.94324L37.1103 0.461619H37.8005L34.5326 9.0247H34.1085L32.0092 3.7294L29.9995 9.02829H29.5142L26.135 0.461619H27.5622Z" fill="var(--fill-0, #011F5B)"/>
<path id="Vector_14" d="M38.9796 0.461619H40.4068V8.40637H44.6848V8.9564H38.976V0.461619H38.9796Z" fill="var(--fill-0, #011F5B)"/>
<path id="Vector_15" d="M51.8674 0.461619V1.01164H47.3881V4.04934H50.3862V4.59937H47.3881V8.40277H51.8674V8.9528H45.9609V0.461619H51.8674Z" fill="var(--fill-0, #011F5B)"/>
<path id="Vector_16" d="M53.5463 0.461619H56.379C57.2491 0.461619 58.0002 0.5443 58.6259 0.706071C59.2512 0.867842 59.776 1.13027 60.1967 1.48617C60.6748 1.89599 61.0343 2.36692 61.2754 2.89538C61.5162 3.42383 61.6384 4.0026 61.6384 4.63173C61.6384 5.22848 61.5304 5.78928 61.3149 6.31773C61.0991 6.84259 60.7828 7.29913 60.3658 7.69099C59.9487 8.08284 59.4347 8.39198 58.8236 8.61848C58.2124 8.84495 57.5077 8.9564 56.7206 8.9564H53.5499V0.461619H53.5463ZM54.9735 8.33448H56.4903C56.9684 8.33448 57.4178 8.25538 57.8421 8.09721C58.2664 7.93904 58.6331 7.70535 58.9458 7.3926C59.2585 7.07984 59.5065 6.69879 59.69 6.24222C59.8696 5.78569 59.9632 5.26083 59.9632 4.66408C59.9632 4.13922 59.8768 3.65749 59.7078 3.21891C59.5388 2.78034 59.298 2.40287 58.9889 2.09011C58.6796 1.77736 58.3165 1.52931 57.8889 1.35316C57.4646 1.17701 57.001 1.09073 56.494 1.09073H54.9699V8.33448H54.9735Z" fill="var(--fill-0, #011F5B)"/>
<path id="Vector_17" d="M68.0264 0.878669C67.5124 0.878669 67.0416 0.96854 66.6064 1.15188C66.1715 1.33163 65.7976 1.59406 65.4849 1.93198C65.1722 2.2699 64.9278 2.67972 64.7515 3.16144C64.5753 3.64314 64.4889 4.17881 64.4889 4.77196C64.4889 5.36871 64.5825 5.90794 64.7729 6.38967C64.9637 6.87138 65.2223 7.2776 65.5531 7.61552C65.8839 7.95345 66.2723 8.21227 66.7214 8.39203C67.1707 8.57537 67.6491 8.66524 68.1631 8.66524C68.5334 8.66524 68.8714 8.61491 69.1696 8.51425C69.468 8.4136 69.7376 8.2698 69.9784 8.08286V5.10268H68.3716V4.5958H71.4092V8.33091C71.1611 8.46391 70.9131 8.58255 70.6617 8.6832C70.41 8.78388 70.1365 8.87014 69.8456 8.93846C69.5544 9.00676 69.2308 9.05707 68.882 9.09664C68.5334 9.13258 68.1344 9.15054 67.6922 9.15054C67.2211 9.15054 66.7754 9.09664 66.3547 8.99237C65.9306 8.88812 65.5389 8.74073 65.1792 8.54661C64.8197 8.35608 64.4926 8.12599 64.2013 7.85639C63.9104 7.59035 63.6659 7.29199 63.461 6.96844C63.2561 6.6449 63.1016 6.29621 62.9899 5.92593C62.8785 5.55565 62.8245 5.16738 62.8245 4.76475C62.8245 4.36933 62.8785 3.98107 62.9827 3.60361C63.0871 3.22615 63.238 2.87023 63.4357 2.53233C63.6333 2.198 63.8708 1.89243 64.1548 1.61203C64.4388 1.33163 64.7551 1.09436 65.111 0.893047C65.4668 0.691735 65.8516 0.537153 66.2686 0.42571C66.6855 0.314267 67.1312 0.260344 67.6023 0.260344C68.0517 0.260344 68.4651 0.321459 68.8497 0.443685C69.2344 0.565911 69.5794 0.727682 69.8921 0.928998C70.205 1.13031 70.4854 1.36038 70.7299 1.62281C70.9743 1.88524 71.1829 2.15846 71.3588 2.44605L70.7441 2.85587C70.3846 2.16924 69.9856 1.66595 69.5507 1.34601C69.1158 1.02606 68.5943 0.878669 68.0264 0.878669Z" fill="var(--fill-0, #011F5B)"/>
<path id="Vector_18" d="M79.1347 0.461619V1.01164H74.6554V4.04934H77.6538V4.59937H74.6554V8.40277H79.1347V8.9528H73.2282V0.461619H79.1347Z" fill="var(--fill-0, #011F5B)"/>
<path id="Vector_19" d="M21.7959 9.15417C21.2243 9.15417 20.6887 9.03556 20.1926 8.80187C19.6965 8.56822 19.2651 8.24466 18.8984 7.83844C18.5317 7.43221 18.2442 6.9541 18.0321 6.41125C17.8199 5.86844 17.7157 5.28605 17.7157 4.66413C17.7157 4.25791 17.7624 3.86605 17.8595 3.49218C17.953 3.11831 18.0896 2.76602 18.2657 2.44248C18.4419 2.11894 18.6504 1.82415 18.8984 1.55453C19.1465 1.28851 19.4197 1.05844 19.7217 0.867909C20.0236 0.677376 20.3472 0.529986 20.6995 0.425732C21.0482 0.325076 21.4149 0.271152 21.7959 0.271152C22.177 0.271152 22.5473 0.325076 22.896 0.42933C23.2447 0.533581 23.5718 0.680971 23.8738 0.871503C24.1758 1.06203 24.4526 1.28851 24.697 1.55813C24.9415 1.82415 25.1536 2.12253 25.3297 2.44607C25.5059 2.76961 25.6425 3.1219 25.736 3.49577C25.8294 3.86964 25.8797 4.2615 25.8797 4.66772C25.8797 5.07754 25.833 5.47299 25.736 5.85763C25.6425 6.23871 25.5059 6.59819 25.3297 6.92893C25.1536 7.25965 24.9415 7.56522 24.697 7.83844C24.4526 8.11166 24.1758 8.34531 23.8738 8.54305C23.5718 8.74076 23.2447 8.89175 22.896 8.99599C22.5473 9.10385 22.1806 9.15417 21.7959 9.15417ZM21.7959 8.73358C22.2201 8.73358 22.594 8.63292 22.9211 8.428C23.2483 8.2267 23.5215 7.94268 23.7444 7.57961C23.9673 7.21652 24.1362 6.78872 24.2477 6.29262C24.3627 5.79652 24.4166 5.2537 24.4166 4.66413C24.4166 4.07816 24.3591 3.54252 24.2477 3.0572C24.1326 2.57189 23.9673 2.15129 23.7444 1.79899C23.5215 1.44669 23.2483 1.17348 22.9211 0.979349C22.594 0.785225 22.2201 0.688163 21.7959 0.688163C21.3645 0.688163 20.9871 0.785225 20.6599 0.979349C20.3328 1.17348 20.0596 1.44669 19.8403 1.79899C19.6174 2.15129 19.4521 2.57189 19.3406 3.0572C19.2291 3.54252 19.1716 4.08175 19.1716 4.66413C19.1716 5.2537 19.2291 5.79652 19.3406 6.29262C19.4521 6.78872 19.6174 7.21652 19.8403 7.57961C20.0632 7.94268 20.3364 8.2267 20.6599 8.428C20.9871 8.63292 21.3645 8.73358 21.7959 8.73358Z" fill="var(--fill-0, #011F5B)"/>
</g>
<defs>
<clipPath id="clip0_0_4">
<rect width="158.424" height="9.18805" fill="white"/>
</clipPath>
</defs>
</svg>
