<svg width="117" height="32" viewBox="0 0 117 32" fill="none" xmlns="http://www.w3.org/2000/svg">
<g clip-path="url(#clip0_341_9207)">
<path d="M116.408 30.9794C113.182 30.9794 109.955 30.9668 106.716 30.9668C106.208 30.9668 105.979 30.6266 106.157 30.1605C106.221 29.9967 106.348 30.0471 106.462 30.0345C106.996 29.9841 107.542 29.9967 108.075 29.8329C108.952 29.5684 109.396 29.0644 109.434 28.1573C109.473 27.1999 109.447 26.2424 109.447 25.2849C109.447 22.7652 109.447 20.2581 109.447 17.7384C109.447 16.1258 108.888 14.7904 107.427 13.9841C105.916 13.1652 104.366 13.2156 102.867 14.0849C101.635 14.803 100.72 15.8613 99.8564 16.9699C99.7421 17.1211 99.7421 17.2723 99.7421 17.4361C99.7421 20.6109 99.7421 23.7857 99.7421 26.9479C99.7421 27.3636 99.7802 27.792 99.8437 28.1951C100.022 29.329 100.631 29.8455 101.876 29.9715C102.13 29.9967 102.384 30.0345 102.638 30.0219C102.943 29.9967 102.981 30.1353 102.981 30.3873C102.969 30.9542 102.981 30.9542 102.397 30.9542C96.0201 30.9542 89.6305 30.9542 83.2536 30.9542C82.7709 30.9542 82.5295 30.5636 82.72 30.1227C82.7836 29.9841 82.8979 30.0345 82.9868 30.0219C83.5711 29.9715 84.1555 29.9841 84.7271 29.7951C85.4893 29.5558 85.8958 29.0518 85.972 28.2707C85.9847 28.0818 86.0101 27.8802 86.0101 27.6912C86.0101 24.3526 86.0228 21.014 86.0101 17.6755C86.0101 15.4707 84.7652 13.9211 82.6692 13.4928C81.1449 13.1778 79.8111 13.6566 78.6297 14.6014C77.804 15.2566 77.118 16.0503 76.4702 16.8818C76.3431 17.0455 76.305 17.2219 76.305 17.4235C76.305 20.5605 76.305 23.7101 76.3177 26.8471C76.3177 27.2503 76.3558 27.6534 76.4066 28.0566C76.5845 29.3038 77.1942 29.8581 78.5153 29.9589C78.7313 29.9715 78.9345 30.0093 79.1505 29.9841C79.4808 29.9589 79.557 30.0849 79.5824 30.4125C79.6078 30.866 79.4554 30.9416 79.0235 30.9416C75.962 30.9164 72.9006 30.929 69.8392 30.9416C69.5597 30.9416 69.3692 30.929 69.42 30.5762C69.4581 30.3117 69.2802 29.9589 69.8138 29.9967C70.2457 30.0219 70.6776 29.9841 71.1222 29.8959C71.8209 29.7573 72.2274 29.329 72.4052 28.6739C72.5703 28.0944 72.5957 27.4896 72.6084 26.8975C72.6084 23.0676 72.6084 19.2377 72.6084 15.4077C72.6084 13.6818 72.1511 13.1652 70.4362 12.9636C70.2838 12.951 70.1314 12.9133 69.9916 12.9385C69.5089 13.0014 69.3692 12.7999 69.42 12.3463C69.4454 12.1447 69.42 11.981 69.6995 11.9558C71.7573 11.792 73.8025 11.5148 75.8731 11.3888C76.2669 11.3636 76.3431 11.4896 76.3304 11.855C76.305 12.9133 76.3177 13.9715 76.3177 15.0802C76.5464 15.0172 76.6353 14.8408 76.7623 14.7148C78.0961 13.329 79.5697 12.1447 81.5006 11.6282C85.5782 10.5321 89.5162 13.329 89.7067 17.5243C89.8464 20.6991 89.7321 23.8739 89.7575 27.0361C89.7575 27.4518 89.7829 27.8676 89.8591 28.2833C90.037 29.2282 90.6086 29.7447 91.5359 29.9085C92.4506 30.0723 93.3652 30.0597 94.2798 29.9589C95.296 29.8455 95.766 29.329 95.9312 28.2455C95.9947 27.792 96.0328 27.3259 96.0328 26.8597C96.0328 23.0676 96.0328 19.2881 96.0328 15.4959C96.0328 13.6188 95.4231 13.0014 93.5303 12.9385C93.4795 12.9385 93.4414 12.9385 93.3906 12.9385C92.8825 12.9259 92.6665 12.5983 92.8444 12.107C92.8952 11.9684 92.9968 11.9684 93.0984 11.9684C95.1817 11.8046 97.265 11.5022 99.361 11.3888C99.6786 11.3762 99.7675 11.4644 99.7548 11.7794C99.7294 12.8629 99.7421 13.9589 99.7421 15.1684C99.9326 14.9668 100.047 14.8408 100.161 14.7274C101.508 13.3164 102.994 12.1322 104.925 11.6156C109.066 10.5322 113.029 13.4172 113.131 17.6629C113.195 20.7873 113.156 23.9117 113.156 27.0487C113.156 27.4644 113.195 27.8802 113.271 28.2959C113.449 29.2282 114.02 29.7573 114.96 29.9085C115.43 29.9841 115.913 30.0597 116.396 29.9841C116.408 30.3243 116.408 30.6518 116.408 30.9794Z" fill="white"/>
<path d="M14.1256 0.201468C18.5971 0.201468 23.0559 0.201468 27.5273 0.201468C27.7687 0.201468 27.9846 0.138473 27.9846 0.541623C27.9719 5.16525 28.0227 9.78887 27.9592 14.4125C27.9211 17.4109 26.8668 20.1196 25.1391 22.5511C22.4715 26.318 18.9274 29.0141 14.6465 30.7652C13.9478 31.055 13.2491 31.1054 12.5505 30.7778C6.96113 28.2456 2.79454 24.3652 0.850978 18.4314C0.406372 17.0582 0.215827 15.6345 0.215827 14.1857C0.215827 9.68808 0.215828 5.17784 0.203125 0.680207C0.203125 0.289655 0.279342 0.17627 0.698542 0.17627C5.17 0.201466 9.65417 0.201468 14.1256 0.201468ZM14.0621 8.80619C9.71769 8.80619 5.37325 8.80619 1.02882 8.79359C0.711246 8.79359 0.596917 8.84399 0.596917 9.19674C0.622323 10.9479 0.584215 12.6991 0.609621 14.4503C0.635027 16.466 1.11774 18.381 1.91803 20.2204C2.01966 20.4471 2.07047 20.5731 2.33723 20.3212C3.41699 19.2755 4.52215 18.2676 5.61461 17.2345C8.35846 14.6519 11.115 12.0818 13.8589 9.4991C14.0367 9.33532 14.1383 9.29753 14.3289 9.4865C14.9259 10.0786 15.5357 10.6582 16.1454 11.2377C19.3212 14.2613 22.4969 17.2849 25.66 20.3212C25.8632 20.5227 25.9394 20.4975 26.0538 20.2582C27.0192 18.3306 27.5654 16.2897 27.6035 14.1353C27.6289 12.5101 27.5908 10.8723 27.6162 9.24714C27.6162 8.86918 27.5146 8.79359 27.1462 8.79359C22.7764 8.80619 18.4193 8.80619 14.0621 8.80619ZM14.0748 8.62981C18.432 8.62981 22.7891 8.62981 27.1462 8.64241C27.5019 8.64241 27.6035 8.55422 27.6035 8.20147C27.5908 5.82037 27.5908 3.43926 27.6035 1.07076C27.6035 0.705404 27.4892 0.617214 27.1462 0.617214C18.4574 0.629813 9.7685 0.629813 1.07963 0.617214C0.711245 0.617214 0.596917 0.718004 0.596917 1.09596C0.60962 3.38887 0.609621 5.66919 0.609621 7.9621C0.609621 8.718 0.495294 8.64241 1.27018 8.64241C5.53839 8.62981 9.8066 8.62981 14.0748 8.62981ZM13.5667 30.6393C13.9097 30.6141 14.2146 30.5007 14.5321 30.3873C17.0727 29.4298 19.2831 27.9432 21.3409 26.2172C21.5569 26.0282 21.5569 25.9275 21.3664 25.7259C19.0036 23.3322 16.6535 20.9385 14.2908 18.5322C14.151 18.381 14.0621 18.3936 13.9224 18.5322C13.6175 18.8597 13.2999 19.1747 12.9824 19.5023C10.8356 21.6566 8.67604 23.8235 6.52923 25.9778C6.37679 26.129 6.26246 26.2298 6.49112 26.4314C8.33306 28.0566 10.3274 29.4676 12.6267 30.3999C12.9188 30.5007 13.2364 30.6141 13.5667 30.6393ZM14.0875 16.5416C15.3324 16.5416 16.3614 15.5463 16.3614 14.3621C16.3614 13.1526 15.2943 12.1322 14.0494 12.1448C12.8172 12.1574 11.7756 13.1652 11.7629 14.3495C11.7629 15.5463 12.8299 16.5416 14.0875 16.5416ZM20.2866 22.0219C21.5442 22.0219 22.5731 21.0267 22.5731 19.8298C22.5604 18.6078 21.5315 17.6377 20.2358 17.6503C18.9782 17.6629 17.9746 18.6456 17.9874 19.8676C18.0001 21.0771 19.0163 22.0219 20.2866 22.0219ZM7.49466 22.0219C8.76496 22.0219 9.7939 21.0645 9.80661 19.8676C9.81931 18.6582 8.77766 17.6629 7.49466 17.6629C6.22435 17.6629 5.22082 18.633 5.22082 19.8424C5.22082 21.0519 6.22435 22.0093 7.49466 22.0219Z" fill="#011F5B"/>
<path d="M50.9532 2.62014C48.8953 1.09573 46.5071 0.478414 43.9919 0.276839C41.8832 0.113059 39.7745 0.239043 38.0342 0.201248C35.5317 0.201248 33.3976 0.201248 31.2762 0.201248C31.1365 0.201248 30.9205 0.113056 30.8824 0.289434C30.8316 0.528804 30.8189 0.80597 30.8824 1.04534C30.9459 1.24691 31.2 1.14613 31.3651 1.15873C32.9022 1.23432 33.7533 1.92723 34.1217 3.40125C34.2995 4.13196 34.363 4.87526 34.363 5.61857C34.363 12.2453 34.363 18.8721 34.363 25.4989C34.363 26.1414 34.2995 26.7839 34.1852 27.4138C33.9057 28.9383 33.1816 29.732 31.8478 29.9587C31.5938 29.9965 31.3397 29.9965 31.0857 30.0217C30.6029 30.0721 30.9205 30.4375 30.857 30.6516C30.7935 30.8658 30.8951 30.954 31.1492 30.954C34.6679 30.9414 38.1739 30.954 41.6927 30.954C41.7943 30.954 41.9594 30.9918 41.9721 30.8784C42.0102 30.6264 42.0357 30.3619 41.9721 30.1225C41.934 29.9335 41.6927 30.0217 41.5402 29.9965C41.4386 29.9713 41.3243 29.9839 41.2227 29.9713C39.9905 29.8705 39.1775 29.2406 38.8218 28.0564C38.6312 27.4138 38.5296 26.7461 38.5296 26.0658C38.5169 23.0296 38.5169 19.9934 38.4915 16.9572C38.4915 16.617 38.6058 16.5666 38.9107 16.6044C40.0032 16.7556 41.0956 16.8438 42.2008 16.869C44.5 16.9194 46.7866 16.8186 48.9842 16.0501C50.9532 15.3572 52.5919 14.2359 53.4938 12.2957C55.0816 8.93196 54.0273 4.90046 50.9532 2.62014ZM49.0985 12.3209C48.1331 14.1603 46.5071 15.1052 44.5254 15.4957C42.6454 15.8611 40.7526 15.8485 38.8853 15.3068C38.5804 15.2186 38.4534 15.08 38.5042 14.7776C38.5042 14.7524 38.5042 14.7146 38.5042 14.6894C38.5042 12.5477 38.5042 10.4186 38.5042 8.27684C38.5042 6.13511 38.5042 4.00597 38.4915 1.86424C38.4915 1.53668 38.5423 1.3855 38.9234 1.3981C40.4986 1.44849 42.0865 1.28471 43.6616 1.52408C46.7612 1.97763 48.8445 3.89258 49.5685 6.91621C50.0259 8.75558 50.0004 10.5949 49.0985 12.3209Z" fill="white"/>
<path d="M38.5039 1.85156C38.5166 3.99329 38.5166 6.12243 38.5166 8.26416C38.5166 6.13503 38.5166 3.99329 38.5039 1.85156Z" fill="white"/>
<path d="M14.0638 8.80606C18.421 8.80606 22.7781 8.80606 27.148 8.79346C27.5163 8.79346 27.618 8.86905 27.618 9.247C27.5926 10.8722 27.6307 12.51 27.6053 14.1352C27.5671 16.2895 27.0209 18.3179 26.0555 20.258C25.9412 20.4974 25.8649 20.5226 25.6617 20.321C22.4859 17.2974 19.3102 14.2738 16.1344 11.2501C15.5247 10.6706 14.9149 10.0911 14.3179 9.49897C14.1274 9.30999 14.0384 9.33519 13.8479 9.51157C11.104 12.0942 8.36019 14.6769 5.60363 17.247C4.51117 18.2801 3.40601 19.2879 2.32625 20.3336C2.05949 20.5856 2.00867 20.447 1.90705 20.2328C1.10676 18.3935 0.624045 16.4785 0.598639 14.4627C0.573233 12.7116 0.611344 10.9604 0.585938 9.20921C0.585938 8.85645 0.700264 8.80606 1.01784 8.80606C5.37497 8.80606 9.71941 8.80606 14.0638 8.80606Z" fill="white"/>
<path d="M14.0756 8.62969C9.80734 8.62969 5.53913 8.62969 1.27092 8.62969C0.508736 8.62969 0.61036 8.70528 0.61036 7.94938C0.61036 5.65646 0.623062 3.37615 0.597656 1.08323C0.597656 0.705282 0.699281 0.604492 1.08037 0.604492C9.76924 0.617091 18.4581 0.617091 27.147 0.604492C27.4899 0.604492 27.617 0.692682 27.6043 1.05804C27.5916 3.43914 27.5916 5.82024 27.6043 8.18875C27.6043 8.5541 27.5027 8.62969 27.147 8.62969C22.7898 8.62969 18.4327 8.62969 14.0756 8.62969ZM17.6959 6.22339C17.8229 6.08481 17.9373 5.93363 18.077 5.79504C18.2167 5.66906 18.3819 5.50528 18.5978 5.59347C18.7757 5.66906 18.9154 5.82024 18.9281 6.03441C18.9535 6.28638 18.8392 6.48796 18.6359 6.58874C18.2294 6.79032 17.7848 6.81552 17.4292 6.53835C17.0862 6.27378 16.4764 6.1604 16.7051 5.48008C16.7432 5.3667 16.6924 5.25331 16.6289 5.13993C16.3621 4.68638 16.197 4.16985 15.9048 3.7667C15.6507 3.42654 15.2569 3.17457 15.0029 2.80922C14.9648 2.74622 14.7996 2.78402 14.698 2.75882C14.571 2.72103 14.4312 2.73363 14.3423 2.59505C14.012 1.97772 13.288 2.10371 12.7799 1.81394C12.7544 1.80134 12.7163 1.80134 12.6909 1.81394C12.3225 1.95252 11.9669 2.04071 11.5858 1.82654C11.4206 1.73835 11.2428 1.88953 11.1031 2.00292C11.0141 2.07851 10.9506 2.1793 10.7982 2.07851C10.4044 1.81394 10.163 2.01552 9.94708 2.34308C9.88356 2.44386 9.85816 2.65804 9.68032 2.56985C9.41355 2.43126 9.31193 2.63284 9.2103 2.77142C8.70218 3.51473 8.33379 4.33363 8.06703 5.19032C7.99081 5.41709 7.96541 5.69426 8.18136 5.85804C8.47353 6.07221 8.42272 6.27379 8.21947 6.48796C7.9146 6.80292 7.91459 7.09268 8.29568 7.33205C8.3719 7.38245 8.42272 7.45804 8.46083 7.53363C8.63867 7.92418 8.98165 8.03757 9.36274 7.96198C10.1757 7.81079 10.9125 7.40764 11.3698 6.76513C11.7128 6.28639 12.0685 6.23599 12.5258 6.24859C12.9958 6.26119 13.4023 6.46276 13.7961 6.66434C14.4439 6.99189 15.0918 7.30686 15.7269 7.64701C16.4256 8.02497 17.1751 8.12575 17.9627 8.06276C19.6014 7.93678 20.4398 6.85331 20.173 5.25331C20.046 4.51001 19.7919 3.7793 19.9825 2.99819C20.0333 2.77142 19.9189 2.68323 19.6903 2.68323C19.0043 2.65804 18.5978 3.06119 18.4708 3.95567C18.4454 4.16985 18.4073 4.28324 18.1786 4.37142C17.391 4.69898 17.1878 5.46749 17.6959 6.22339ZM25.521 7.11788C25.8258 7.11788 26.1307 7.08009 26.4229 7.13048C26.7405 7.18087 26.804 7.04229 26.7786 6.79032C26.7659 6.51315 26.7659 6.27379 27.0199 6.05961C27.1724 5.93363 27.1851 5.71945 27.0326 5.53048C26.6642 5.07693 26.677 4.35883 27.0326 3.85489C27.1597 3.67851 27.2232 3.47693 27.0707 3.31315C26.8802 3.11158 26.8548 2.89741 26.8675 2.65804C26.8929 2.43127 26.804 2.33048 26.5626 2.35568C26.2451 2.38087 25.9402 2.35568 25.6607 2.1541C25.2288 1.83914 24.7715 1.83914 24.2888 2.04072C24.0601 2.1415 23.8188 2.22969 23.552 2.07851C23.1074 1.82654 22.6501 1.87693 22.2182 2.1163C21.9006 2.29268 21.583 2.36827 21.2274 2.34308C20.5033 2.28009 21.0241 3.16197 20.5033 3.28796C20.4017 3.31316 20.4779 3.55253 20.5795 3.67851C20.859 4.03127 20.9606 5.05174 20.7065 5.39189C20.5033 5.66906 20.5414 5.89583 20.77 6.09741C20.9479 6.26119 20.986 6.41237 20.9098 6.65174C20.7955 7.01709 20.9225 7.16827 21.3544 7.16827C22.7517 7.16827 24.1363 7.15567 25.521 7.11788ZM4.39586 7.16827C5.23426 7.16827 6.08536 7.15567 6.92376 7.16827C7.21593 7.16827 7.34296 7.09268 7.31755 6.79032C7.29215 6.52575 7.30485 6.27379 7.55891 6.07221C7.76216 5.90843 7.67324 5.69426 7.5208 5.51788C7.21593 5.16512 7.22863 4.25804 7.5335 3.90528C7.68594 3.7289 7.76216 3.50213 7.59702 3.33835C7.31755 3.07379 7.54621 2.64544 7.35566 2.48166C7.13971 2.29268 6.73322 2.44386 6.42834 2.30528C6.31402 2.25489 6.21239 2.20449 6.11077 2.1415C5.69157 1.85174 5.25966 1.86434 4.82776 2.06591C4.5483 2.19189 4.29423 2.20449 4.00207 2.06591C3.65908 1.90213 3.2907 1.88953 2.94772 2.05331C2.51581 2.26748 2.08391 2.40607 1.6012 2.35568C1.41065 2.33048 1.32173 2.40607 1.33443 2.60764C1.35984 2.83442 1.30903 3.02339 1.09308 3.17457C0.915233 3.30056 0.927934 3.52733 1.06767 3.69111C1.52498 4.25804 1.43606 4.86276 1.16929 5.46749C1.05496 5.71945 1.06767 5.94623 1.25821 6.11001C1.47416 6.29898 1.53768 6.52575 1.49957 6.79032C1.46146 7.10528 1.6139 7.16827 1.89336 7.15567C2.73176 7.15567 3.57016 7.16827 4.39586 7.16827Z" fill="#990000"/>
<path d="M13.5652 30.6391C13.235 30.614 12.9174 30.5006 12.6125 30.3872C10.3006 29.4549 8.31889 28.0565 6.47695 26.4187C6.2483 26.2171 6.36263 26.1163 6.51506 25.9651C8.67457 23.8108 10.8214 21.6565 12.9682 19.4895C13.2858 19.1746 13.6033 18.847 13.9082 18.5195C14.0352 18.3809 14.1242 18.3809 14.2766 18.5195C16.6267 20.9258 18.9894 23.3195 21.3522 25.7132C21.5427 25.9147 21.5427 26.0155 21.3268 26.2045C19.2689 27.9431 17.0586 29.4171 14.518 30.3746C14.2131 30.5006 13.8955 30.6014 13.5652 30.6391Z" fill="white"/>
<path d="M14.0865 16.5415C12.8162 16.5415 11.7491 15.5462 11.7618 14.3494C11.7745 13.1777 12.8289 12.1572 14.0484 12.1446C15.2933 12.132 16.3603 13.1525 16.3603 14.362C16.373 15.5462 15.3441 16.5289 14.0865 16.5415Z" fill="white"/>
<path d="M20.2876 22.0222C19.0046 22.0222 18.0011 21.0773 17.9884 19.8678C17.9757 18.6584 18.9792 17.6631 20.2368 17.6505C21.5325 17.6379 22.5615 18.608 22.5742 19.83C22.5869 21.0269 21.5579 22.0096 20.2876 22.0222Z" fill="white"/>
<path d="M7.4965 22.0221C6.22619 22.0221 5.22266 21.0521 5.22266 19.8426C5.22266 18.6332 6.22619 17.6631 7.4965 17.6631C8.7795 17.6631 9.82115 18.6584 9.80845 19.8678C9.79574 21.0647 8.75409 22.0221 7.4965 22.0221Z" fill="white"/>
<path d="M69.2944 26.0534C68.6211 26.7715 68.0241 27.4014 67.4016 28.0062C65.5724 29.7699 63.4383 30.4755 60.9485 29.7951C58.446 29.1022 56.8454 27.3888 55.8673 25.0707C55.2194 23.5211 54.9654 21.8833 54.9273 20.2203C54.9146 19.4014 54.8892 19.4014 55.7149 19.4014C59.9704 19.4014 64.2259 19.4014 68.4814 19.414C68.8371 19.414 69.0022 19.3762 68.9895 18.9479C68.9641 17.7258 68.6465 16.592 68.0368 15.5337C66.017 12.0566 61.4058 10.5196 57.4552 11.9936C51.4085 14.2613 49.592 21.518 52.158 26.4188C54.3048 30.4881 58.7001 31.9747 62.8667 31.5085C65.547 31.2062 67.5033 29.7447 69.1292 27.7164C69.2309 27.603 69.2944 27.477 69.2944 27.3132C69.2817 26.9101 69.2944 26.5447 69.2944 26.0534ZM54.9273 18.0282C55.067 16.9196 55.3338 15.8613 55.9181 14.8912C57.0106 13.0896 58.9668 12.2707 61.2153 12.6613C63.1842 13.014 64.7467 14.5762 65.1659 16.6046C65.2675 17.0833 65.2929 17.5747 65.331 18.066C65.3564 18.3684 65.2421 18.444 64.95 18.444C63.3367 18.4314 61.7234 18.444 60.1101 18.444C58.5222 18.444 56.9471 18.4314 55.3592 18.4566C55.0289 18.4692 54.8892 18.4062 54.9273 18.0282Z" fill="white"/>
<path d="M17.6954 6.2237C17.2 5.46779 17.3905 4.69929 18.1908 4.38433C18.4195 4.29614 18.4576 4.18275 18.483 3.96858C18.61 3.07409 19.0165 2.67094 19.7025 2.69614C19.9311 2.70874 20.0582 2.78433 19.9946 3.0111C19.8041 3.7796 20.0582 4.52291 20.1852 5.26621C20.4519 6.86621 19.6008 7.94968 17.9749 8.07567C17.2 8.13866 16.4505 8.03787 15.7391 7.65992C15.104 7.31976 14.4561 6.9922 13.8083 6.67724C13.4018 6.47567 12.9953 6.27409 12.538 6.26149C12.068 6.2489 11.725 6.29929 11.382 6.77803C10.9247 7.40795 10.1879 7.8237 9.37491 7.97488C8.99382 8.05047 8.65084 7.93708 8.473 7.54653C8.43489 7.45834 8.38408 7.39535 8.30786 7.34496C7.92677 7.09299 7.92677 6.81582 8.23164 6.50086C8.43489 6.28669 8.49841 6.08512 8.19353 5.87094C7.97758 5.70716 8.00299 5.42999 8.07921 5.20322C8.34597 4.34653 8.71436 3.52763 9.22248 2.78433C9.3241 2.64574 9.42572 2.44417 9.69249 2.58275C9.87033 2.67094 9.89574 2.45677 9.95925 2.35598C10.1752 2.02842 10.4166 1.81425 10.8104 2.09141C10.9628 2.1922 11.0263 2.09141 11.1152 2.01582C11.255 1.90244 11.4455 1.75126 11.5979 1.83945C11.979 2.05362 12.3347 1.97803 12.7031 1.82685C12.7285 1.81425 12.7666 1.81425 12.792 1.82685C13.3001 2.11661 14.0115 1.99063 14.3545 2.60795C14.4307 2.75913 14.5831 2.73393 14.7102 2.77173C14.8118 2.79693 14.9769 2.77173 15.0151 2.82212C15.2691 3.18748 15.6756 3.43944 15.917 3.7796C16.2091 4.19535 16.3743 4.71188 16.641 5.15283C16.7046 5.26622 16.7554 5.3796 16.7173 5.49299C16.4759 6.16071 17.0983 6.28669 17.4413 6.55126C17.797 6.82842 18.2416 6.80322 18.6481 6.60165C18.8641 6.50086 18.9657 6.29929 18.9403 6.04732C18.9149 5.83315 18.7879 5.68196 18.61 5.60637C18.3941 5.51818 18.2416 5.66937 18.0892 5.80795C17.9367 5.93393 17.8224 6.08511 17.6954 6.2237ZM11.4074 6.00953C11.5598 6.1985 11.7123 6.13551 11.8774 6.11031C12.4617 6.00952 13.0207 6.08511 13.5415 6.33708C14.075 6.60165 14.6086 6.89141 15.1421 7.15598C15.701 7.43314 16.2599 7.74811 16.8824 7.86149C18.6608 8.16385 20.6171 7.25677 19.9184 4.92606C19.7533 4.37173 19.6263 3.7922 19.766 3.20007C19.8676 2.82212 19.6771 2.83472 19.4103 2.91031C18.9276 3.0363 18.6735 3.42685 18.6354 4.14496C18.6227 4.37173 18.5846 4.45992 18.3432 4.53551C17.6827 4.71189 17.4921 5.14023 17.7081 5.82055C17.8224 5.71976 17.9367 5.61897 18.0511 5.54338C18.4957 5.24102 18.9657 5.4174 19.08 5.94653C19.1689 6.36228 18.9784 6.68984 18.5338 6.84102C17.8224 7.09299 16.7427 6.66464 16.2981 5.93393C15.8026 5.10244 15.1294 4.42212 14.4561 3.7544C13.262 2.58275 11.6869 2.63315 10.2387 3.11189C10.0355 3.18748 9.95925 3.28826 10.0736 3.51503C10.2133 3.7796 10.2768 4.06937 10.3022 4.39692C10.6071 4.32133 10.912 4.33393 11.166 4.51031C11.2677 4.5859 11.3439 4.5859 11.4201 4.45992C11.6361 4.09456 11.9536 4.19535 12.2458 4.33393C12.4872 4.44732 12.6904 4.48511 12.9572 4.35913C13.3891 4.14496 13.6939 4.29614 13.8972 4.74968C13.948 4.85047 13.9099 5.01425 14.0877 5.00165C14.4942 4.98905 14.7483 5.15283 14.8245 5.56858C14.8372 5.60638 14.9134 5.66937 14.9515 5.66937C15.4088 5.64417 15.5105 5.93393 15.5486 6.29929C15.5613 6.47567 15.6883 6.53866 15.828 6.61425C16.0948 6.76543 16.0948 6.80323 15.9805 7.14338C15.8153 7.09299 15.9424 6.86622 15.7899 6.82842C15.4215 6.71504 15.3707 6.42527 15.3072 6.09771C15.2691 5.90874 15.1167 5.80795 14.9261 5.88354C14.634 6.00953 14.634 5.83314 14.6213 5.64417C14.5959 5.30401 14.3672 5.16543 14.0623 5.21582C13.821 5.25362 13.7829 5.19063 13.732 4.96385C13.6812 4.64889 13.478 4.34653 13.1096 4.52291C12.7031 4.71188 12.3728 4.67409 12.0044 4.47252C11.8393 4.37173 11.6742 4.42212 11.5344 4.5985C11.3947 4.77488 11.4836 4.88826 11.5979 5.02685C11.6488 5.07724 11.6869 5.15283 11.7377 5.20322C12.0298 5.45519 11.9409 5.65677 11.6615 5.84574C11.6233 5.88354 11.5217 5.93393 11.4074 6.00953ZM9.50194 2.73393C8.87949 3.60323 8.473 4.48512 8.23164 5.4426C8.19353 5.56858 8.25705 5.66937 8.35867 5.75756C8.70165 6.02212 8.65084 6.31189 8.40949 6.61425C8.30786 6.74023 8.14272 6.85362 8.24434 7.04259C8.34597 7.23157 8.54922 7.26937 8.75247 7.26937C9.40032 7.28197 9.95925 7.08039 10.4166 6.61425C10.4801 6.55126 10.5309 6.41267 10.696 6.55126C10.2133 7.24417 9.48924 7.43315 8.68895 7.48354C8.79057 7.7607 8.98112 7.8111 9.17167 7.8237C9.69249 7.86149 11.0771 7.06779 11.3058 6.60165C11.3693 6.47566 11.4709 6.31189 11.2042 6.26149C11.0898 6.2363 10.8866 6.31189 10.8739 6.13551C10.8612 5.98433 11.0517 5.95913 11.166 5.89614C11.852 5.55598 11.852 5.55598 11.382 4.97645C11.3693 4.96385 11.3566 4.95126 11.3566 4.93866C10.9628 4.45992 10.6198 4.43472 10.1244 4.82527C9.98466 4.92606 9.88303 5.11503 9.52735 5.08984C10.6452 4.23314 9.81952 3.55283 9.50194 2.73393ZM16.4505 5.66937C16.5902 5.367 16.4251 5.24102 16.2727 5.08984C16.0313 4.83787 16.1964 4.32133 15.7264 4.20795C15.7264 4.20795 15.7391 4.15756 15.7391 4.11976C15.8535 3.59063 15.3834 3.76701 15.1675 3.61582C14.9642 3.47724 15.2183 2.9607 14.7102 2.9607C14.6086 2.9607 14.5069 2.92291 14.3926 2.91031C14.2402 2.89771 14.1385 2.84732 14.1131 2.68354C14.0496 2.29299 13.7956 2.30559 13.5034 2.39378C13.3891 2.43157 13.3128 2.50716 13.2493 2.30559C13.0969 1.90244 12.7539 1.92764 12.4745 2.10401C12.2331 2.25519 12.0425 2.28039 11.8266 2.11661C11.5725 1.92763 11.3312 1.99063 11.166 2.23C11.0263 2.43157 10.912 2.44417 10.7468 2.28039C10.5309 2.06622 10.353 2.11661 10.2006 2.36858C10.1244 2.49456 10.0355 2.62055 9.95925 2.74653C9.90844 2.82212 9.756 2.85992 9.84493 2.9985C9.95925 3.17488 10.0482 2.9985 10.1498 2.9607C12.1569 2.30559 13.6685 2.53236 15.0151 3.99378C15.4978 4.52291 15.9297 5.10244 16.4505 5.66937Z" fill="#011F5B"/>
<path d="M25.5196 7.11782C24.1349 7.15561 22.7503 7.16821 21.3657 7.18081C20.9338 7.18081 20.8067 7.02963 20.9211 6.66427C20.9973 6.4249 20.9465 6.27372 20.7813 6.10994C20.5527 5.89577 20.5146 5.6816 20.7178 5.40443C20.9719 5.06428 20.8703 4.0312 20.5908 3.69105C20.4892 3.56506 20.4002 3.32569 20.5146 3.3005C21.0354 3.17451 20.5146 2.29262 21.2386 2.35562C21.5943 2.38081 21.9119 2.30522 22.2295 2.12884C22.6614 1.88947 23.1187 1.83908 23.5633 2.09105C23.8301 2.24223 24.0587 2.15404 24.3001 2.05325C24.7828 1.83908 25.2401 1.85168 25.672 2.16664C25.9515 2.36821 26.2563 2.38081 26.5739 2.36821C26.8153 2.35561 26.9042 2.4438 26.8788 2.67058C26.8534 2.90995 26.8788 3.12412 27.082 3.32569C27.2345 3.47687 27.171 3.69105 27.0439 3.86743C26.6882 4.37136 26.6755 5.08947 27.0439 5.54302C27.1964 5.73199 27.1837 5.94617 27.0312 6.07215C26.7899 6.28632 26.7772 6.52569 26.7899 6.80286C26.8026 7.05483 26.7391 7.19341 26.4342 7.14302C26.1293 7.08003 25.8244 7.11782 25.5196 7.11782ZM26.0531 4.25798H26.0404C26.0404 3.77924 26.0404 3.3005 26.0404 2.82176C26.0404 2.72097 26.0912 2.59498 25.9388 2.51939C25.3798 2.21703 24.8209 1.91467 24.173 2.30522C24.0333 2.39341 23.9317 2.4438 23.9317 2.62018C23.9317 3.52727 23.9317 4.44695 23.9317 5.35404C23.9317 5.50522 23.9444 5.61861 24.1476 5.6816C24.6812 5.83278 25.2147 5.98396 25.7863 5.95876C26.0023 5.94616 26.0785 5.90837 26.0658 5.6942C26.0404 5.21546 26.0531 4.73672 26.0531 4.25798ZM21.6197 4.20758C21.6197 4.67372 21.6451 5.12727 21.607 5.59341C21.5943 5.90837 21.7087 5.94616 21.9881 5.95876C22.4962 5.97136 22.9536 5.79499 23.4363 5.6816C23.6903 5.63121 23.7411 5.53042 23.7411 5.30365C23.7284 4.42176 23.7284 3.53987 23.7411 2.67058C23.7411 2.4564 23.6522 2.36821 23.4744 2.26743C22.8138 1.88947 22.2803 2.33042 21.7468 2.55719C21.4419 2.68317 21.6578 3.08632 21.6197 3.36349C21.5943 3.64066 21.6197 3.93042 21.6197 4.20758ZM23.7919 6.96664C23.7919 6.95404 23.7919 6.95404 23.7919 6.94144C24.1857 6.94144 24.5795 6.94144 24.9606 6.94144C25.3671 6.94144 25.7736 6.91625 26.1801 6.95404C26.5231 6.97924 26.6755 6.86585 26.5866 6.53829C26.485 6.17294 26.9042 6.07215 26.9169 5.83278C26.9296 5.58081 26.4977 5.49262 26.5739 5.11467C26.6374 4.79971 26.5993 4.45955 26.5993 4.13199C26.5993 4.0312 26.5866 3.91782 26.7009 3.85483C27.0566 3.67845 27.0185 3.47687 26.7391 3.2501C26.6374 3.17451 26.6755 3.02333 26.6755 2.90995C26.6755 2.74617 26.7009 2.58239 26.4342 2.58239C26.1547 2.58239 26.2182 2.77136 26.2182 2.92255C26.2182 3.65325 26.2309 4.38396 26.2309 5.11467C26.2309 5.49262 26.358 5.97136 26.1674 6.19814C25.9515 6.4753 25.4306 6.26113 25.0496 6.29892C24.6812 6.33672 24.2747 6.17294 23.9698 6.53829C23.9063 6.62648 23.6649 6.61388 23.6014 6.5005C23.4363 6.23593 23.1949 6.31152 22.979 6.29892C22.5979 6.29892 22.2295 6.27372 21.8484 6.29892C21.5181 6.32412 21.4165 6.23593 21.4165 5.89577C21.4419 4.8753 21.4292 3.86743 21.4292 2.84695C21.4292 2.68317 21.4546 2.5068 21.1878 2.54459C21.0989 2.55719 20.6416 3.47688 20.6924 3.55247C20.7051 3.57766 20.7305 3.59026 20.7559 3.61546C21.0608 3.96821 21.1751 5.17766 20.883 5.53042C20.6924 5.74459 20.7686 5.88317 20.9338 6.00916C21.1624 6.18554 21.2005 6.38711 21.0989 6.63908C20.9846 6.91625 21.1243 6.96664 21.3784 6.96664C22.1914 6.95404 22.9917 6.96664 23.7919 6.96664Z" fill="#011F5B"/>
<path d="M4.39458 7.16862C3.56888 7.16862 2.74319 7.15602 1.90479 7.16862C1.62532 7.16862 1.47288 7.11823 1.51099 6.80327C1.5491 6.5387 1.48559 6.31193 1.26964 6.12295C1.06639 5.94658 1.05369 5.7324 1.18072 5.48043C1.44748 4.87571 1.5364 4.27098 1.07909 3.70405C0.939359 3.52768 0.926655 3.3009 1.1045 3.18752C1.32045 3.03634 1.37126 2.85996 1.34586 2.62059C1.33315 2.41901 1.42207 2.34342 1.61262 2.36862C2.09533 2.43161 2.52723 2.28043 2.95914 2.06626C3.30212 1.90248 3.67051 1.91508 4.01349 2.07886C4.29296 2.20484 4.54702 2.20484 4.83919 2.07886C5.27109 1.87728 5.70299 1.86469 6.12219 2.15445C6.22382 2.21744 6.32544 2.26783 6.43977 2.31823C6.74464 2.45681 7.15113 2.30563 7.36709 2.4946C7.55763 2.65838 7.32898 3.08673 7.60844 3.3513C7.77358 3.51508 7.69736 3.74185 7.54493 3.91823C7.22735 4.27098 7.22735 5.17807 7.53222 5.53083C7.68466 5.7072 7.77358 5.92138 7.57034 6.08516C7.31628 6.28673 7.30357 6.5387 7.32898 6.80327C7.35438 7.10563 7.22735 7.18122 6.93518 7.18122C6.08408 7.15602 5.23298 7.16862 4.39458 7.16862ZM6.5795 4.32138C6.5795 3.83004 6.5795 3.3387 6.5795 2.84736C6.5795 2.73398 6.6049 2.62059 6.46517 2.5324C5.90624 2.23004 5.34731 1.95287 4.68675 2.33083C4.52161 2.41902 4.43269 2.48201 4.43269 2.68358C4.44539 3.59067 4.43269 4.51035 4.43269 5.41744C4.43269 5.55602 4.44539 5.65681 4.62323 5.7072C5.16946 5.85838 5.71569 6.03476 6.30003 5.99697C6.52869 5.98437 6.5795 5.92138 6.5795 5.7198C6.56679 5.24106 6.5795 4.77492 6.5795 4.32138ZM2.14614 4.25838C2.14614 4.73712 2.14614 5.21587 2.14614 5.69461C2.14614 5.88358 2.17155 5.97177 2.41291 5.98437C3.02265 6.02216 3.56888 5.80799 4.12782 5.66941C4.31836 5.61902 4.25485 5.49303 4.25485 5.39224C4.25485 4.48516 4.25485 3.56547 4.25485 2.65839C4.25485 2.49461 4.19133 2.40642 4.03889 2.31823C3.36563 1.90248 2.8067 2.34343 2.26047 2.59539C1.9683 2.73398 2.17155 3.13713 2.14614 3.41429C2.12074 3.69146 2.14614 3.96862 2.14614 4.25838ZM4.36917 6.96705C5.01703 6.96705 5.66488 6.96705 6.31274 6.96705C6.54139 6.96705 6.79545 7.01744 6.986 6.94185C7.26546 6.82846 6.9987 6.46311 7.13843 6.31193C7.44331 5.95917 7.39249 5.6946 7.12573 5.32925C6.9987 5.14027 7.11303 4.77492 7.12573 4.49776C7.13843 4.22059 7.03681 3.90563 7.40519 3.72925C7.54493 3.66626 7.51952 3.46468 7.39249 3.38909C7.20195 3.26311 7.21465 3.09933 7.21465 2.92295C7.21465 2.75917 7.25276 2.59539 6.986 2.59539C6.70653 2.59539 6.77004 2.78437 6.77004 2.92295C6.77004 3.79225 6.77004 4.66153 6.77004 5.53083C6.77004 6.31193 6.77005 6.28673 5.99516 6.32453C5.49974 6.34973 4.95351 6.12295 4.50891 6.5639C4.43269 6.63949 4.20403 6.63949 4.12782 6.5261C3.96268 6.24894 3.72132 6.32453 3.49267 6.32453C3.11158 6.31193 2.74319 6.29933 2.3621 6.32453C2.04452 6.34973 1.9556 6.24894 1.9683 5.93398C1.99371 4.9261 1.98101 3.93083 1.98101 2.92295C1.98101 2.73398 1.9683 2.49461 1.71424 2.59539C1.39667 2.73398 1.58721 3.25051 1.20612 3.41429C1.1299 3.43949 1.24423 3.60327 1.33315 3.65366C1.5491 3.77965 1.51099 3.99382 1.57451 4.19539C1.77776 4.9387 1.04098 5.7198 1.71424 6.42531C1.75235 6.46311 1.72695 6.5765 1.71424 6.63949C1.67613 6.89146 1.77776 6.96705 2.04452 6.96705C2.794 6.95445 3.58159 6.96705 4.36917 6.96705Z" fill="#011F5B"/>
<path d="M11.4062 6.00951C11.5205 5.93392 11.6221 5.88352 11.7237 5.80793C12.0032 5.61896 12.0794 5.41738 11.8 5.16541C11.7491 5.11502 11.711 5.05203 11.6602 4.98903C11.5459 4.86305 11.4697 4.74967 11.5967 4.56069C11.7364 4.38431 11.9016 4.34652 12.0667 4.4347C12.4351 4.63628 12.7654 4.67407 13.1719 4.4851C13.5403 4.32132 13.7435 4.62368 13.7943 4.92604C13.8324 5.15281 13.8833 5.21581 14.1246 5.17801C14.4295 5.12762 14.6581 5.2662 14.6835 5.60636C14.6962 5.79533 14.6962 5.97171 14.9884 5.84573C15.1663 5.77014 15.3314 5.87092 15.3695 6.0599C15.4203 6.37486 15.4711 6.67722 15.8522 6.79061C15.992 6.8284 15.8649 7.06777 16.0428 7.10557C16.1571 6.76541 16.1571 6.72762 15.8903 6.57644C15.7506 6.50085 15.6236 6.43785 15.6109 6.26148C15.5728 5.89612 15.4711 5.60636 15.0138 5.63156C14.9757 5.63156 14.8995 5.56856 14.8868 5.53077C14.8106 5.12762 14.5565 4.95124 14.15 4.96384C13.9722 4.96384 14.0103 4.80006 13.9595 4.71187C13.7435 4.27092 13.4513 4.11974 13.0194 4.32132C12.7527 4.4473 12.5494 4.40951 12.3081 4.29612C12.0159 4.15754 11.6983 4.05675 11.4824 4.42211C11.4062 4.54809 11.3426 4.54809 11.2283 4.4725C10.9616 4.29612 10.6694 4.28352 10.3645 4.35911C10.3391 4.04415 10.2883 3.74179 10.1359 3.47722C10.0088 3.25045 10.085 3.14966 10.301 3.07407C11.7491 2.58273 13.3243 2.54494 14.5184 3.71659C15.2044 4.38431 15.8649 5.06462 16.3603 5.89612C16.7922 6.62683 17.8847 7.05518 18.5961 6.80321C19.028 6.65203 19.2312 6.31187 19.1423 5.90872C19.028 5.37958 18.558 5.20321 18.1134 5.50557C17.999 5.59376 17.8847 5.69454 17.7704 5.78273C17.5417 5.10242 17.745 4.67407 18.4055 4.4977C18.6469 4.4347 18.685 4.33392 18.6977 4.10714C18.7358 3.38903 18.9899 3.01108 19.4726 2.8725C19.7393 2.79691 19.9172 2.78431 19.8283 3.16226C19.6758 3.75439 19.8156 4.33391 19.9807 4.88824C20.6794 7.21895 18.7231 8.12604 16.9447 7.82368C16.3095 7.71029 15.7633 7.39533 15.2044 7.11817C14.6708 6.8536 14.1373 6.56384 13.6038 6.29927C13.0703 6.0347 12.5113 5.95911 11.9397 6.0725C11.711 6.13549 11.5586 6.19848 11.4062 6.00951Z" fill="white"/>
<path d="M9.50138 2.73389C9.81895 3.55278 10.6446 4.2331 9.51408 5.07719C9.88247 5.10239 9.98409 4.91341 10.1111 4.81263C10.6065 4.42208 10.9495 4.45987 11.3433 4.92601C11.356 4.93861 11.3687 4.95121 11.3687 4.96381C11.8387 5.55593 11.8387 5.55593 11.1528 5.88349C11.0384 5.94649 10.8479 5.97168 10.8606 6.12286C10.8733 6.29924 11.0766 6.22365 11.1909 6.24885C11.4576 6.29924 11.356 6.45042 11.2925 6.589C11.0638 7.05514 9.67922 7.84885 9.1584 7.81105C8.95515 7.79845 8.7773 7.74806 8.67568 7.47089C9.47597 7.4205 10.2127 7.23152 10.6828 6.53861C10.5176 6.41262 10.4668 6.53861 10.4033 6.6016C9.94598 7.06774 9.37435 7.25672 8.73919 7.25672C8.53595 7.25672 8.3327 7.21892 8.23107 7.02995C8.12945 6.85357 8.29459 6.72759 8.39621 6.6016C8.65028 6.31184 8.68839 6.00948 8.3454 5.74491C8.24378 5.65672 8.18026 5.55593 8.21837 5.42995C8.47243 4.48507 8.87893 3.60318 9.50138 2.73389ZM9.20921 6.08506C9.22191 6.19845 9.06947 6.43782 9.41246 6.38743C9.66652 6.34963 10.1619 6.02207 10.1111 5.8457C10.0476 5.58113 9.78084 5.49294 9.55219 5.48034C9.19651 5.48034 9.14569 5.75751 9.20921 6.08506Z" fill="white"/>
<path d="M16.4493 5.66908C15.9284 5.10215 15.4965 4.52262 15.0138 4.00609C13.6673 2.54467 12.1429 2.3179 10.1486 2.97302C10.0597 2.99822 9.95803 3.18719 9.8437 3.01081C9.75478 2.87223 9.90722 2.83444 9.95803 2.75885C10.0342 2.63286 10.1232 2.50688 10.1994 2.38089C10.3518 2.12893 10.517 2.07853 10.7456 2.29271C10.9108 2.45649 11.0251 2.44388 11.1648 2.24231C11.33 2.00294 11.5586 1.93995 11.8254 2.12893C12.054 2.2927 12.2319 2.25491 12.4732 2.11633C12.7527 1.93995 13.1084 1.91475 13.2481 2.3179C13.3116 2.50688 13.3878 2.44389 13.5022 2.40609C13.7943 2.3053 14.0484 2.3053 14.1119 2.69585C14.1373 2.85963 14.2516 2.91003 14.3914 2.92263C14.493 2.93523 14.5946 2.97302 14.709 2.97302C15.2171 2.97302 14.963 3.48955 15.1663 3.62814C15.3822 3.77932 15.8522 3.59034 15.7379 4.13207C15.7379 4.15727 15.7252 4.22026 15.7252 4.22026C16.1952 4.33365 16.0428 4.85019 16.2714 5.10215C16.4239 5.24074 16.589 5.35412 16.4493 5.66908Z" fill="white"/>
<path d="M26.0521 4.25837C26.0521 4.73711 26.0394 5.21585 26.0521 5.69459C26.0648 5.92136 25.9886 5.94656 25.7726 5.95915C25.201 5.98435 24.6802 5.83317 24.1339 5.68199C23.9307 5.619 23.918 5.50561 23.918 5.35443C23.918 4.44734 23.918 3.52766 23.918 2.62057C23.918 2.44419 24.0069 2.3938 24.1593 2.30561C24.8199 1.90246 25.3661 2.20483 25.925 2.51979C26.0775 2.60797 26.0267 2.72136 26.0267 2.82215C26.0394 3.30089 26.0267 3.77963 26.0267 4.25837C26.0521 4.25837 26.0521 4.25837 26.0521 4.25837Z" fill="white"/>
<path d="M21.62 4.20795C21.62 3.93078 21.5946 3.64102 21.6327 3.36386C21.6708 3.08669 21.4549 2.68354 21.7597 2.55755C22.2933 2.33078 22.8268 1.87724 23.4874 2.26779C23.6652 2.36858 23.7541 2.45677 23.7541 2.67094C23.7414 3.55283 23.7541 4.43472 23.7541 5.30401C23.7541 5.53078 23.7033 5.63157 23.4492 5.68196C22.9665 5.78275 22.5092 5.97173 22.0011 5.95913C21.7216 5.94653 21.6073 5.90873 21.62 5.59377C21.6454 5.14023 21.62 4.67409 21.62 4.20795Z" fill="white"/>
<path d="M23.7939 6.96677C22.9936 6.96677 22.1933 6.96677 21.393 6.96677C21.139 6.96677 20.9992 6.91638 21.1136 6.63921C21.2152 6.38724 21.1771 6.18567 20.9484 6.00929C20.7833 5.8833 20.7071 5.74472 20.8976 5.53055C21.1898 5.17779 21.0881 3.96834 20.7706 3.61559C20.7452 3.59039 20.7198 3.57779 20.7071 3.5526C20.6562 3.477 21.1135 2.55732 21.2025 2.54472C21.4692 2.50693 21.4438 2.6833 21.4438 2.84708C21.4438 3.86756 21.4565 4.87543 21.4311 5.8959C21.4184 6.24866 21.52 6.33685 21.863 6.29905C22.2314 6.27385 22.6125 6.28645 22.9936 6.29905C23.2223 6.29905 23.4636 6.22346 23.616 6.50063C23.6923 6.61401 23.9209 6.62661 23.9844 6.53842C24.2893 6.17307 24.6958 6.32425 25.0642 6.29905C25.4453 6.26126 25.9661 6.46283 26.1821 6.19826C26.3726 5.97149 26.2456 5.48015 26.2456 5.1148C26.2456 4.38409 26.2329 3.65338 26.2329 2.92267C26.2329 2.77149 26.1694 2.58251 26.4488 2.58251C26.7029 2.58251 26.6902 2.7463 26.6902 2.91007C26.6902 3.02346 26.6521 3.17464 26.7537 3.25023C27.0332 3.477 27.0713 3.66598 26.7156 3.85496C26.6013 3.91795 26.614 4.03133 26.614 4.13212C26.614 4.45968 26.6521 4.79984 26.5885 5.1148C26.5123 5.48015 26.9442 5.58094 26.9315 5.83291C26.9188 6.07228 26.4996 6.18566 26.6013 6.53842C26.6902 6.86598 26.5377 6.97937 26.1948 6.95417C25.7883 6.91638 25.3818 6.94157 24.9753 6.94157C24.5815 6.94157 24.1877 6.94157 23.8066 6.94157C23.7939 6.94157 23.7939 6.95417 23.7939 6.96677Z" fill="white"/>
<path d="M6.5804 4.3213C6.5804 4.78745 6.5677 5.24099 6.5804 5.70713C6.5804 5.90871 6.52959 5.9717 6.30094 5.9843C5.7166 6.00949 5.17037 5.84572 4.62414 5.69453C4.4463 5.64414 4.43359 5.55595 4.43359 5.40477C4.43359 4.49768 4.4463 3.578 4.43359 2.67091C4.43359 2.46934 4.52251 2.41894 4.68765 2.31815C5.34821 1.9528 5.89444 2.21737 6.46608 2.51973C6.60581 2.59532 6.5804 2.72131 6.5804 2.83469C6.5804 3.32603 6.5804 3.82996 6.5804 4.3213Z" fill="white"/>
<path d="M2.14689 4.25816C2.14689 3.96839 2.12149 3.69123 2.14689 3.40146C2.1723 3.1243 1.96905 2.70855 2.26122 2.58257C2.80745 2.3306 3.36638 1.88965 4.03964 2.3054C4.19208 2.39359 4.2556 2.48178 4.2556 2.64556C4.2556 3.55265 4.2556 4.47233 4.2556 5.37942C4.2556 5.48021 4.31911 5.61879 4.12857 5.65658C3.55693 5.79516 3.0107 6.00934 2.41366 5.97154C2.1723 5.95894 2.14689 5.87076 2.14689 5.68178C2.14689 5.21564 2.14689 4.7369 2.14689 4.25816Z" fill="white"/>
<path d="M4.36968 6.96681C3.5821 6.96681 2.79451 6.95421 2.01963 6.96681C1.76557 6.96681 1.66394 6.89122 1.68935 6.63925C1.70205 6.56366 1.72746 6.46287 1.68935 6.42508C1.01609 5.71956 1.75286 4.92586 1.54962 4.19515C1.4988 3.99358 1.53691 3.77941 1.30826 3.65342C1.21934 3.60303 1.10501 3.43925 1.18123 3.41405C1.57502 3.26287 1.37177 2.73374 1.68935 2.59516C1.94341 2.48177 1.95611 2.73374 1.95611 2.92272C1.95611 3.93059 1.96882 4.92586 1.94341 5.93374C1.93071 6.2487 2.03233 6.34949 2.3372 6.32429C2.71829 6.29909 3.08668 6.31169 3.46777 6.32429C3.69642 6.32429 3.93778 6.2613 4.10292 6.52586C4.16644 6.63925 4.40779 6.63925 4.48401 6.56366C4.92862 6.12271 5.47485 6.34949 5.97027 6.32429C6.74515 6.2865 6.74515 6.31169 6.74515 5.53059C6.74515 4.6613 6.74515 3.79201 6.74515 2.92272C6.74515 2.77153 6.68163 2.58256 6.9611 2.59516C7.22786 2.59516 7.18976 2.77153 7.18976 2.92272C7.18976 3.09909 7.17705 3.27547 7.3676 3.38885C7.49463 3.47704 7.52003 3.66602 7.3803 3.72901C6.99921 3.89279 7.10083 4.20775 7.10083 4.49752C7.08813 4.77468 6.9738 5.14004 7.10083 5.32901C7.3676 5.69437 7.41841 5.94634 7.11354 6.31169C6.98651 6.46287 7.25327 6.81563 6.9611 6.94161C6.77055 7.0172 6.5165 6.96681 6.28784 6.96681C5.66539 6.96681 5.01754 6.96681 4.36968 6.96681Z" fill="white"/>
<path d="M9.21006 6.08472C9.13384 5.75717 9.18465 5.48 9.55304 5.4926C9.7817 5.4926 10.0485 5.58079 10.112 5.85795C10.1501 6.02173 9.66737 6.36189 9.41331 6.39969C9.07033 6.42488 9.23546 6.19811 9.21006 6.08472Z" fill="#011F5B"/>
</g>
<defs>
<clipPath id="clip0_341_9207">
<rect width="116.741" height="32" fill="white"/>
</clipPath>
</defs>
</svg>
