<svg preserveAspectRatio="xMidYMid meet" overflow="visible" style="display: block;" viewBox="0 0 250.001 63" fill="none" xmlns="http://www.w3.org/2000/svg">
<g id="logo-light">
<path id="Vector" d="M250 46.3951H57.2112V45.6417H250V46.3951Z" fill="var(--fill-0, white)"/>
<path id="Vector_2" d="M59.7584 55.6394C59.7584 57.581 60.2793 59.0589 62.3339 59.0589C64.2149 59.0589 65.2277 57.7838 65.2277 55.5814V51.7272C65.2277 51.4374 65.1699 51.2056 65.1409 50.9738C65.0831 50.4811 64.5911 50.2783 63.9545 50.2203V49.8436H67.2245V50.1914C66.5589 50.2493 66.0959 50.4522 66.038 50.9448C66.0091 51.1766 65.9512 51.4085 65.9512 51.6983V55.6394C65.9512 58.6242 64.0702 59.7254 62.276 59.7254C59.3243 59.7254 58.4272 58.2185 58.4272 55.7263V51.5823C58.4272 50.3073 58.4851 50.3652 57.2407 50.2203V49.8436H60.9738V50.1914C59.7294 50.3362 59.7873 50.2783 59.7873 51.5534V55.6394H59.7584Z" fill="var(--fill-0, white)"/>
<path id="Vector_3" d="M75.0376 59.5515C73.3302 57.552 71.565 55.4365 69.8287 53.379V58.1026C69.8287 58.3344 69.8576 58.5083 69.8866 58.6822C69.9444 59.0589 70.2917 59.2328 71.0152 59.2617V59.5515H68.4107V59.2617C68.9316 59.2038 69.2789 59.0589 69.3367 58.6822C69.3657 58.5083 69.3946 58.3344 69.3946 58.1026V53.0603C69.1052 52.6835 68.758 52.3358 68.1502 52.3358V52.046H70.0891C71.6807 53.9876 73.3302 55.9581 74.9219 57.8707H74.9508V53.466C74.9508 53.2341 74.9219 53.0603 74.8929 52.8864C74.835 52.5097 74.4878 52.3648 73.7643 52.3068V52.017H76.3688V52.3068C75.8768 52.3648 75.5006 52.5097 75.4428 52.8864C75.4138 53.0603 75.3849 53.2341 75.3849 53.466V59.4936H75.0376V59.5515Z" fill="var(--fill-0, white)"/>
<path id="Vector_4" d="M80.5365 58.2185C80.5365 59.2038 80.5076 59.1458 81.4626 59.2907V59.5805H78.5976V59.2907C79.5526 59.1748 79.5237 59.2328 79.5237 58.2185V53.408C79.5237 52.4227 79.5526 52.4807 78.5976 52.3358V52.046H81.4626V52.3358C80.5076 52.4517 80.5365 52.3937 80.5365 53.408V58.2185Z" fill="var(--fill-0, white)"/>
<path id="Vector_5" d="M86.005 52.3358C85.4263 52.3358 84.9922 52.5097 85.3394 53.5239C85.7446 54.799 86.3812 56.6247 86.9311 58.2475C87.6256 56.6247 88.2622 54.9729 88.9278 53.3211C89.1883 52.6546 88.9278 52.3068 88.2044 52.3068V52.017H90.5194V52.3068C90.2011 52.3068 89.8539 52.4227 89.6224 52.9443C88.7253 55.1467 87.8282 57.3202 86.9311 59.4936H86.3812C85.7446 57.6389 84.9922 55.5814 84.3555 53.7558C83.9504 52.6256 83.6321 52.2778 83.1112 52.2778V51.988H86.005V52.3358Z" fill="var(--fill-0, white)"/>
<path id="Vector_6" d="M92.1397 59.2617C93.0947 59.1458 93.0657 59.2038 93.0657 58.1895V53.379C93.0657 52.3937 93.0947 52.4517 92.1397 52.3068V52.017H96.9146V53.7268H96.6252C96.5094 52.9443 96.3069 52.3358 95.5255 52.3358H94.0786V55.3786H94.9757C95.6413 55.3786 95.9307 55.1178 95.9596 54.4512H96.249V56.7406H95.9596C95.9307 56.103 95.6992 55.7263 94.9757 55.7263H94.0786V58.1316C94.0786 59.0299 94.4837 59.1168 95.4676 59.1168C97.0014 59.1168 96.9435 58.6822 97.4355 57.523H97.7249L97.4065 59.4356H92.1686V59.2617H92.1397Z" fill="var(--fill-0, white)"/>
<path id="Vector_7" d="M99.3463 52.075H102.443C103.513 52.075 104.613 52.6546 104.613 53.9006C104.613 55.0018 103.948 55.7553 103.108 56.0741L104.15 57.6679C104.671 58.4503 105.279 59.2038 105.655 59.4066V59.5515H104.555C103.919 59.5515 103.571 58.3924 102.298 56.2479H101.285V58.2185C101.285 59.2038 101.256 59.1458 102.211 59.2907V59.5805H99.3463V59.2907C100.301 59.1748 100.272 59.2328 100.272 58.2185V53.408C100.272 52.4227 100.301 52.4807 99.3463 52.3358V52.075ZM101.285 55.9002H102.182C103.108 55.9002 103.542 55.2047 103.542 53.9876C103.542 52.8284 102.906 52.4227 102.124 52.4227H101.285V55.9002Z" fill="var(--fill-0, white)"/>
<path id="Vector_8" d="M110.95 53.6688C110.863 52.9154 110.458 52.3358 109.619 52.3358C109.011 52.3358 108.432 52.6546 108.432 53.437C108.432 54.1904 109.185 54.6251 110.256 55.4365C111.384 56.2769 111.76 56.8275 111.76 57.7259C111.76 59.0009 110.458 59.6964 109.185 59.6964C108.49 59.6964 107.912 59.5805 107.362 59.3487C107.333 59.3197 107.275 59.2907 107.275 59.2038V57.6679H107.564C107.68 58.856 108.461 59.3197 109.272 59.3197C110.024 59.3197 110.661 58.7401 110.661 57.9577C110.661 57.2622 110.284 56.6826 108.693 55.6394C108.114 55.2627 107.391 54.828 107.391 53.6688C107.391 52.7125 108.461 51.9591 109.677 51.9591C110.14 51.9591 110.747 52.017 111.182 52.1619C111.239 52.1909 111.268 52.2199 111.268 52.2778V53.6688H110.95Z" fill="var(--fill-0, white)"/>
<path id="Vector_9" d="M115.61 58.2185C115.61 59.2038 115.552 59.1458 116.536 59.2907V59.5805H113.671V59.2907C114.626 59.1748 114.597 59.2328 114.597 58.2185V53.408C114.597 52.4227 114.626 52.4807 113.671 52.3358V52.046H116.536V52.3358C115.581 52.4517 115.61 52.3937 115.61 53.408V58.2185Z" fill="var(--fill-0, white)"/>
<path id="Vector_10" d="M121.802 58.2185C121.802 59.2038 121.773 59.1458 122.728 59.2907V59.5805H119.863V59.2907C120.818 59.1748 120.789 59.2328 120.789 58.2185V52.4227H119.805C118.879 52.4227 118.676 53.0023 118.3 53.7268H118.04L118.329 52.104H124.233L124.522 53.7268H124.261C123.914 53.0313 123.683 52.4227 122.757 52.4227H121.802V58.2185Z" fill="var(--fill-0, white)"/>
<path id="Vector_11" d="M127.62 59.2617C128.574 59.1458 128.546 59.2038 128.546 58.1895V56.5377L126.896 53.2921C126.549 52.5966 126.259 52.3358 125.767 52.3358V52.046H128.488V52.3358C127.677 52.3358 127.764 52.7415 128.025 53.2921L129.327 55.9871L130.803 53.2921C131.179 52.6546 130.832 52.3358 130.195 52.3358V52.046H132.394V52.3358C132.105 52.3358 131.816 52.4807 131.526 52.9733L129.732 56.219C129.616 56.4218 129.616 56.7406 129.616 57.0014V58.1895C129.616 59.1748 129.587 59.1168 130.542 59.2617V59.5515H127.62V59.2617Z" fill="var(--fill-0, white)"/>
<path id="Vector_12" d="M137.226 57.0014C137.226 55.1757 138.789 52.4807 141.104 52.4807C142.956 52.4807 143.332 53.7268 143.332 54.9729C143.332 56.5087 142.117 59.7254 139.483 59.7254C137.689 59.7254 137.226 58.2764 137.226 57.0014ZM142.059 54.2774C142.059 52.8284 141.191 52.7705 140.959 52.7705C139.455 52.7705 138.471 55.4655 138.471 57.2622C138.471 57.9867 138.586 59.2907 139.628 59.2907C141.22 59.2907 142.059 56.6826 142.059 54.2774Z" fill="var(--fill-0, white)"/>
<path id="Vector_13" d="M150.278 52.9154L149.96 53.2052H148.137C147.471 56.5087 146.342 60.8845 145.561 63H144.924L146.892 53.2052H145.59L145.706 52.6256H147.008C147.732 49.6697 150.162 49.3799 150.77 49.3799C151.088 49.3799 151.754 49.4379 151.957 49.6408L151.783 50.5681L151.436 50.742C151.233 50.3652 150.799 49.9305 150.22 49.9305C149.381 49.9305 148.773 50.5101 148.426 51.988L148.281 52.6546H150.307L150.278 52.9154Z" fill="var(--fill-0, white)"/>
<path id="Vector_14" d="M158.728 57.8128C158.728 59.0879 158.67 59.0299 159.914 59.1748V59.5225H156.181V59.1748C157.425 59.0299 157.367 59.0879 157.367 57.8128V51.5823C157.367 50.3073 157.425 50.3652 156.181 50.2203V49.8436H159.798C162.084 49.8436 163.242 50.7709 163.242 52.4227C163.242 54.4223 161.448 55.4945 159.335 55.3786V55.0888C161.072 55.1178 161.853 54.0745 161.853 52.5676C161.853 51.0028 161.101 50.3073 159.567 50.3073H158.728V57.8128Z" fill="var(--fill-0, white)"/>
<path id="Vector_15" d="M165.152 59.2617C166.107 59.1458 166.078 59.2038 166.078 58.1895V53.379C166.078 52.3937 166.107 52.4517 165.152 52.3068V52.017H169.927V53.7268H169.637C169.522 52.9443 169.319 52.3358 168.538 52.3358H167.091V55.3786H167.988C168.653 55.3786 168.943 55.1178 168.972 54.4512H169.261V56.7406H168.972C168.943 56.103 168.711 55.7263 167.988 55.7263H167.091V58.1316C167.091 59.0299 167.496 59.1168 168.48 59.1168C170.014 59.1168 169.956 58.6822 170.448 57.523H170.737L170.419 59.4356H165.181V59.2617H165.152Z" fill="var(--fill-0, white)"/>
<path id="Vector_16" d="M179.216 59.5515C177.509 57.552 175.744 55.4365 174.007 53.379V58.1026C174.007 58.3344 174.036 58.5083 174.065 58.6822C174.123 59.0589 174.47 59.2328 175.194 59.2617V59.5515H172.589V59.2617C173.11 59.2038 173.458 59.0589 173.515 58.6822C173.544 58.5083 173.573 58.3344 173.573 58.1026V53.0603C173.284 52.6835 172.937 52.3358 172.329 52.3358V52.046H174.268C175.859 53.9876 177.509 55.9581 179.101 57.8707H179.13V53.466C179.13 53.2341 179.101 53.0603 179.072 52.8864C179.014 52.5097 178.667 52.3648 177.943 52.3068V52.017H180.548V52.3068C180.056 52.3648 179.679 52.5097 179.621 52.8864C179.593 53.0603 179.564 53.2341 179.564 53.466V59.4936H179.216V59.5515Z" fill="var(--fill-0, white)"/>
<path id="Vector_17" d="M188.766 59.5515C187.059 57.552 185.322 55.4365 183.557 53.379V58.1026C183.557 58.3344 183.586 58.5083 183.615 58.6822C183.673 59.0589 184.02 59.2328 184.744 59.2617V59.5515H182.139V59.2617C182.66 59.2038 183.007 59.0589 183.065 58.6822C183.094 58.5083 183.123 58.3344 183.123 58.1026V53.0603C182.834 52.6835 182.486 52.3358 181.879 52.3358V52.046H183.818C185.409 53.9876 187.059 55.9581 188.65 57.8707H188.679V53.466C188.679 53.2341 188.65 53.0603 188.621 52.8864C188.563 52.5097 188.216 52.3648 187.493 52.3068V52.017H190.097V52.3068C189.605 52.3648 189.229 52.5097 189.171 52.8864C189.142 53.0603 189.113 53.2341 189.113 53.466V59.4936H188.766V59.5515Z" fill="var(--fill-0, white)"/>
<path id="Vector_18" d="M195.712 53.6688C195.625 52.9154 195.22 52.3358 194.381 52.3358C193.773 52.3358 193.194 52.6546 193.194 53.437C193.194 54.1904 193.947 54.6251 195.017 55.4365C196.146 56.2769 196.522 56.8275 196.522 57.7259C196.522 59.0009 195.22 59.6964 193.947 59.6964C193.252 59.6964 192.673 59.5805 192.123 59.3487C192.095 59.3197 192.037 59.2907 192.037 59.2038V57.6679H192.326C192.442 58.856 193.223 59.3197 194.033 59.3197C194.786 59.3197 195.422 58.7401 195.422 57.9577C195.422 57.2622 195.046 56.6826 193.455 55.6394C192.876 55.2627 192.152 54.828 192.152 53.6688C192.152 52.7125 193.223 51.9591 194.439 51.9591C194.902 51.9591 195.509 52.017 195.943 52.1619C196.001 52.1909 196.03 52.2199 196.03 52.2778V53.6688H195.712Z" fill="var(--fill-0, white)"/>
<path id="Vector_19" d="M200.023 59.2617C200.978 59.1458 200.949 59.2038 200.949 58.1895V56.5377L199.3 53.2921C198.953 52.5966 198.663 52.3358 198.171 52.3358V52.046H200.892V52.3358C200.081 52.3358 200.139 52.7415 200.429 53.2921L201.731 55.9871L203.207 53.2921C203.583 52.6546 203.236 52.3358 202.599 52.3358V52.046H204.798V52.3358C204.509 52.3358 204.22 52.4807 203.93 52.9733L202.136 56.219C202.02 56.4218 202.02 56.7406 202.02 57.0014V58.1895C202.02 59.1748 201.991 59.1168 202.946 59.2617V59.5515H200.081V59.2617H200.023Z" fill="var(--fill-0, white)"/>
<path id="Vector_20" d="M206.505 59.2617C207.46 59.1458 207.431 59.2038 207.431 58.1895V53.379C207.431 52.3937 207.46 52.4517 206.505 52.3068V52.017H209.37V52.3068C208.415 52.4227 208.444 52.3648 208.444 53.379V58.3634C208.444 59.1168 208.849 59.1748 209.804 59.1748C211.338 59.1748 211.28 58.7401 211.772 57.581H212.033L211.714 59.4936H206.476V59.2617H206.505Z" fill="var(--fill-0, white)"/>
<path id="Vector_21" d="M215.794 52.3358C215.216 52.3358 214.782 52.5097 215.129 53.5239C215.534 54.799 216.171 56.6247 216.72 58.2475C217.415 56.6247 218.052 54.9729 218.717 53.3211C218.978 52.6546 218.717 52.3068 217.994 52.3068V52.017H220.309V52.3068C219.99 52.3068 219.643 52.4227 219.412 52.9443C218.515 55.1467 217.617 57.3202 216.72 59.4936H216.171C215.505 57.6389 214.782 55.5814 214.145 53.7558C213.74 52.6256 213.421 52.2778 212.9 52.2778V51.988H215.794V52.3358Z" fill="var(--fill-0, white)"/>
<path id="Vector_22" d="M222.045 57.0593L221.553 58.4793C221.408 58.885 221.611 59.2617 222.074 59.2617V59.5515H220.135V59.2617C220.425 59.2617 220.743 59.0879 220.916 58.7401C221.379 57.8128 222.624 54.3063 223.521 51.9301H224.129C224.852 54.0745 225.952 57.3781 226.299 58.3344C226.531 58.943 226.704 59.2617 227.167 59.2617V59.5515H224.678V59.2617C225.344 59.2617 225.402 58.914 225.257 58.4503L224.794 57.0593H222.045ZM224.65 56.6536L223.521 53.1762H223.492L222.219 56.6536H224.65Z" fill="var(--fill-0, white)"/>
<path id="Vector_23" d="M235.387 59.5515C233.679 57.552 231.914 55.4365 230.178 53.379V58.1026C230.178 58.3344 230.207 58.5083 230.236 58.6822C230.293 59.0589 230.641 59.2328 231.364 59.2617V59.5515H228.76V59.2617C229.281 59.2038 229.628 59.0589 229.686 58.6822C229.715 58.5083 229.744 58.3344 229.744 58.1026V53.0603C229.454 52.6835 229.107 52.3358 228.499 52.3358V52.046H230.438C232.03 53.9876 233.679 55.9581 235.271 57.8707H235.3V53.466C235.3 53.2341 235.271 53.0603 235.242 52.8864C235.184 52.5097 234.837 52.3648 234.113 52.3068V52.017H236.718V52.3068C236.226 52.3648 235.85 52.5097 235.792 52.8864C235.763 53.0603 235.734 53.2341 235.734 53.466V59.4936H235.387V59.5515Z" fill="var(--fill-0, white)"/>
<path id="Vector_24" d="M240.422 58.2185C240.422 59.2038 240.393 59.1458 241.348 59.2907V59.5805H238.483V59.2907C239.438 59.1748 239.409 59.2328 239.409 58.2185V53.408C239.409 52.4227 239.438 52.4807 238.483 52.3358V52.046H241.348V52.3358C240.393 52.4517 240.422 52.3937 240.422 53.408V58.2185Z" fill="var(--fill-0, white)"/>
<path id="Vector_25" d="M244.878 57.0593L244.387 58.4793C244.242 58.885 244.444 59.2617 244.907 59.2617V59.5515H242.969V59.2617C243.258 59.2617 243.576 59.0879 243.75 58.7401C244.213 57.8128 245.457 54.3063 246.354 51.9301H246.962C247.685 54.0745 248.785 57.3781 249.132 58.3344C249.364 58.943 249.538 59.2617 250.001 59.2617V59.5515H247.512V59.2617C248.177 59.2617 248.235 58.914 248.062 58.4503L247.599 57.0593H244.878ZM247.483 56.6536L246.354 53.1762H246.325L245.052 56.6536H247.483Z" fill="var(--fill-0, white)"/>
<path id="Vector_26" d="M51.771 1.42008H0.000100571C0.000100571 1.42008 0.000100571 27.1243 0.000100571 27.2692C-0.028838 38.5129 6.19293 46.6559 11.4308 51.5244C17.1896 56.8565 23.5271 59.9282 25.6396 60.3919L25.9001 60.4499L26.1605 60.3919C28.2731 59.9282 34.6105 56.8565 40.3693 51.5244C45.6071 46.6849 51.8289 38.5129 51.8 27.2692C51.771 26.9504 51.771 1.42008 51.771 1.42008Z" fill="var(--fill-0, white)"/>
<path id="Vector_27" d="M48.5878 12.2579C48.6746 12.3159 48.7325 12.3738 48.7904 12.4608C48.8482 12.5477 48.8772 12.6636 48.8772 12.7506C48.8772 12.8665 48.8482 12.9534 48.7904 13.0404C48.7325 13.1273 48.6457 13.1853 48.5878 13.2432C48.472 13.3302 48.3563 13.4171 48.3563 13.562V14.4893H42.9158H37.4754V13.562C37.4754 13.4171 37.3596 13.3302 37.2439 13.2432C37.1571 13.1853 37.0992 13.1273 37.0413 13.0404C36.9834 12.9534 36.9545 12.8375 36.9545 12.7506C36.9545 12.6347 36.9834 12.5477 37.0413 12.4608C37.0992 12.3738 37.186 12.3159 37.2439 12.2579C37.3596 12.171 37.4754 12.0841 37.4754 11.9392V8.89639C37.4754 8.75149 37.3596 8.66456 37.2439 8.57762C37.1571 8.51966 37.0992 8.4617 37.0413 8.37477C36.9834 8.28783 36.9545 8.17192 36.9545 8.08498C36.9545 7.96906 36.9834 7.88213 37.0413 7.79519C37.0992 7.70825 37.186 7.6503 37.2439 7.59234C37.3596 7.5054 37.4754 7.41847 37.4754 7.27357V6.31727H37.6201C38.2567 6.31727 38.8066 6.31727 39.2117 6.1434C39.3564 6.08544 39.53 5.96953 39.6747 5.88259C39.9931 5.67974 40.3982 5.44791 40.948 5.44791C41.411 5.44791 41.8162 5.62178 42.1924 5.76667C42.4528 5.88259 42.7133 5.96953 42.8869 5.96953H42.9737C43.1474 5.96953 43.4078 5.88259 43.6682 5.76667C44.0444 5.62178 44.4496 5.44791 44.9126 5.44791C45.4624 5.44791 45.8676 5.67974 46.1859 5.88259C46.3306 5.96953 46.4753 6.08544 46.6489 6.1434C47.0251 6.31727 47.6039 6.31727 48.2405 6.31727H48.3852V7.24459C48.3852 7.38949 48.501 7.47642 48.6167 7.56336C48.6746 7.62132 48.7614 7.67928 48.8193 7.76621C48.8772 7.85315 48.9061 7.96906 48.9061 8.056C48.9061 8.17192 48.8772 8.25885 48.8193 8.34579C48.7614 8.43273 48.6746 8.49068 48.6167 8.54864C48.501 8.63558 48.3852 8.72251 48.3852 8.86741V11.8812C48.3563 12.0551 48.472 12.142 48.5878 12.2579ZM35.2761 13.8228C34.4369 15.1558 32.8163 15.5036 32.7584 15.5036C32.4401 15.5615 32.1218 15.5905 31.7745 15.5905C30.0961 15.5905 28.5334 14.866 26.9418 14.0256C26.7681 13.9387 26.5656 13.8228 26.363 13.7069C25.3502 13.1563 23.9322 12.3738 22.7457 12.3738C22.3984 12.3738 22.0801 12.4318 21.7618 12.6057L21.7039 12.6347V12.6926C21.7039 12.8375 21.675 13.0114 21.6171 13.1273C21.4145 13.6489 20.8068 14.1705 20.4885 14.4024C19.794 14.895 18.9258 15.4166 17.884 15.4166C17.7104 15.4166 17.5657 15.3876 17.4499 15.3587C17.2474 15.3007 17.1027 15.1848 16.9869 15.0109C16.929 14.924 16.8712 14.8371 16.8422 14.7501C16.8133 14.6632 16.7844 14.6052 16.7844 14.5183V14.4603L16.7265 14.4313C16.3213 14.3154 16.0609 14.0256 16.0609 13.7069C16.0609 13.4461 16.2345 13.2432 16.4081 13.0404C16.6975 12.7216 16.929 12.4318 16.5239 12.0551C16.495 12.0261 16.4371 11.9971 16.4081 11.9681C16.3503 11.9392 16.2924 11.8812 16.2635 11.8233C15.9162 11.4465 16.1188 10.6931 16.2345 10.2294V10.1715C16.3792 9.67882 16.5528 9.1572 16.8422 8.6066C17.2184 7.85315 17.6814 6.98378 18.3181 6.46217C18.3181 6.46217 18.347 6.43319 18.376 6.46217C18.4049 6.46217 18.4049 6.46217 18.4049 6.49114C18.4049 6.52012 18.4917 6.60706 18.5785 6.78093L18.6943 6.95481L18.7522 6.75195C18.9258 6.20136 19.2152 5.85361 19.6203 5.70872C20.0544 5.56382 20.4595 5.76667 20.6621 5.91157L20.7489 5.96953L20.8068 5.88259C20.9226 5.67974 21.183 5.41893 21.5881 5.38995C22.0222 5.36097 22.3984 5.67974 22.5721 5.85361L22.6299 5.91157L22.6878 5.85361C22.8904 5.67974 23.3823 5.30301 23.9032 5.38995C24.3952 5.44791 24.5688 5.88259 24.6267 6.05646L24.6556 6.17238L24.7714 6.11442C25.0029 5.9985 25.437 5.85361 25.8711 6.11442C26.1315 6.28829 26.1604 6.57808 26.1604 6.78093V6.89685L26.2762 6.86787C26.5945 6.80991 27.1733 6.78093 27.5205 7.12868C27.781 7.41847 27.8099 7.76621 27.781 8.02702L27.7521 8.14294L27.8678 8.11396C28.1572 8.08498 28.5045 8.11396 28.707 8.43273C28.8517 8.63558 28.7938 8.95435 28.736 9.09924V9.27311L28.8228 9.30209C28.9964 9.33107 29.2569 9.44699 29.3437 9.67882C29.4016 9.85269 29.3726 10.1425 29.2858 10.4612L29.2569 10.5482L29.3437 10.5772C29.4884 10.6351 29.7488 10.78 29.8646 11.0408C30.0093 11.3016 29.9803 11.6494 29.8356 12.0261L29.8067 12.0841L29.8646 12.142C30.2118 12.4608 30.588 12.7506 30.9353 13.0114C31.6588 13.533 32.7874 13.8228 33.5398 13.1853C33.8291 12.9534 33.9449 12.5187 33.8581 12.113C33.7713 11.7653 33.5398 11.5045 33.1925 11.4175C32.6137 11.3016 32.1507 11.8522 31.7745 12.4028C31.7745 12.4318 31.7456 12.4318 31.7166 12.4318C31.6877 12.4318 31.6877 12.4028 31.6588 12.4028C31.3115 11.5914 31.3115 10.8959 31.6009 10.3743C31.8613 9.93963 32.3822 9.62086 32.9899 9.53392H33.0767V9.44699C33.0767 8.46171 33.3083 7.76621 33.7713 7.33153C34.0607 7.07072 34.5815 6.78093 35.4497 6.89685C35.4786 6.89685 35.4786 6.89685 35.4786 6.92583C35.4786 6.95481 35.4786 6.95481 35.4786 6.98378C34.842 8.54864 34.9867 9.12822 35.334 10.4033C35.3629 10.5192 35.3918 10.6351 35.4208 10.751C35.8838 11.9392 35.797 12.9824 35.2761 13.8228ZM14.4982 12.2579C14.585 12.3159 14.6429 12.3738 14.7008 12.4608C14.7587 12.5477 14.7876 12.6636 14.7876 12.7506C14.7876 12.8665 14.7587 12.9534 14.7008 13.0404C14.6429 13.1273 14.5561 13.1853 14.4982 13.2432C14.3825 13.3302 14.2667 13.4171 14.2667 13.562V14.4893H8.82625H3.38581V13.562C3.38581 13.4171 3.27005 13.3302 3.1543 13.2432C3.06748 13.1853 3.00961 13.1273 2.95173 13.0404C2.89385 12.9534 2.86491 12.8375 2.86491 12.7506C2.86491 12.6347 2.89385 12.5477 2.95173 12.4608C3.00961 12.3738 3.09642 12.3159 3.1543 12.2579C3.27005 12.171 3.38581 12.0841 3.38581 11.9392V8.89639C3.38581 8.75149 3.27005 8.66456 3.1543 8.57762C3.06748 8.51966 3.00961 8.4617 2.95173 8.37477C2.89385 8.28783 2.86491 8.17192 2.86491 8.08498C2.86491 7.96906 2.89385 7.88213 2.95173 7.79519C3.00961 7.70825 3.09642 7.6503 3.1543 7.59234C3.27005 7.5054 3.38581 7.41847 3.38581 7.27357V6.31727H3.5305C4.16715 6.31727 4.71698 6.31727 5.12212 6.1434C5.26681 6.08544 5.44044 5.96953 5.58514 5.88259C5.90346 5.67974 6.3086 5.44791 6.85843 5.44791C7.32145 5.44791 7.72659 5.62178 8.10279 5.76667C8.36324 5.88259 8.62368 5.96953 8.79731 5.96953H8.88413C9.05776 5.96953 9.31821 5.88259 9.57865 5.76667C9.95486 5.62178 10.36 5.44791 10.823 5.44791C11.3728 5.44791 11.778 5.67974 12.0963 5.88259C12.241 5.96953 12.3857 6.08544 12.5593 6.1434C12.9355 6.31727 13.5143 6.31727 14.1509 6.31727H14.2956V7.24459C14.2956 7.38949 14.4114 7.47642 14.5271 7.56336C14.585 7.62132 14.6718 7.67928 14.7297 7.76621C14.7876 7.85315 14.8165 7.96906 14.8165 8.056C14.8165 8.17192 14.7876 8.25885 14.7297 8.34579C14.6718 8.43273 14.585 8.49068 14.5271 8.54864C14.4114 8.63558 14.2956 8.72251 14.2956 8.86741V11.8812C14.2667 12.0551 14.3825 12.142 14.4982 12.2579ZM1.30223 2.78186C1.30223 2.78186 1.36011 17.7929 1.30223 17.7349H50.4688C50.4688 10.6931 50.4688 2.78186 50.4688 2.78186H1.30223Z" fill="var(--fill-0, #990000)"/>
<path id="Vector_28" d="M18.2317 11.5915C18.4053 11.5915 18.5789 11.6495 18.7236 11.7654C18.7815 11.8234 18.8394 11.8523 18.8683 11.8813C18.9841 11.9972 18.9841 12.1711 18.8394 12.258C18.7236 12.345 18.5789 12.4609 18.4921 12.5189C18.2896 12.6638 17.9423 12.8956 17.7108 12.7217C17.595 12.6348 17.8265 12.4609 17.7108 12.0552C17.6818 11.7364 18.0002 11.5915 18.2317 11.5915Z" fill="var(--fill-0, #011F5B)"/>
<path id="Vector_29" d="M18.3181 6.75207C17.7683 7.27369 17.3631 8.02714 17.0159 8.72263C16.7554 9.27323 16.5528 9.76587 16.4081 10.2585V10.3165C16.3213 10.6642 16.1188 11.4177 16.3792 11.7075C16.4081 11.7364 16.466 11.7654 16.495 11.8234C16.5528 11.8523 16.5818 11.8813 16.6397 11.9393C17.1895 12.4609 16.8133 12.8956 16.5239 13.2144C16.3792 13.4172 16.2056 13.5911 16.2056 13.736C16.2056 14.1127 16.6686 14.2576 16.8133 14.2866C16.8712 14.3155 16.929 14.3445 16.929 14.4315C16.929 14.5474 16.958 14.6343 16.9869 14.7213C17.0159 14.8082 17.0448 14.8661 17.1027 14.9241C17.1895 15.04 17.3342 15.127 17.4789 15.1849C17.5946 15.2139 17.7104 15.2429 17.8551 15.2429C18.8679 15.2429 19.6782 14.7502 20.3438 14.2576C20.7489 13.9678 21.2409 13.4752 21.3856 13.0984C21.4145 12.9825 21.4435 12.8956 21.4435 12.7797L20.7489 12.6638C20.7489 12.6638 20.7489 12.6638 20.72 12.6638C20.6332 12.6348 20.6042 12.5768 20.5753 12.5189C20.5464 12.374 20.6911 12.287 20.9226 12.1132C21.0094 12.0552 21.0673 11.9972 21.1541 11.9683C21.5303 11.7075 21.8197 11.4756 21.9933 11.3597C21.7907 11.1279 21.646 10.896 21.5013 10.6932C21.3856 10.5193 21.2988 10.4034 21.2119 10.3165C20.8647 9.93974 20.257 9.70791 19.7361 10.0267C19.5335 10.1426 19.3599 10.3165 19.1573 10.4614C19.0126 10.6063 18.839 10.7222 18.6654 10.8671C18.6075 10.925 18.5207 10.896 18.4628 10.8381C18.4049 10.7801 18.4049 10.6932 18.4628 10.6352C18.4917 10.6063 18.5207 10.5773 18.5496 10.5483C18.7811 10.3454 19.302 9.82383 19.302 9.47608C19.3888 8.54876 18.6075 7.21573 18.3181 6.75207ZM22.7167 12.1711C23.9322 12.1711 25.3502 12.9246 26.4209 13.5331C26.6235 13.649 26.826 13.7649 26.9997 13.8519C28.8517 14.8082 30.7038 15.6486 32.6716 15.3008C32.6716 15.3008 34.2632 14.9821 35.0446 13.707C35.5365 12.9246 35.6233 11.9393 35.305 10.8091C35.2761 10.6932 35.2471 10.5773 35.2182 10.4614C34.8999 9.27323 34.6973 8.57774 35.2761 7.09982C34.6105 7.07084 34.2053 7.27369 33.9738 7.47654C33.5398 7.88224 33.3372 8.57774 33.3661 9.56302C33.3661 9.64995 33.3083 9.70791 33.2214 9.73689C32.6137 9.79485 32.0928 10.0846 31.8613 10.4903C31.6298 10.896 31.6009 11.4177 31.8324 12.0552C32.1218 11.6495 32.6427 11.0989 33.3083 11.2438C33.7134 11.3307 34.0317 11.6495 34.1185 12.0842C34.2343 12.5768 34.0896 13.0984 33.7134 13.3882C32.8452 14.0837 31.6298 13.7939 30.8485 13.2144C29.9224 12.5478 28.9964 11.6785 28.0414 10.5773C27.8678 10.3744 27.6942 10.2006 27.5495 9.9977C26.9418 9.30221 26.3051 8.54876 25.5527 7.96918C24.3662 7.07084 22.9772 6.92594 22.0222 6.95492C21.3566 6.9839 20.0544 7.15777 19.1862 7.70837C19.4467 8.25897 19.7071 8.92548 19.7071 9.41812C19.7071 9.50506 19.6782 9.592 19.6493 9.67893C20.2859 9.30221 21.0383 9.56302 21.4724 10.0267C21.5592 10.1426 21.675 10.2875 21.7907 10.4614C21.9643 10.7222 22.138 11.012 22.3695 11.2148C22.3984 11.2438 22.4274 11.3017 22.4274 11.3307C22.4274 11.3887 22.3984 11.4177 22.3695 11.4466C22.3695 11.4466 21.9643 11.7364 21.3856 12.1711C21.2988 12.2291 21.2409 12.287 21.1541 12.345L21.1251 12.374L21.6171 12.4609C21.9643 12.2291 22.3405 12.1711 22.7167 12.1711ZM31.7745 15.6776C30.0671 15.6776 28.5045 14.9531 26.8839 14.1127C26.7103 14.0258 26.5077 13.9098 26.3051 13.7939C25.0029 13.0984 23.064 12.0262 21.7907 12.6927C21.7907 12.8666 21.7618 13.0115 21.7039 13.1564C21.5013 13.678 20.8647 14.2576 20.5464 14.4604C19.8518 14.9821 18.9547 15.5037 17.884 15.5037C17.7104 15.5037 17.5657 15.4747 17.421 15.4167C17.2184 15.3588 17.0448 15.2139 16.9001 15.04C16.8422 14.9531 16.7843 14.8661 16.7265 14.7502C16.6975 14.6633 16.6686 14.5764 16.6686 14.4894C16.2056 14.4025 15.9162 14.0837 15.9162 13.707C15.9162 13.4172 16.1188 13.1854 16.2924 12.9825C16.6107 12.6058 16.7265 12.4319 16.4371 12.1421C16.4081 12.1132 16.3792 12.0842 16.3213 12.0552C16.2635 12.0262 16.2056 11.9683 16.1477 11.9103C15.7715 11.5046 15.9741 10.7222 16.1188 10.2295V10.1716C16.2635 9.67893 16.466 9.15731 16.7265 8.57774C17.1027 7.79531 17.5657 6.95492 18.2313 6.40432C18.2602 6.37535 18.3181 6.37535 18.347 6.37535C18.4049 6.37535 18.4338 6.40432 18.4628 6.4333C18.4917 6.46228 18.7522 6.86799 19.0126 7.41858C20.1702 6.72309 21.7907 6.66513 21.9933 6.63615C23.0061 6.60718 24.482 6.75207 25.7264 7.73735C26.5077 8.34591 27.1443 9.07038 27.7521 9.79485C27.9257 9.96872 28.0704 10.1716 28.244 10.3744C29.199 11.4466 30.0961 12.287 31.0221 12.9535C31.7166 13.4462 32.7874 13.736 33.5108 13.1274C33.7713 12.9246 33.887 12.5189 33.8002 12.1421C33.7134 11.8234 33.5108 11.5915 33.2214 11.5336C32.7005 11.4177 32.2665 11.9393 31.9192 12.4609C31.8903 12.5189 31.8324 12.5478 31.7745 12.5189C31.7166 12.5189 31.6588 12.4899 31.6588 12.4319C31.3115 11.5915 31.2826 10.8671 31.6009 10.3165C31.8903 9.85281 32.4112 9.50506 33.0478 9.41812C33.0478 8.40386 33.2793 7.67939 33.7713 7.24471C34.0607 6.9839 34.6105 6.66513 35.5365 6.81003C35.5944 6.81003 35.6233 6.83901 35.6523 6.89696C35.6812 6.92594 35.6812 6.9839 35.6523 7.04186C35.0156 8.57774 35.1893 9.12834 35.5076 10.4034C35.5365 10.5193 35.5655 10.6352 35.5944 10.7512C35.9127 11.9972 35.8259 13.0405 35.2761 13.9098C34.4079 15.3008 32.7584 15.6196 32.6716 15.6486C32.4112 15.6486 32.0928 15.6776 31.7745 15.6776Z" fill="var(--fill-0, #011F5B)"/>
<path id="Vector_30" d="M17.2768 14.6053C17.1321 14.6053 16.9874 14.6053 16.8138 14.5764C16.7269 14.5764 16.6691 14.4894 16.6691 14.4025C16.6691 14.3155 16.7559 14.2576 16.8427 14.2576C17.5662 14.3445 18.579 14.2576 19.505 13.3013C19.5629 13.2433 19.6497 13.2433 19.7365 13.3013C19.7944 13.3592 19.7944 13.4462 19.7365 13.5331C19.042 14.2286 18.2028 14.6053 17.2768 14.6053Z" fill="var(--fill-0, #011F5B)"/>
<path id="Vector_31" d="M29.8064 12.258C29.7775 12.258 29.7775 12.258 29.7485 12.258C29.6617 12.229 29.6328 12.1421 29.6617 12.0552C29.8353 11.6784 29.8353 11.3597 29.7196 11.1278C29.546 10.8091 29.1698 10.7221 29.1698 10.7221C29.1408 10.7221 29.0829 10.6932 29.0829 10.6352C29.054 10.6062 29.054 10.5483 29.0829 10.5193C29.1408 10.3744 29.2566 9.93971 29.1698 9.73686C29.1119 9.56299 28.7647 9.47605 28.6489 9.47605C28.591 9.47605 28.5621 9.44707 28.5332 9.41809C28.5042 9.38912 28.5042 9.33116 28.5332 9.2732C28.591 9.15729 28.6779 8.80954 28.5621 8.63567C28.3306 8.28792 27.7229 8.46179 27.7229 8.46179C27.665 8.49077 27.6071 8.46179 27.5782 8.43281C27.5493 8.40383 27.5203 8.34588 27.5493 8.28792C27.5493 8.28792 27.7229 7.73732 27.3756 7.38958C26.9705 6.98387 26.1313 7.2157 26.1023 7.2157C26.0445 7.24468 25.9866 7.2157 25.9576 7.18672C25.9287 7.15774 25.8998 7.09979 25.9287 7.04183C25.9287 7.01285 26.0734 6.57817 25.784 6.37532C25.292 6.05655 24.7422 6.46225 24.7422 6.46225C24.7133 6.49123 24.6554 6.49123 24.5975 6.49123C24.5396 6.46225 24.5107 6.43327 24.5107 6.37532C24.5107 6.34634 24.4239 5.76676 23.903 5.67982C23.3242 5.59289 22.7455 6.17246 22.7455 6.20144C22.7165 6.23042 22.6876 6.2594 22.6297 6.23042C22.6008 6.23042 22.5429 6.20144 22.5139 6.17246C22.5139 6.17246 22.1088 5.65084 21.6169 5.67982C21.1249 5.7088 20.9513 6.20144 20.9513 6.20144C20.9223 6.2594 20.8934 6.28838 20.8355 6.28838C20.7776 6.28838 20.7487 6.28838 20.6908 6.2594C20.6908 6.2594 20.1989 5.79574 19.7069 5.96961C19.0992 6.20144 18.9256 6.95489 18.8677 7.2157C18.8388 7.30264 18.7809 7.33162 18.6941 7.33162C18.6072 7.30264 18.5783 7.24468 18.5783 7.15774C18.6362 6.86796 18.8388 5.99859 19.6201 5.7088C20.0831 5.53493 20.5172 5.76676 20.7487 5.94063C20.8645 5.73778 21.1249 5.41901 21.5879 5.41901C22.0799 5.39004 22.4561 5.73778 22.6297 5.91165C22.8612 5.7088 23.3821 5.36106 23.9319 5.41901C24.395 5.47697 24.6554 5.8537 24.7422 6.14349C25.0027 6.02757 25.4657 5.8537 25.9287 6.14349C26.247 6.34634 26.276 6.69408 26.247 6.92591C26.5653 6.86796 27.202 6.83898 27.5782 7.2157C27.8965 7.53447 27.8965 7.94017 27.8676 8.172C28.128 8.14303 28.5621 8.14303 28.8225 8.51975C28.9672 8.75158 28.9383 9.07035 28.8804 9.2732C29.0829 9.33116 29.3723 9.44707 29.4881 9.70788C29.5749 9.96869 29.4881 10.3454 29.4302 10.5483C29.6038 10.6062 29.8643 10.7801 30.009 11.0699C30.1826 11.3887 30.1537 11.7944 29.9511 12.258C29.8932 12.229 29.8643 12.258 29.8064 12.258Z" fill="var(--fill-0, #011F5B)"/>
<path id="Vector_32" d="M29.0543 14.2865C28.9675 14.2865 28.9096 14.1995 28.9096 14.1126C28.9675 13.562 28.6491 13.4461 28.3598 13.3591C28.2729 13.3302 28.2151 13.3012 28.1572 13.2722C28.0125 13.1853 27.9836 12.9824 27.9836 12.8085C27.9836 12.6057 27.9836 12.3738 27.8099 12.2C27.5495 11.9102 26.9997 12.0841 26.9997 12.0841C26.9418 12.113 26.8839 12.0841 26.855 12.0551C26.826 12.0261 26.7971 11.9681 26.7971 11.9102C26.7971 11.9102 26.8839 11.3016 26.5366 11.0118C26.2472 10.78 25.6974 10.838 25.5238 10.8669C25.4659 10.8669 25.437 10.8669 25.408 10.838C25.3791 10.809 25.3502 10.751 25.3502 10.7221C25.3791 10.3453 25.2344 10.0555 24.945 9.85269C24.7135 9.7078 24.4241 9.67882 24.1926 9.79473C23.5849 10.1135 23.3534 10.1425 22.6878 9.67882C22.4852 9.53392 22.2827 9.47597 22.0801 9.53392C21.8486 9.59188 21.6171 9.82371 21.4435 10.1425C21.4145 10.2004 21.3277 10.2584 21.2409 10.2004C21.183 10.1715 21.1251 10.0845 21.183 9.99758C21.3856 9.59188 21.675 9.30209 22.0222 9.21516C22.3116 9.1572 22.601 9.21516 22.8614 9.38903C23.4113 9.76575 23.527 9.76575 24.0479 9.47596C24.3662 9.30209 24.7714 9.33107 25.0897 9.53392C25.408 9.73677 25.6106 10.0845 25.6106 10.4902C25.871 10.4612 26.363 10.4323 26.7103 10.7221C27.0286 10.9829 27.0865 11.4175 27.0865 11.6494C27.318 11.5914 27.7521 11.5914 28.0125 11.8812C28.244 12.142 28.244 12.4608 28.2729 12.6926C28.2729 12.7796 28.2729 12.8955 28.3019 12.9244C28.3308 12.9244 28.3887 12.9534 28.4466 12.9824C28.736 13.0693 29.2858 13.2432 29.199 14.0546C29.199 14.2285 29.1411 14.2865 29.0543 14.2865Z" fill="var(--fill-0, #011F5B)"/>
<path id="Vector_33" d="M14.5848 12.7507C14.5848 12.8087 14.5559 12.8667 14.5269 12.9246C14.498 12.9826 14.4401 13.0405 14.3533 13.0695C14.2086 13.1854 14.035 13.3013 14.035 13.5622V14.2287H8.82602H3.61709V13.5622C3.61709 13.3013 3.44345 13.1854 3.29876 13.0695C3.24088 13.0116 3.18301 12.9826 3.12513 12.9246C3.09619 12.8667 3.06725 12.8087 3.06725 12.7507C3.06725 12.6928 3.09619 12.6348 3.12513 12.5769C3.15407 12.5189 3.21195 12.461 3.29876 12.432C3.44345 12.3161 3.61709 12.2002 3.61709 11.9393V8.89656C3.61709 8.63575 3.44345 8.51984 3.29876 8.40392C3.24088 8.34596 3.18301 8.31699 3.12513 8.25903C3.09619 8.20107 3.06725 8.14311 3.06725 8.08516C3.06725 8.0272 3.09619 7.96924 3.12513 7.91128C3.15407 7.85332 3.21195 7.79537 3.29876 7.76639C3.44345 7.65047 3.61709 7.53456 3.61709 7.27375V6.57826C3.61709 6.57826 3.61709 6.57826 3.64602 6.57826C3.90647 6.57826 4.19586 6.57826 4.42736 6.54928V13.4462H8.21831C8.27619 13.7071 8.53664 13.9099 8.82602 13.9099C9.11541 13.9099 9.37585 13.7071 9.43373 13.4462H13.2247V6.5203C13.4851 6.54928 13.7456 6.54928 14.006 6.54928H14.035V7.24477C14.035 7.50558 14.2086 7.62149 14.3533 7.73741C14.4112 7.79537 14.469 7.82435 14.5269 7.8823C14.5559 7.94026 14.5848 7.99822 14.5848 8.05618C14.5848 8.11413 14.5559 8.17209 14.5269 8.23005C14.498 8.28801 14.4401 8.34596 14.3533 8.37494C14.2086 8.49086 14.035 8.60677 14.035 8.86758V11.8814C14.035 12.1422 14.2086 12.2581 14.3533 12.374C14.4112 12.432 14.469 12.461 14.5269 12.5189C14.5848 12.6059 14.5848 12.6638 14.5848 12.7507ZM5.23764 6.34642C5.41127 6.25949 5.58491 6.17255 5.7296 6.05664C6.07686 5.85378 6.36625 5.65093 6.8582 5.65093C7.26334 5.65093 7.66848 5.82481 8.01574 5.94072C8.24725 6.02766 8.47876 6.11459 8.68133 6.14357V12.1712H8.65239C8.36301 12.2002 7.95787 12.3161 7.46591 12.4899C7.32122 12.5479 7.14759 12.5769 7.00289 12.6348C6.53988 12.7797 6.07686 12.7797 5.61384 12.7797C5.32446 12.7797 5.03507 12.7797 4.77463 12.8087V6.43336C4.94826 6.46234 5.09295 6.40438 5.23764 6.34642ZM9.66524 5.9697C10.0125 5.82481 10.4176 5.67991 10.8228 5.67991C11.3147 5.67991 11.6331 5.88276 11.9514 6.08562C12.0961 6.17255 12.2697 6.28847 12.4433 6.3754C12.588 6.43336 12.7327 6.49132 12.9064 6.5203V12.8956C12.6459 12.8667 12.3565 12.8667 12.0671 12.8667C11.6041 12.8667 11.1411 12.8667 10.6781 12.7218C10.5334 12.6638 10.3598 12.6348 10.2151 12.5769C9.75205 12.432 9.31798 12.2871 9.02859 12.2581C9.02859 12.2581 9.02859 12.2581 8.99965 12.2581V6.17255C9.23116 6.14357 9.43373 6.05664 9.66524 5.9697ZM14.5559 12.1712C14.4401 12.0842 14.3533 12.0263 14.3533 11.9104V8.89656C14.3533 8.80963 14.4112 8.75167 14.5559 8.63575C14.6427 8.5778 14.7295 8.51984 14.7874 8.40392C14.8452 8.28801 14.9031 8.17209 14.9031 8.05618C14.9031 7.94026 14.8742 7.79537 14.7874 7.70843C14.7295 7.62149 14.6427 7.53456 14.5559 7.4766C14.4401 7.38966 14.3533 7.33171 14.3533 7.21579V6.17255H14.1218C13.5719 6.17255 12.9642 6.17255 12.588 5.99868C12.4433 5.94072 12.2986 5.85378 12.154 5.73787C11.8067 5.53502 11.4305 5.27421 10.8228 5.27421C10.3598 5.27421 9.92569 5.44808 9.54948 5.59297C9.28904 5.70889 9.05753 5.79583 8.8839 5.79583H8.85496H8.82602C8.65239 5.79583 8.42088 5.70889 8.16044 5.59297C7.78423 5.44808 7.35016 5.27421 6.88714 5.27421C6.30837 5.27421 5.90323 5.50604 5.55597 5.73787C5.41127 5.82481 5.26658 5.91174 5.12189 5.99868C4.74569 6.17255 4.13798 6.17255 3.58815 6.17255H3.35664V7.24477C3.35664 7.33171 3.29876 7.38966 3.15407 7.50558C3.06725 7.56354 2.98044 7.62149 2.92256 7.73741C2.86469 7.85332 2.80681 7.96924 2.80681 8.08516C2.80681 8.20107 2.83575 8.34596 2.92256 8.4329C2.98044 8.51984 3.06725 8.60677 3.15407 8.66473C3.26982 8.75167 3.35664 8.80963 3.35664 8.92554V11.9393C3.35664 12.0263 3.29876 12.0842 3.15407 12.2002C3.06725 12.2581 2.98044 12.3161 2.92256 12.432C2.86469 12.5479 2.80681 12.6638 2.80681 12.7797C2.80681 12.8956 2.83575 13.0405 2.92256 13.1275C2.98044 13.2144 3.06725 13.3013 3.15407 13.3593C3.26982 13.4462 3.35664 13.5042 3.35664 13.6201V14.6344H8.8839H14.4112V13.6201C14.4112 13.5332 14.469 13.4752 14.6137 13.3593C14.7005 13.3013 14.7874 13.2434 14.8452 13.1275C14.9031 13.0116 14.961 12.8956 14.961 12.7797C14.961 12.6638 14.9321 12.5189 14.8452 12.432C14.7295 12.2871 14.6427 12.2291 14.5559 12.1712Z" fill="var(--fill-0, #011F5B)"/>
<path id="Vector_34" d="M48.6746 12.7507C48.6746 12.8087 48.6457 12.8667 48.6167 12.9246C48.5878 12.9826 48.5299 13.0405 48.4431 13.0695C48.2984 13.1854 48.1248 13.3013 48.1248 13.5622V14.2287H42.9158H37.7069V13.5622C37.7069 13.3013 37.5333 13.1854 37.3886 13.0695C37.3307 13.0116 37.2728 12.9826 37.215 12.9246C37.186 12.8667 37.1571 12.8087 37.1571 12.7507C37.1571 12.6928 37.186 12.6348 37.215 12.5769C37.2439 12.5189 37.3018 12.461 37.3886 12.432C37.5333 12.3161 37.7069 12.2002 37.7069 11.9393V8.89656C37.7069 8.63575 37.5333 8.51984 37.3886 8.40392C37.3307 8.34596 37.2728 8.31699 37.215 8.25903C37.186 8.20107 37.1571 8.14311 37.1571 8.08516C37.1571 8.0272 37.186 7.96924 37.215 7.91128C37.2439 7.85332 37.3018 7.79537 37.3886 7.76639C37.5333 7.65047 37.7069 7.53456 37.7069 7.27375V6.57826C37.7069 6.57826 37.7069 6.57826 37.7358 6.57826C37.9963 6.57826 38.2857 6.57826 38.5172 6.54928V13.4462H42.3081C42.366 13.7071 42.6265 13.9099 42.9158 13.9099C43.2052 13.9099 43.4657 13.7071 43.5236 13.4462H47.3145V6.5203C47.5749 6.54928 47.8354 6.54928 48.0958 6.54928H48.1248V7.24477C48.1248 7.50558 48.2984 7.62149 48.4431 7.73741C48.501 7.79537 48.5589 7.82435 48.6167 7.8823C48.6457 7.94026 48.6746 7.99822 48.6746 8.05618C48.6746 8.11413 48.6457 8.17209 48.6167 8.23005C48.5878 8.28801 48.5299 8.34596 48.4431 8.37494C48.2984 8.49086 48.1248 8.60677 48.1248 8.86758V11.8814C48.1248 12.1422 48.2984 12.2581 48.4431 12.374C48.501 12.432 48.5589 12.461 48.6167 12.5189C48.6457 12.6059 48.6746 12.6638 48.6746 12.7507ZM39.2985 6.34642C39.4722 6.25949 39.6458 6.17255 39.7905 6.05664C40.1377 5.85378 40.4271 5.65093 40.9191 5.65093C41.3242 5.65093 41.7294 5.82481 42.0766 5.94072C42.3081 6.02766 42.5396 6.11459 42.7422 6.14357V12.1712H42.7133C42.4239 12.2002 42.0188 12.3161 41.5268 12.4899C41.3821 12.5479 41.2085 12.5769 41.0638 12.6348C40.6008 12.7797 40.1377 12.7797 39.6747 12.7797C39.3853 12.7797 39.096 12.7797 38.8355 12.8087V6.43336C39.0091 6.46234 39.1538 6.40438 39.2985 6.34642ZM43.7551 5.9697C44.1023 5.82481 44.5075 5.67991 44.9126 5.67991C45.4046 5.67991 45.7229 5.88276 46.0412 6.08562C46.1859 6.17255 46.3595 6.28847 46.5332 6.3754C46.6779 6.43336 46.8225 6.49132 46.9962 6.5203V12.8956C46.7357 12.8667 46.4463 12.8667 46.157 12.8667C45.6939 12.8667 45.2309 12.8667 44.7679 12.7218C44.6232 12.6638 44.4496 12.6348 44.3049 12.5769C43.8419 12.432 43.4078 12.2871 43.1184 12.2581C43.1184 12.2581 43.1184 12.2581 43.0895 12.2581V6.17255C43.292 6.14357 43.5236 6.05664 43.7551 5.9697ZM48.6457 12.1712C48.5299 12.0842 48.4431 12.0263 48.4431 11.9104V8.89656C48.4431 8.80963 48.501 8.75167 48.6457 8.63575C48.7325 8.5778 48.8193 8.51984 48.8772 8.40392C48.9351 8.28801 48.9929 8.17209 48.9929 8.05618C48.9929 7.94026 48.964 7.79537 48.8772 7.70843C48.8193 7.62149 48.7325 7.53456 48.6457 7.4766C48.5299 7.38966 48.4431 7.33171 48.4431 7.21579V6.17255H48.2116C47.6618 6.17255 47.0541 6.17255 46.6779 5.99868C46.5332 5.94072 46.3885 5.85378 46.2438 5.73787C45.8965 5.53502 45.5203 5.27421 44.9126 5.27421C44.4496 5.27421 44.0155 5.44808 43.6393 5.59297C43.3789 5.70889 43.1474 5.79583 42.9737 5.79583H42.9448H42.9158C42.7422 5.79583 42.5107 5.70889 42.2503 5.59297C41.8741 5.44808 41.44 5.27421 40.977 5.27421C40.3982 5.27421 39.9931 5.50604 39.6458 5.73787C39.5011 5.82481 39.3564 5.91174 39.2117 5.99868C38.8355 6.17255 38.2278 6.17255 37.678 6.17255H37.4465V7.24477C37.4465 7.33171 37.3886 7.38966 37.2439 7.50558C37.1571 7.56354 37.0703 7.62149 37.0124 7.73741C36.9545 7.85332 36.8966 7.96924 36.8966 8.08516C36.8966 8.20107 36.9256 8.34596 37.0124 8.4329C37.0703 8.51984 37.1571 8.60677 37.2439 8.66473C37.3596 8.75167 37.4465 8.80963 37.4465 8.92554V11.9393C37.4465 12.0263 37.3886 12.0842 37.2439 12.2002C37.1571 12.2581 37.0703 12.3161 37.0124 12.432C36.9545 12.5479 36.8966 12.6638 36.8966 12.7797C36.8966 12.8956 36.9256 13.0405 37.0124 13.1275C37.0703 13.2144 37.1571 13.3013 37.2439 13.3593C37.3596 13.4462 37.4465 13.5042 37.4465 13.6201V14.6344H42.9737H48.501V13.6201C48.501 13.5332 48.5589 13.4752 48.7036 13.3593C48.7904 13.3013 48.8772 13.2434 48.9351 13.1275C48.9929 13.0116 49.0508 12.8956 49.0508 12.7797C49.0508 12.6638 49.0219 12.5189 48.9351 12.432C48.8193 12.2871 48.7036 12.2291 48.6457 12.1712Z" fill="var(--fill-0, #011F5B)"/>
<path id="Vector_35" d="M47.3432 39.4692L25.8707 18.7493L4.42725 39.4692C2.77775 35.9627 1.64915 31.8767 1.67808 27.269C1.67808 27.1241 1.67808 22.9512 1.67808 18.0827H50.0923C50.0923 22.9512 50.0923 27.1241 50.0923 27.269C50.0923 31.8767 48.9926 35.9627 47.3432 39.4692ZM40.4847 41.6136C38.8063 43.2944 36.115 43.2944 34.4655 41.6136C32.7871 39.9328 32.7871 37.2378 34.4655 35.586C36.1439 33.9052 38.8352 33.9052 40.4847 35.586C42.1632 37.2378 42.1632 39.9618 40.4847 41.6136ZM21.6167 27.9935C21.6167 25.6462 23.5267 23.7336 25.8707 23.7336C28.2147 23.7336 30.1247 25.6462 30.1247 27.9935C30.1247 30.3408 28.2147 32.2535 25.8707 32.2535C23.5267 32.2824 21.6167 30.3698 21.6167 27.9935ZM39.2114 50.2783C33.4527 55.6394 27.4913 58.3054 25.8996 58.7111C24.308 58.3054 18.3467 55.6104 12.5879 50.2783C12.4432 50.1624 12.2985 50.0175 12.1538 49.8726L25.8996 35.2673L39.6455 49.8726C39.5008 50.0175 39.3561 50.1624 39.2114 50.2783ZM11.2857 41.6136C9.60725 39.9328 9.60725 37.2378 11.2857 35.586C12.9641 33.9052 15.6554 33.9052 17.3049 35.586C18.9833 37.2668 18.9833 39.9618 17.3049 41.6136C15.6554 43.2944 12.9352 43.2944 11.2857 41.6136ZM50.0923 3.10068C50.0923 4.69451 50.0923 11.4176 50.0923 17.3872H1.67808C1.67808 11.4176 1.67808 4.69451 1.67808 3.10068H50.0923ZM50.7868 2.40519H0.98356C0.98356 2.40519 0.98356 26.9503 0.98356 27.269C0.954621 38.1651 7.00278 46.0764 12.096 50.7999C17.6522 55.9581 23.8739 59.0009 25.8418 59.4356H25.8996H25.9575C27.9253 59.0009 34.1472 55.9581 39.7034 50.7999C44.7966 46.0764 50.8447 38.1651 50.8158 27.269C50.7868 26.9503 50.7868 2.40519 50.7868 2.40519Z" fill="var(--fill-0, #011F5B)"/>
<path id="Vector_36" d="M152.101 36.6872V28.6601C149.496 29.7902 142.812 31.4131 142.812 34.9195C142.812 37.2378 144.548 39.1504 146.979 39.1504C149.149 39.1214 150.422 37.9333 152.101 36.6872ZM152.159 27.2691V21.1256C152.159 18.8653 150.712 18.2857 148.57 18.2857C146.487 18.2857 143.506 19.6767 143.506 20.9228C143.506 21.2705 143.651 21.6762 143.651 22.2268C143.651 24.3713 143.101 25.8202 140.641 25.8202C139.599 25.8202 138.905 24.8059 138.905 23.9076C138.905 22.6615 139.773 21.4734 140.989 20.4591C143.593 18.3147 147.731 16.576 151.146 16.576C154.676 16.576 156.557 18.6624 156.557 22.053V37.1509C156.557 38.1072 156.557 39.788 157.889 39.788C158.815 39.788 159.336 38.5998 159.509 37.8753H160.435C160.146 40.5704 158.988 42.1642 156.239 42.1642C154.098 42.1642 152.304 40.2516 152.246 38.2811C149.525 40.2516 147.702 42.1642 144.114 42.1642C141.452 42.1642 138.992 40.0777 138.992 37.3827C138.963 31.1523 147.5 29.2396 152.159 27.2691Z" fill="var(--fill-0, white)"/>
<path id="Vector_37" d="M202.281 29.3266C202.281 33.6734 203.901 40.8312 209.545 40.8312C215.014 40.8312 216.924 35.1224 216.924 30.6886C216.924 25.907 216.229 17.706 209.602 17.706C203.959 17.706 202.281 25.0956 202.281 29.3266ZM197.39 29.0948C197.39 22.2847 202.281 16.4599 209.458 16.4599C217.011 16.4599 221.872 22.1398 221.872 29.2976C221.872 36.6293 217.126 42.0483 209.516 42.0483C201.76 42.0483 197.39 36.2525 197.39 29.0948Z" fill="var(--fill-0, white)"/>
<path id="Vector_38" d="M57.1831 3.76725V2.43422H70.2923V3.76725C67.8614 3.82521 66.9354 3.82521 66.9354 5.27415C66.9354 5.33211 66.9643 5.70883 67.1959 6.28841L75.0961 33.1808L86.2663 1.15915H87.1924L96.8868 32.7751C96.8868 32.7751 104.556 9.67893 104.556 6.40432C104.556 3.82521 102.935 3.99908 100.851 3.76725V2.43422H108.896C112.427 2.43422 116.044 1.21711 118.099 1.2223e-09V20.4301C120.587 18.1987 122.7 16.431 126.288 16.431C128.951 16.431 131.41 17.6191 132.742 19.8795C133.957 21.85 134.189 23.7047 134.189 25.9071V37.2378C134.189 40.1647 134.941 40.1647 137.488 40.3385V41.4108H126.52V40.3385C128.893 40.1647 129.645 40.1647 129.645 37.2378V25.9071C129.645 24.1104 129.645 23.328 128.835 21.6182C127.909 19.9954 126.259 18.4016 124.176 18.7493C120.993 19.2709 119.777 20.7489 118.128 22.3427V37.2378C118.128 40.1647 118.88 40.1647 121.311 40.3385V41.4108H110.227V40.3385C112.832 40.1647 113.584 40.1647 113.584 37.2378V4.115C113.642 4.05704 112.687 4.115 111.501 4.115C107.073 4.40478 106.957 7.76633 105.539 11.7944L95.5846 42.1063H94.5428L84.7037 11.7364L73.3308 42.1352H72.3469L61.8712 8.75161C61.2345 7.01288 60.9451 5.53496 60.0191 4.57866C59.5271 4.08602 59.4982 3.73827 57.1831 3.76725Z" fill="var(--fill-0, white)"/>
<path id="Vector_39" d="M233.448 41.4397V40.3675C230.959 40.1937 230.207 40.1937 230.207 37.2668V23.9075C230.207 21.2994 233.679 18.9521 236.139 18.9521C239.901 18.9521 241.898 21.3284 241.898 24.8638V37.2668C241.898 40.1937 241.145 40.1937 238.541 40.3675V41.4397H249.972V40.3675C248.004 40.1937 246.441 40.1937 246.441 37.2668V23.9075C246.441 19.6766 242.187 16.4599 238.02 16.4599C234.374 16.4599 232.551 18.1407 230.178 20.517V16.4599C227.689 17.3583 225.056 18.6623 222.364 19.039V19.9374C224.766 20.1982 225.634 20.9516 225.634 23.0961V37.2668C225.634 40.1937 224.882 40.1937 222.277 40.3675V41.4397H233.448Z" fill="var(--fill-0, white)"/>
<path id="Vector_40" d="M173.168 41.4397V40.3675C170.216 40.1937 169.463 40.1937 169.463 37.2668V22.3427C169.463 21.4443 170.968 20.0244 172.589 20.0244C174.094 19.9954 174.354 21.7631 176.235 21.7631C178.55 21.7631 179.1 20.517 179.1 18.8362C179.1 17.0975 177.219 16.0833 175.106 16.0833C172.618 16.0833 170.708 18.2277 169.348 20.1403V16.3151C166.743 17.5032 163.907 18.6334 161.303 19.0391V19.9374C163.878 20.1983 164.891 20.8068 164.891 23.0092V37.2668C164.891 40.1937 164.139 40.1937 161.65 40.3675V41.4397H173.168Z" fill="var(--fill-0, white)"/>
<path id="Vector_41" d="M197.245 17.8509L198.084 14.7501H188.158V9.73678H187.579C185.264 12.4898 183.036 14.8371 180.345 17.2133V17.8798H183.499V34.8615C183.499 38.8896 185.322 42.2512 189.663 42.2512C193.396 42.2512 196.261 39.5271 197.795 37.7015L197.1 36.7452C195.74 38.2811 193.946 39.1504 192.296 39.1504C188.968 39.1504 188.129 37.3537 188.129 34.253V17.8509H197.245Z" fill="var(--fill-0, white)"/>
</g>
</svg>
